<?xml version="1.0" standalone="no"?>
<!DOCTYPE svg PUBLIC "-//W3C//DTD SVG 1.1//EN" "http://www.w3.org/Graphics/SVG/1.1/DTD/svg11.dtd" >
<svg xmlns="http://www.w3.org/2000/svg" xmlns:xlink="http://www.w3.org/1999/xlink" version="1.1">
<metadata>
Created by FontForge 20170731 at Thu Jun  8 03:50:23 2023
 By Aleksey,,,
Copyright (c) 2023 by 177Studio.com. All rights reserved.
</metadata>
<defs>
<font id="ThinkTechDemo-Regular" horiz-adv-x="1089" >
  <font-face 
    font-family="Think Tech Demo"
    font-weight="400"
    font-stretch="normal"
    units-per-em="1000"
    panose-1="2 0 5 5 6 0 0 2 0 4"
    ascent="800"
    descent="-200"
    x-height="977"
    cap-height="977"
    bbox="-126 -230 2196 1300"
    underline-thickness="0"
    underline-position="0"
    unicode-range="U+000A-FB02"
  />
<missing-glyph horiz-adv-x="474" 
d="M429 630v-630h-384v630h384zM237 334l167 278h-334zM64 585v-541l162 271zM71 19h333l-166 277zM411 42v545l-163 -272z" />
    <glyph glyph-name="uniF201" unicode="AC" horiz-adv-x="2152" 
d="M613 505h192v-465q13 -4 27 -8q12 -3 25.5 -5.5t25.5 -2.5q25 0 46.5 7.5t38 20.5t26 30t9.5 36q0 29 -14 52t-36 48q-32 36 -52.5 67t-34 59t-22 52.5t-15.5 48.5v60h197l6 -482h854v439h-23v-404h-308q-38 0 -84 12.5t-93.5 37t-92.5 62t-81 87t-59 111.5t-26 137h154
q31 -18 51 -53t41 -73.5t48.5 -72.5t72.5 -50q31 -11 57 -18.5t48.5 -13t42.5 -11.5t40 -14q-5 50 -3 94q1 44 10 80.5t32 63t63 41.5t104 15q5 0 6 -1q95 -5 144 -41t49 -109q2 -72 2.5 -160.5t1.5 -181.5h-1051l-225 -1q-40 0 -75.5 15.5t-61.5 41.5t-41.5 61.5
t-15.5 75.5v312zM66 0l4 550q3 97 30.5 175.5t83.5 134t143 85t210 29.5q24 0 68 -0.5t96.5 -10.5t107.5 -33t101 -66.5t77.5 -112.5t37.5 -170l1 -54h-197v41q0 56 -31 102.5t-83 66.5q-45 18 -93.5 25.5t-97.5 5.5q-46 -4 -92 -16.5t-83 -37t-60 -62.5t-23 -92v-32h-165
v-23h165v-107q-14 -38 -37.5 -81.5t-71.5 -98.5q-21 -25 -35.5 -47.5t-14.5 -51.5q0 -20 9.5 -36.5t26 -29.5t38.5 -20t47 -7q23 0 38 4q13 2 23 6v469h201v-313q0 -40 -15 -75t-41 -61t-61 -41t-75 -15h-232zM1119 527q0 31 3 56t9 48t15.5 46.5t22.5 50.5q28 48 66.5 91.5
t89 77.5t112 55.5t135.5 24.5h290v-410h23v410h191v-288q-6 -78 -52.5 -117.5t-147.5 -44.5q-60 0 -99 13t-62.5 37t-33.5 57t-13 73q-2 20 -1.5 42t2.5 45q-29 -12 -66 -22t-84 -16q-42 -5 -77.5 -33t-61.5 -65q-8 -11 -16.5 -28t-20.5 -35.5t-28.5 -36.5t-38.5 -31h-157z
M490 575v-47h-201v47h201zM613 575h192v-48l-192 1v47z" />
    <glyph glyph-name="uniF202" unicode="AD" horiz-adv-x="2154" 
d="M1123 505h692v22h-692v450h758q52 0 91 -25t64.5 -63.5t38 -85t12.5 -89.5v-395q0 -48 -22 -95.5t-59.5 -85t-87.5 -60.5t-106 -23h-689v450zM71 550q3 97 30 175.5t83 134t143 85t210 29.5q24 0 68 -0.5t96.5 -10.5t107.5 -33t101 -66.5t77.5 -112.5t37.5 -170l1 -54
h-197v41q0 56 -31 102.5t-83 66.5q-45 18 -93.5 25.5t-97.5 5.5q-46 -4 -92 -16.5t-83 -37t-60 -62.5t-23 -92v-33h-167v-22h167v-107q-14 -38 -37.5 -81.5t-71.5 -98.5q-21 -25 -35.5 -47.5t-14.5 -51.5q0 -20 9.5 -36.5t26 -29.5t38.5 -20t47 -7q23 0 38 4q6 1 12 2.5
t11 3.5v469h201v-313q0 -40 -15 -75t-41 -61t-61 -41t-75 -15h-232zM805 505v-465q13 -4 27 -8q12 -3 25.5 -5t25.5 -2q25 0 46.5 7.5t38 20t26 29.5t9.5 36q0 29 -14 52t-36 48q-32 36 -52.5 67t-34 59t-22 52.5t-15.5 48.5v60h197l6 -482h1055v-23h-1280q-40 0 -75 15
t-61.5 41.5t-41.5 61.5t-15 75v312h191zM1230 836q0 -36 20 -67t55 -42q22 -9 48.5 -12.5t57.5 -3.5q30 0 65 3q29 1 56 2t53 1q35 0 70.5 -3t68.5 -16q25 -11 47.5 -29t39 -42.5t25.5 -54.5t8 -64q-2 -41 -15 -73.5t-33 -56.5t-44.5 -39.5t-48.5 -21.5q-26 -7 -58 -10
t-67 -3q-25 0 -50.5 1.5t-51.5 3.5q-24 2 -45.5 3.5t-41.5 1.5q-35 0 -63 -6q-18 -3 -30 -10q-28 -14 -42.5 -41t-16.5 -57q0 -23 7.5 -44t21 -37.5t33 -26t43.5 -9.5q13 0 25 3q20 4 35.5 12.5t31.5 19.5q48 45 83 66.5t68.5 33.5t71.5 20.5t92 27.5q44 16 71 49t47 69.5
t40 69.5t50 51h99v22h-99q-22 13 -38 32.5t-28 40t-21 39.5t-17 30q-26 36 -61 64.5t-77 33.5q-69 8 -116.5 25t-80.5 37.5t-55.5 41.5t-41.5 38.5t-38.5 28.5t-47.5 11q-22 0 -41 -9t-33.5 -24.5t-22.5 -36t-8 -43.5zM289 575h201v-48h-201v48zM614 527v48h191v-48h-191z
" />
    <glyph glyph-name="uniF203" unicode="AL" horiz-adv-x="2130" 
d="M66 0l5 550q3 97 30 175.5t83 134t143 85t210 29.5q24 0 68 -0.5t96.5 -10.5t107.5 -33t101 -66.5t77.5 -112.5t37.5 -170l5 -323h-111q-21 28 -35.5 53.5t-24.5 48.5t-17 44t-13 41v123q0 56 -31 102.5t-83 66.5q-45 18 -93.5 25.5t-97.5 5.5q-46 -4 -92 -16.5t-83 -37
t-60 -62.5t-23 -92v-162q-11 -31 -28 -65t-47 -75h-88v-21h70q-8 -11 -16 -19q-21 -25 -35.5 -47.5t-14.5 -51.5q0 -20 9.5 -36.5t26 -29.5t38.5 -20t47 -7q23 0 38 4q6 1 12 2.5t11 3.5v201h201v-45q0 -40 -15 -75t-41 -61t-61 -41t-75 -15h-232zM1173 237q-6 -11 -11 -27
t-5 -29q0 -24 11 -42.5t28.5 -31t39.5 -19t44 -6.5q15 1 30.5 4t28.5 11q17 8 27 18t18 23q7 12 10 28q4 15 5 33t1 38h418q1 -26 4.5 -49t12.5 -42q8 -22 26.5 -38.5t44.5 -25.5q21 -6 43 -6q25 0 46.5 7.5t37.5 21t25.5 31.5t9.5 38q0 29 -12.5 47t-31.5 37h-625
q0 12 -1 24.5t-3 25.5q-3 35 -4.5 68.5t0.5 65.5h514q40 0 75.5 -14.5t61.5 -39t41.5 -58t15.5 -71.5v-85q0 -25 -10 -47.5t-29 -39t-46.5 -26t-62.5 -9.5h-822v185h44zM1324 977v-490q-9 -30 -16.5 -54.5t-20.5 -49.5t-34 -53t-58 -63q-3 -2 -8 -9h-58v719h195zM807 0
q-40 0 -75 15t-61.5 41.5t-41.5 61.5t-15 75v44h191v-197q13 -4 27 -8q12 -3 25.5 -5t25.5 -2q25 0 46.5 7.5t38 20t26 29.5t9.5 36q0 29 -14 52t-36 48q-5 5 -9 9.5t-7 9.5h93l2 -214h1067v-23h-1174v1zM490 575v-317h-201v317h201zM614 575h191v-317h-191v317z" />
    <glyph glyph-name="uniF204" unicode="AN" horiz-adv-x="2165" 
d="M66 0l4 550q3 97 30.5 175.5t83.5 134t143 85t210 29.5q24 0 68 -0.5t96.5 -10.5t107.5 -33t101 -66.5t77.5 -112.5t37.5 -170l7 -558h917q24 0 45.5 8.5t37.5 22t25.5 31.5t9.5 36q0 27 -15 52t-34 44q-22 24 -38 46t-28.5 44t-23.5 46t-22 53v387h-1l-22 1l-353 3v-533
q-3 -35 -5.5 -64t-13.5 -49q-23 -38 -55.5 -57t-63.5 -27q-36 -10 -74 -9q-36 0 -70.5 9t-61.5 27t-43.5 45.5t-16.5 65.5v772h192v-41q0 -19 -0.5 -44.5t-0.5 -55.5q0 -59 -0.5 -124t-0.5 -121v-129q-7 -18 -15.5 -38t-21 -41.5t-29.5 -45.5t-41 -50q-21 -23 -35 -45
t-14 -50q0 -19 9 -35.5t25 -28.5t37.5 -19t46.5 -7q19 0 36 3q8 2 15 4l14 4v78.5v110.5t0.5 129.5t0.5 135t0.5 127t0.5 106.5v91v86h749v-853q0 -26 -10 -48.5t-28 -39t-41.5 -26.5t-50.5 -10h-952v1l-205 -1q-40 0 -75.5 15t-61.5 41.5t-41.5 61.5t-15.5 75v382h192v-535
q13 -4 27 -8q12 -3 25.5 -5t25.5 -2q25 0 46.5 7.5t38 20t26 29.5t9.5 36q0 29 -14 52t-36 48q-32 36 -52.5 67t-34 59t-22 52.5t-15.5 48.5v123q0 56 -31 102.5t-83 66.5q-45 18 -93.5 25.5t-97.5 5.5q-46 -4 -92 -16.5t-83 -37t-60 -62.5t-23 -92v-162
q-14 -38 -37.5 -81.5t-71.5 -98.5q-21 -25 -35.5 -47.5t-14.5 -51.5q0 -20 9.5 -36.5t26 -29.5t38.5 -20t47 -7q23 0 38 4q13 2 23 6v539h201v-383q0 -40 -15 -75t-41 -61t-61 -41t-75 -15h-232zM1708 766h175v-721h-108q-32 25 -49.5 60.5t-17.5 77.5v583z" />
    <glyph glyph-name="uniF205" unicode="AR" horiz-adv-x="2173" 
d="M66 0l5 550q3 97 30 175.5t83 134t143 85t210 29.5q24 0 68 -0.5t96.5 -10.5t107.5 -33t101 -66.5t77.5 -112.5t37.5 -170l7 -558h573v452q22 -7 52.5 -15t65 -20.5t70.5 -32t69 -48.5q24 -22 47.5 -36t52.5 -14q19 0 36 9.5t29.5 26t20 38t7.5 46.5q0 62 -27.5 91
t-70.5 40q-23 5 -37.5 23.5t-14.5 41.5q0 26 15 44.5t38 25.5q42 11 67 39.5t25 88.5q0 25 -7 47t-20 38.5t-30 26t-36 9.5q-29 0 -51.5 -14.5t-47.5 -35.5q-61 -53 -108.5 -77.5t-87.5 -37.5h-338v-693h23v668h195v-500q0 -41 -15.5 -76.5t-42.5 -62t-63 -42t-76 -15.5h-22
q-41 0 -77 15.5t-62.5 42t-42 62.5t-15.5 77v526q0 95 50 145.5t146 50.5h642q31 0 56.5 -12t44 -32t28.5 -45t10 -50v-420q0 -26 -11 -51t-30 -44.5t-44.5 -31.5t-53.5 -12h-279v-89h418v-190h-1158v1l-138 -1q-40 0 -75 15t-61.5 41.5t-41.5 61.5t-15 75v382h191v-535
q13 -4 27 -8q12 -3 25.5 -5t25.5 -2q25 0 46.5 7.5t38 20t26 29.5t9.5 36q0 29 -14 52t-36 48q-32 36 -52.5 67t-34 59t-22 52.5t-15.5 48.5v123q0 56 -31 102.5t-83 66.5q-45 18 -93.5 25.5t-97.5 5.5q-46 -4 -92 -16.5t-83 -37t-60 -62.5t-23 -92v-162
q-14 -38 -37.5 -81.5t-71.5 -98.5q-21 -25 -35.5 -47.5t-14.5 -51.5q0 -20 9.5 -36.5t26 -29.5t38.5 -20t47 -7q23 0 38 4q6 1 12 2.5t11 3.5v539h201v-383q0 -40 -15 -75t-41 -61t-61 -41t-75 -15h-232z" />
    <glyph glyph-name="uniF206" unicode="AS" horiz-adv-x="2158" 
d="M1225 612q-39 21 -59 52.5t-28 60.5q-10 34 -9 71q0 34 9 66.5t28 58t48 41.5t68 16h806v-182l-542 1q-38 13 -81.5 35t-98.5 67q-24 20 -47 33.5t-52 13.5q-19 0 -36 -9t-29.5 -24.5t-20 -36t-7.5 -43.5q0 -16 2.5 -31t9.5 -30q175 -1 309.5 -1t234.5 -0.5t168.5 -0.5
h110.5h60.5h18.5v-712h-806q-39 0 -68 15.5t-48 41t-28 58t-9 67.5v3q0 38 15.5 71t41.5 58t61.5 39t76.5 14h354v146h193v-313h-688q-3 -9 -6 -21q-3 -17 -3 -35q0 -23 7.5 -43.5t20 -35.5t29.5 -24t36 -9q25 0 45 11q6 2 7 3q9 6 17.5 12.5t17.5 13.5q47 38 92 63t103 44
h348v173v6v5v16v57t1 100h-557q-35 3 -65.5 5t-50.5 13zM66 0l5 549q3 97 30 175.5t83 134t143 85.5t210 29q24 0 68 -0.5t96.5 -10t107.5 -32.5t101 -66.5t77.5 -112.5t37.5 -170l6 -523h-56q28 26 28 60q0 29 -14 51.5t-36 48.5q-32 36 -52.5 67t-34 59t-22 52.5
t-15.5 48.5v123q0 56 -31 102.5t-83 66.5q-45 18 -93.5 25.5t-97.5 5.5q-46 -4 -92 -16.5t-83 -37t-60 -62.5t-23 -92v-162q-14 -38 -37.5 -81.5t-71.5 -98.5q-21 -25 -35.5 -47.5t-14.5 -51.5q0 -20 9.5 -36.5t26 -29.5t38.5 -20t47 -7q23 0 38 4q6 1 12 2.5t11 3.5v539
h201v-383q0 -40 -15 -75t-41 -61t-61 -41t-75 -15h-232zM805 575v-535q13 -5 27 -9q12 -3 25.5 -5.5t25.5 -2.5h1205v-22h-1056l-225 -1q-40 0 -75 15t-61.5 41.5t-41.5 61.5t-15 75v382h191z" />
    <glyph glyph-name="uniF207" unicode="AT" horiz-adv-x="2151" 
d="M613 555h192v-515q13 -4 27 -8q12 -3 25.5 -5t25.5 -2q25 0 46.5 7.5t38 20t26 29.5t9.5 36q0 29 -14 51.5t-36 48.5q-32 36 -52.5 67t-34 59t-22 52.5t-15.5 48.5v111h197l6 -533h593v564h-307l-193 1v388h977v-180h-568q-38 12 -82 34t-100 67q-25 20 -47.5 33.5
t-51.5 13.5q-20 0 -37 -9t-29.5 -24t-20 -35.5t-7.5 -43.5q0 -10 1 -19t3 -17q3 -12 7 -22h652v-582q0 -39 -15.5 -73t-42 -59.5t-60.5 -41t-71 -17.5h-601l-225 -1q-40 0 -75.5 15t-61.5 41.5t-41.5 61.5t-15.5 75v362zM70 549q3 97 30.5 175.5t83.5 134t143 85.5t210 29
q24 0 68 -0.5t96.5 -10t107.5 -32.5t101 -66.5t77.5 -112.5t37.5 -170v-2h-197q-3 52 -33 95t-80 63q-45 18 -93.5 25.5t-97.5 5.5q-43 -3 -86.5 -14.5t-79.5 -34t-61 -57t-30 -83.5h-164v-23h163v-158q-14 -38 -37.5 -81.5t-71.5 -98.5q-21 -25 -35.5 -47.5t-14.5 -51.5
q0 -20 9.5 -36.5t26 -29.5t38.5 -20t47 -7q23 0 38 4q13 2 23 6v519h201v-363q0 -40 -15 -75t-41 -61t-61 -41t-75 -15h-232zM1602 58q-39 2 -74.5 17t-62 40.5t-42.5 59.5t-16 75v315h195v-507z" />
    <glyph glyph-name="uniF208" unicode="AV" horiz-adv-x="2151" 
d="M613 575h192v-535q9 -3 19 -7q19 -7 40 -10h636q-11 6 -21.5 11.5t-19.5 12.5q-53 38 -83.5 94t-30.5 122v690q-5 1 -10.5 1h-12.5q-44 0 -74 -24t-30 -59q0 -26 12.5 -46.5t31.5 -42.5q20 -23 34.5 -44t25.5 -41v-219h-201v500h224q40 0 76 -15t62 -41.5t41.5 -62
t15.5 -75.5v-762h129v699q0 53 20 100t55 82t82 55t100 20h168v-500h-199v223q22 36 59 81q19 23 31.5 43t12.5 46q0 35 -30 59t-73 25h-2q-5 0 -10 -0.5t-10 -0.5v-689q0 -54 -21 -102t-57 -84t-84 -57t-103 -21h-576l-225 -1q-40 0 -75.5 15t-61.5 41.5t-41.5 61.5
t-15.5 75v382zM70 549q3 97 30.5 175.5t83.5 134t143 85.5t210 29q24 0 68 -0.5t96.5 -10t107.5 -32.5t101 -66.5t77.5 -112.5t37.5 -170l6 -534h-70q20 14 31 32t11 39q0 29 -14 51.5t-36 48.5q-32 36 -52.5 67t-34 59t-22 52.5t-15.5 48.5v123q0 56 -31 102.5t-83 66.5
q-45 18 -93.5 25.5t-97.5 5.5q-46 -4 -92 -16.5t-83 -37t-60 -62.5t-23 -92v-162q-14 -38 -37.5 -81.5t-71.5 -98.5q-21 -25 -35.5 -47.5t-14.5 -51.5q0 -20 9.5 -36.5t26 -29.5t38.5 -20t47 -7q23 0 38 4q13 2 23 6v539h201v-383q0 -40 -15 -75t-41 -61t-61 -41t-75 -15
h-232z" />
    <glyph glyph-name="uniF209" unicode="BE" horiz-adv-x="2162" 
d="M76 980h75l710 -3q30 0 55 -9.5t45.5 -26t35.5 -37.5t24 -44q18 -56 15 -118.5t-23.5 -116t-55.5 -90t-81 -38.5l-556 6v-23h522q63 -2 110.5 -26t66.5 -80q9 -27 14 -70t0 -89.5t-23 -91t-54 -75.5h-83q20 16 31.5 41t11.5 56q0 32 -14.5 63t-44.5 45q-15 8 -30 11
q-27 6 -62 6q-20 0 -43 -1.5t-48 -3.5q-26 -2 -51.5 -3.5t-51.5 -1.5q-35 0 -67 3t-59 11q-24 7 -49 23.5t-45.5 42t-34.5 60t-15 77.5q-1 36 8.5 67.5t26 58t39 46t48.5 30.5q5 2 10.5 4.5t11.5 4.5q26 7 55.5 9t62.5 2q26 0 54 -1t57 -2q36 -3 68 -3q31 0 57.5 3.5
t49.5 13.5q35 13 54.5 46t19.5 69q0 25 -8 47.5t-22.5 39t-33.5 26t-41 9.5q-28 0 -48 -12t-39.5 -30.5t-42 -41.5t-56.5 -44.5t-82 -40t-119 -27.5q-42 -5 -77.5 -35t-61.5 -68q-8 -12 -16.5 -31t-20.5 -40t-28.5 -41t-38.5 -33h-88v-23h86q31 -19 51 -56t41 -76.5
t48.5 -75t72.5 -52.5q36 -14 65 -22t53.5 -15t47 -14.5t46 -20.5t49.5 -33.5t58 -52.5l10 -8t10 -6q20 -16 47 -20q11 -4 26 -4h1283v-23h-1257q-4 0 -7 -0.5t-7 -0.5l-688 3h-64zM1316 596q-47 6 -85 26.5t-62 52.5t-32 74t5 92q9 33 28.5 59t46 43t57.5 26t63 9h757v-182
h-72q-185 0 -317.5 -0.5t-226.5 -0.5q-25 12 -51 29t-55 42q-26 21 -48.5 34t-51.5 13q-20 0 -36.5 -9t-29.5 -24t-20 -35.5t-7 -44.5v-13t2 -12h47.5t83 0.5t102 0.5h105.5h62h51.5t37 -0.5t17.5 -0.5q42 -6 74 -26t54 -50t34.5 -67.5t15.5 -77.5q1 -5 1.5 -10.5t0.5 -10.5
q1 -50 -10 -98t-33.5 -86.5t-56.5 -62t-78 -24.5h-512q-1 -5 -1.5 -10.5t-0.5 -11.5q0 -20 6 -41t17.5 -38t29 -28t40.5 -11q29 0 52.5 13.5t47.5 33.5q29 25 55 42t49 29h219l212 2v266h191v-450h-15t-40.5 0.5t-60 0.5h-75.5h-115.5h-121.5t-115.5 0.5t-97.5 0.5h-67h-25
q-44 3 -85.5 16.5t-73 38.5t-50.5 62t-19 85q-1 7 -0.5 13t1.5 13q4 45 20.5 74t46 46.5t70 26t92.5 12.5h462v149h-509z" />
    <glyph glyph-name="uniF210" unicode="CA" horiz-adv-x="2161" 
d="M503 1q-39 0 -87.5 14t-97.5 42t-95 70.5t-81.5 99.5t-56 128t-18.5 157q0 68 16.5 115.5t33.5 85.5q28 51 66.5 97.5t89 82.5t112 58.5t135.5 26.5h290v-436h23v436h191v-307q-6 -83 -52.5 -125t-148.5 -47q-60 0 -98.5 14t-62 39.5t-33.5 60.5t-13 77q-2 22 -1.5 45
t1.5 47q-29 -13 -65.5 -23t-83.5 -17q-42 -5 -77.5 -35t-61.5 -68q-8 -12 -17 -30.5t-21 -38t-28 -39t-38 -32.5h-128v-23h125q20 -13 35.5 -34t29 -47t27 -53.5t30.5 -53t39 -46t52 -31.5q31 -12 57 -19.5t48.5 -14t42.5 -12.5t40 -15q-5 53 -3 101q1 46 10 85t32 67.5
t63 44t104 15.5h6q96 -6 144.5 -44.5t48.5 -116.5q1 -31 1.5 -71t1 -79t0.5 -73.5v-55.5h321v575h200v-418q0 -36 -14 -68t-38 -56t-56 -38.5t-68 -16.5h-541v428h-23v-428h-308zM1132 575q3 91 30.5 165.5t83.5 126.5t143 80t210 27q24 0 68 -0.5t96.5 -9.5t107 -30.5
t101 -62.5t78 -105.5t37.5 -159.5l7 -606h-226q-40 0 -75 14t-61.5 39t-41.5 58t-15 71v416h192v-560q13 -4 27 -8q11 -3 25 -5t25 -2q25 0 47 7t38.5 19t26 28t9.5 34q0 28 -14.5 49t-36.5 44q-32 34 -52.5 63.5t-34 56t-22 49.5t-15.5 45v174q0 53 -30.5 96t-82.5 63
q-92 35 -192 29q-43 -3 -88.5 -14.5t-83 -34.5t-62 -59t-24.5 -87v-153q-14 -36 -37 -77t-71 -92q-21 -23 -35.5 -44.5t-14.5 -49.5q0 -18 9.5 -34t26 -27.5t38.5 -18.5t47 -7q22 0 37 3v-27h-199z" />
    <glyph glyph-name="uniF211" unicode="CE" horiz-adv-x="2155" 
d="M504 0q-39 0 -87.5 14t-97.5 42.5t-95.5 71t-82 99.5t-56 128t-18.5 157q0 34 4.5 62.5t12 53t16.5 45.5t18 40q28 51 66.5 97t89 82t112 59t135.5 26h290v-436h23v436h191v-306q-6 -83 -52.5 -125t-148.5 -47q-60 0 -98.5 14t-62 39t-34 60.5t-13.5 77.5q-1 22 -0.5 45
t1.5 47q-29 -13 -65.5 -23t-83.5 -17q-42 -5 -77.5 -35t-62.5 -69q-8 -12 -16.5 -30t-20.5 -37.5t-28 -39t-38 -32.5h-128v-24h125q31 -19 51 -56t41 -78t48.5 -77.5t72.5 -53.5q31 -12 57 -19.5t48.5 -13.5t42.5 -12.5t40 -15.5q-5 54 -3 101q1 57 13 97t37.5 66t65.5 38
t99 12q96 -6 144.5 -44.5t48.5 -116.5q1 -32 1.5 -71.5l1 -79t0.5 -73.5v-55h1056v-23h-1252v428h-23v-428h-308zM1308 595q-47 6 -85 26.5t-61.5 52.5t-31.5 74t5 92q8 33 27.5 59t46 43t58 26t63.5 9h756v-181h-72q-185 -1 -318 -1.5t-226 -0.5q-24 12 -50.5 29t-56.5 42
q-24 20 -47 34t-52 14q-24 0 -41.5 -11t-29 -28.5t-17 -39t-5.5 -42.5q1 -5 1 -9.5t1 -9.5q12 0 47.5 0.5t83 1t102 0.5h105.5h62.5t52 -0.5t36.5 -1t17 -0.5q42 -5 74 -25t54 -50t34.5 -67.5t16.5 -77.5v-21q2 -50 -9 -98t-33.5 -86.5t-56.5 -62.5t-77 -24h-512
q-2 -5 -2 -10.5v-12.5v-4q0 -24 7.5 -44.5t20 -35.5t29.5 -24t36 -9q29 0 51.5 13t47.5 34q29 25 55.5 41.5t49.5 28.5h219l211 2v266h192v-268l-1 -180h-191h-542q-44 3 -85.5 17t-73 39t-50.5 61.5t-19 85.5q0 56 17.5 90.5t48 54.5t72.5 28t91 11h464v150h-510z" />
    <glyph glyph-name="uniF212" unicode="CO" horiz-adv-x="2195" 
d="M504 1q-39 0 -87.5 14t-97.5 42t-95.5 70.5t-82 99.5t-56 128t-18.5 157q0 34 4.5 62.5t12 53t16.5 45.5t18 40q28 51 66.5 97.5t89 82.5t112 58.5t135.5 26.5h290v-436h23v436h191v-307q-6 -83 -52.5 -125t-148.5 -46q-60 0 -98.5 14t-62 39t-34 60.5t-13.5 77.5
q-1 21 -0.5 44.5t1.5 47.5q-29 -14 -65.5 -24t-83.5 -16q-42 -6 -77.5 -36t-62.5 -68q-8 -12 -16.5 -30.5t-20.5 -38t-28 -39t-38 -32.5h-128v-23h125q20 -13 35.5 -34t29 -47t27 -53.5t30.5 -53t39 -46t52 -31.5q31 -12 57 -19.5t48.5 -14t42.5 -12.5t40 -15q-5 53 -3 101
q1 46 10 85t32 67.5t63 44t104 15.5h6q96 -6 144.5 -44.5t48.5 -116.5q1 -40 1 -83t1 -79q0 -42 1 -82h-196v371h-22v-406h667q-78 24 -143.5 69.5t-113 106.5t-74.5 135t-27 155q0 98 38.5 185t105.5 153t157.5 106t193.5 44v-78q-16 -23 -36.5 -36t-43.5 -22t-47 -17.5
t-46.5 -22t-42 -36t-33.5 -58.5q-10 -27 -18.5 -55t-22 -59.5t-36 -68t-60.5 -79.5q-22 -26 -36 -48.5t-14 -51.5q0 -20 9.5 -36.5t26 -29.5t38 -20t46.5 -7q53 0 82 20.5t41.5 54.5t13.5 77.5t-1.5 90.5t-4 93t6.5 85q6 28 22 51t39.5 39.5t52.5 26t60 11.5q34 1 68 -6.5
t62.5 -24t48.5 -41t26 -56.5q8 -39 6.5 -85t-4 -93t-1.5 -91t14 -78t42 -54.5t82 -20.5q25 0 46.5 7.5t37.5 20t25.5 29.5t9.5 37q0 29 -13.5 51.5t-35.5 47.5q-39 43 -61.5 79.5t-36 68t-22 60t-18.5 55.5q-14 36 -33.5 58t-41.5 35.5t-46.5 22t-47.5 18t-43.5 22.5
t-36.5 36v77q103 -4 193.5 -44t158 -105.5t106 -152.5t38.5 -185q0 -99 -38.5 -185.5t-105.5 -152.5t-157.5 -106t-193.5 -45v763h-25v-762h-1112v0z" />
    <glyph glyph-name="uniF213" unicode="CT" horiz-adv-x="2151" 
d="M504 0q-39 0 -87.5 14t-97.5 42.5t-95.5 71t-82 99.5t-56 128t-18.5 157q0 34 4.5 62.5t12 53t16.5 45.5t18 40q28 51 66.5 97t89 82t112 59t135.5 26h290v-436h23v436h191v-306q-6 -83 -52.5 -125t-148.5 -47q-60 0 -98.5 14t-62 39t-34 60.5t-13.5 77.5q-1 22 -0.5 45
t1.5 47q-29 -13 -65.5 -23t-83.5 -17q-42 -5 -77.5 -35t-62.5 -69q-8 -12 -16.5 -30t-20.5 -37.5t-28 -39t-38 -32.5h-128v-24h125q31 -19 51 -56t41 -78t48.5 -77.5t72.5 -53.5q31 -12 57 -19.5t48.5 -13.5t42.5 -12.5t40 -15.5q-5 54 -3 101q1 57 13 97t37.5 66t65.5 38
t99 12q96 -6 144.5 -44.5t48.5 -116.5q1 -41 1 -83.5t1 -78.5q0 -42 1 -82h-196v370h-23v-405h809v535h-308l-192 1v418h978v-194h-568q-19 7 -39.5 15.5t-43 21.5t-47.5 30.5t-53 42.5q-24 22 -47 36t-52 14q-20 0 -36.5 -9.5t-29.5 -26t-20 -38t-7 -46.5q0 -22 3 -40
q2 -6 3.5 -12t3.5 -11h652v-553q0 -41 -15 -78t-41.5 -64.5t-62 -45t-75.5 -19.5h-1120zM1402 535h196v-477q-41 2 -76.5 19.5t-62 46t-42 65t-15.5 77.5v269z" />
    <glyph glyph-name="uniF214" unicode="CH" horiz-adv-x="2171" 
d="M504 0q-39 0 -87.5 14t-97.5 42.5t-95.5 71t-82 99.5t-56 128t-18.5 157q0 34 4.5 62.5t12 53t16.5 45.5t18 40q28 51 66.5 97t89 82t112 59t135.5 26h290v-436h23v436h191v-306q-6 -83 -52.5 -125t-148.5 -47q-60 0 -98.5 14t-62 39t-34 60.5t-13.5 77.5q-1 22 -0.5 45
t1.5 47q-29 -13 -65.5 -23t-83.5 -17q-42 -5 -77.5 -35t-62.5 -69q-8 -12 -16.5 -30t-20.5 -37.5t-28 -39t-38 -32.5h-128v-24h125q31 -19 51 -56t41 -78t48.5 -77.5t72.5 -53.5q31 -12 57 -19.5t48.5 -13.5t42.5 -12.5t40 -15.5q-5 54 -3 101q1 57 13 97t37.5 66t65.5 38
t99 12q96 -6 144.5 -44.5t48.5 -116.5q1 -32 1.5 -71.5l1 -79t0.5 -73.5v-55h473v-23h-669v428h-23v-428h-308zM1125 977h975v-811q0 -34 -14 -64.5t-40 -53t-63.5 -35.5t-83.5 -13t-83.5 6t-64.5 23.5t-42.5 50t-17.5 86.5l3 423h-345v184h529v-184q0 -155 0.5 -259t1 -168
t0.5 -92.5v-32.5v-1h23l1 553v123l1 61h148q15 25 15 68q0 24 -7.5 44.5t-20 35.5t-29.5 24t-36 9q-29 0 -52 -13.5t-47 -33.5q-33 -28 -62.5 -46.5t-55.5 -31t-49 -20.5t-45 -14h-104q-22 6 -45.5 14t-49.5 20.5t-55 31t-62 46.5q-24 20 -47 33.5t-52 13.5q-19 0 -36 -9
t-29.5 -24t-20 -35.5t-7.5 -44.5q0 -43 15 -68h155v-715h-199l-1 531v184z" />
    <glyph glyph-name="uniF215" unicode="DE" horiz-adv-x="2159" 
d="M792 477q-2 -42 -15.5 -76t-33.5 -59.5t-44 -41.5t-48 -22q-27 -8 -59.5 -10.5t-68.5 -2.5q-24 0 -48.5 1t-50.5 3q-25 2 -47 3.5t-42 1.5q-17 0 -32 -1t-29 -5q-43 -8 -65 -41t-24 -74v-3q0 -22 7.5 -43.5t21 -38.5t32.5 -27.5t43 -10.5q26 0 49.5 11t43.5 26
q47 48 82 71t68.5 35.5t72 21.5t92.5 29q29 11 50.5 31t38 44t29.5 50t26 50.5t28 44.5t35 33h131v-198q0 -39 -13 -77t-35.5 -72t-54.5 -62t-69 -45h1228v-23h-2020v477h721zM71 500v477h758q52 0 91 -26.5t64.5 -67.5t38 -90t12.5 -95v-198h-130q-22 13 -38 34t-28 43
t-21 42t-17 32q-26 38 -61 68t-77 35q-69 9 -116.5 27t-80.5 39.5t-55.5 44t-41.5 41t-38.5 30.5t-47.5 12q-22 0 -41 -9.5t-33.5 -26t-22.5 -38.5t-8 -47q0 -18 5 -36t14.5 -33.5t23.5 -27t32 -17.5q22 -10 48 -13.5t56 -3.5q16 0 32.5 0.5t34.5 1.5q28 2 54.5 3t52.5 1
q36 0 71.5 -3.5t69.5 -16.5q48 -21 82 -69t37 -113h-720zM1129 261q0 56 17.5 90.5t48 54t72.5 28t91 11.5h464v32h38q-5 -42 -18.5 -81t-35.5 -69t-52.5 -48t-67.5 -18h-512q-1 -5 -1.5 -10.5t-0.5 -12.5v-4q0 -24 7 -44.5t19.5 -35.5t29.5 -24t36 -9q29 0 52 13t47 34
q30 25 56 41.5t50 28.5h218l212 2v237h164l-1 23h-163v97h192v-359l-1 -180h-191h-543q-44 3 -85 17t-72.5 39.5t-50.5 62t-19 84.5zM1311 595q-47 6 -85 26.5t-61.5 52.5t-31.5 74t5 92q9 33 28.5 59t46 43t58 26t63.5 9h756v-181h-72q-185 -1 -318.5 -1.5t-226.5 -1.5
q-23 13 -49.5 30t-56.5 42q-24 20 -47 34t-52 14q-24 0 -41.5 -11t-29 -28.5t-17 -39t-5.5 -42.5v-9.5t1 -9.5h48.5t83 0.5t102 1t105.5 0.5h62.5t52 -0.5t37 -1t17.5 -0.5q44 -6 77.5 -28.5t56 -56t33.5 -74.5t11 -82q2 -17 0 -32h-40v95h-511z" />
    <glyph glyph-name="uniF216" unicode="DI" horiz-adv-x="1607" 
d="M71 477h721q-2 -42 -15.5 -76t-33.5 -59.5t-44 -41.5t-48 -22q-27 -8 -59.5 -10.5t-68.5 -2.5q-24 0 -48.5 1t-50.5 3q-25 2 -47 3.5t-42 1.5q-17 0 -32 -1t-29 -5q-42 -8 -65.5 -41.5t-23.5 -73.5v-3q0 -22 7.5 -43.5t21 -38.5t32.5 -27.5t43 -10.5q26 0 49.5 11
t43.5 26q47 48 82 71t68.5 35.5t72 21.5t92.5 29q29 11 50.5 31t38 44t29.5 50t26 50.5t28 44.5t35 33h131v-198q0 -39 -13 -77t-35.5 -72t-54.5 -62t-69 -45h675v-23h-762v1q-5 -1 -8.5 -1h-7.5h-689v477zM829 977q52 0 91 -26.5t64.5 -67.5t38 -90t12.5 -95v-198h-130
q-22 13 -38 34t-28 43t-21 42t-17 32q-26 38 -61 68t-77 35q-69 9 -116.5 27t-80.5 39.5t-55.5 44t-41.5 41t-38.5 30.5t-47.5 12q-22 0 -41 -9.5t-33.5 -26t-22.5 -38.5t-8 -47q0 -18 5 -36t14.5 -33.5t23.5 -27t32 -17.5q22 -10 48 -13.5t56 -3.5q16 0 32.5 0.5t34.5 1.5
q28 2 54.5 3t52.5 1q36 0 71.5 -3.5t69.5 -16.5q48 -21 82 -69t37 -113h-720v477h758zM1337 58q-46 0 -83.5 6t-64.5 24t-42.5 50.5t-17.5 85.5v48v50t1 59v56q0 11 0.5 20.5t0.5 19.5h186q0 -118 0.5 -191t0.5 -114.5v-57.5v-19v-1h23l1 383h165v23h-165l1 66q7 20 15.5 42
t21.5 46.5t33 52t49 58.5q21 23 35.5 44.5t14.5 49.5q0 18 -9.5 34t-26 27.5t-38.5 18.5t-47 7q-27 0 -48 -6l1 37h194v-754q0 -34 -14 -64t-40 -52.5t-63 -35.5t-84 -13zM1131 589l3 388h182v-46l1 -220v-122v-89h-186v89z" />
    <glyph glyph-name="uniF217" unicode="EA" horiz-adv-x="2175" 
d="M116 23h1027l5 527q3 97 30 175.5t83.5 134t143.5 85t210 29.5q24 0 68 -0.5t96 -10.5t107 -33t101 -66.5t77.5 -112.5t37.5 -170l8 -580l-225 -1q-41 0 -76 15t-61.5 41.5t-41.5 61.5t-15 75v382h192v-535q13 -4 27 -8q11 -3 25 -5t25 -2q25 0 47 7.5t38.5 20t26 29.5
t9.5 36q0 29 -14.5 52t-36.5 48q-32 36 -52.5 67t-34 59t-22 52.5t-15.5 48.5v123q0 56 -31 102.5t-82 66.5q-91 36 -192 31q-45 -4 -91 -16.5t-83 -37t-60 -62.5t-23 -92v-162q-14 -38 -37.5 -81.5t-71.5 -98.5q-22 -25 -36.5 -47.5t-14.5 -51.5q0 -20 9.5 -36.5t26 -29.5
t38.5 -20t47 -7q23 0 39 4q13 2 22 6v539h201v-383q0 -40 -15 -75t-41 -61t-61 -41t-75 -15h-1259v23zM267 571q-47 7 -85 28.5t-61.5 55.5t-31.5 78.5t5 97.5q9 36 28.5 63t46 45.5t57.5 28t64 9.5h756v-193h-72q-185 -1 -318.5 -1.5t-226.5 -0.5q-23 13 -49.5 31.5
t-56.5 45.5q-24 21 -47 35.5t-52 14.5q-19 0 -36 -9.5t-30 -26t-20.5 -38.5t-7.5 -47v-7q1 -5 1 -10.5t1 -10.5q12 0 47.5 0.5t83.5 1t102.5 0.5h105.5h62.5h52t36.5 -0.5t17 -1.5q42 -5 73.5 -28.5t53.5 -57.5t34.5 -76t16.5 -85q0 -5 0.5 -10.5t0.5 -11.5q4 -106 -42 -167
t-134 -63h-512q-2 -5 -2 -10.5v-12.5q0 -20 5.5 -42.5t17 -41t28.5 -30.5t41 -12q29 0 52 14.5t47 36.5q30 26 56 43.5t50 31.5h218q39 4 89.5 2.5t122.5 -1.5v283h192v-284l-1 -193h-191q-55 0 -116 0.5t-121.5 0.5h-116h-97.5h-67h-25q-46 4 -87.5 19.5t-72.5 42.5t-49 65
t-18 88q0 58 16 94.5t46 58t72.5 30.5t94.5 13h464v114h-511z" />
    <glyph glyph-name="uniF218" unicode="EC" horiz-adv-x="2181" 
d="M271 571q-47 7 -85 29t-61.5 56t-31.5 78.5t5 97.5q9 36 28.5 63t45.5 45t57.5 27.5t63.5 9.5h756v-192h-72q-185 -1 -317.5 -1.5t-226.5 -1.5q-24 14 -50.5 32t-55.5 45q-25 21 -47.5 35.5t-51.5 14.5q-20 0 -37 -9.5t-29.5 -26t-20 -38.5t-7.5 -47v-7q1 -5 1 -10t1 -10
h47.5t83 0.5t102 0.5h105.5h62.5h52t37 -0.5t17.5 -0.5q42 -6 73.5 -27t53.5 -53t34.5 -72t16.5 -83q0 -5 0.5 -10.5t0.5 -11.5q1 -53 -10 -104t-33.5 -91.5t-56.5 -66t-77 -25.5h-512q-2 -5 -2 -11v-13q0 -20 5.5 -42.5t16.5 -41t29 -30.5t42 -12q29 0 52 14.5t47 36.5
q30 26 56 44t49 31h219l212 1v283h191v-284l-1 -169h843v-23h-843v-1h-55h-60t-75 1h-115.5h-122t-116 0.5t-97.5 0.5h-67h-25q-47 3 -88 18.5t-72.5 42.5t-49.5 65.5t-18 88.5q0 58 16.5 94.5t46.5 57.5t72.5 30.5t94.5 13.5h463v158h-510zM1582 58q-39 0 -87 13.5t-97 40
t-95.5 66.5t-82 93.5t-56 120.5t-18.5 148q0 63 16.5 108t33.5 80q28 48 66.5 92t89 77.5t112 55t135.5 24.5h290v-410h23v410h191v-288q-6 -78 -52.5 -117.5t-147.5 -43.5q-60 0 -99 13t-62.5 36.5t-33.5 56.5t-13 73q-2 20 -1.5 42t2.5 45q-29 -12 -66 -22t-84 -15
q-42 -5 -77.5 -33.5t-61.5 -64.5q-8 -11 -16.5 -28t-20.5 -36t-28.5 -37t-38.5 -31h-128v-21h125q31 -18 51 -53.5t41 -74t48.5 -72.5t72.5 -50q31 -11 57 -18.5t48.5 -13t42.5 -11.5t40 -14q-5 50 -3 94q1 56 14 94.5t39.5 62t66 33.5t95.5 10q96 -5 144.5 -41.5
t48.5 -109.5q0 -19 0.5 -43.5t1 -52.5t1 -57t0.5 -56q1 -64 1 -133h-197v462h-22v-404h-309z" />
    <glyph glyph-name="uniF219" unicode="ED" horiz-adv-x="2154" 
d="M85 23h1036v454h692v23h-692v477h758q53 0 91.5 -26.5t64 -67.5t38 -90t12.5 -95v-419q0 -51 -22 -101t-59.5 -89.5t-87.5 -64t-106 -24.5h-1725v23zM267 595q-47 6 -85 26.5t-61.5 52t-31.5 73.5t5 92q9 34 28.5 59.5t46 42.5t57.5 26t64 9h756v-180l-72 -1
q-185 -1 -318.5 -1t-226.5 -1q-23 12 -49.5 29.5t-56.5 42.5q-24 20 -47 33.5t-52 13.5q-24 0 -41.5 -11t-29.5 -28t-17.5 -38.5t-5.5 -42.5q1 -5 1 -9.5t1 -9.5h47.5t83.5 0.5t102.5 0.5h105.5h62.5h52t36.5 -0.5t17 -0.5q42 -5 73.5 -25t53.5 -50t34.5 -67.5t16.5 -77.5
q0 -6 0.5 -11.5t0.5 -10.5q2 -50 -9 -98t-33.5 -86t-56.5 -62t-77 -24h-512q-2 -5 -2 -10.5v-12.5q0 -20 5.5 -41t17 -38t29 -27.5t40.5 -10.5q29 0 52 13t47 34q30 25 56 41.5t50 28.5h218l212 2v237h192v-239l-1 -180h-191h-543q-44 3 -85 17t-72.5 39t-50.5 61.5
t-19 85.5q0 56 17.5 90.5t48 54t72.5 28t91 11.5h464v150h-511zM1333 948q-22 0 -41 -9.5t-33.5 -26t-22.5 -38.5t-8 -47q0 -18 5 -36t14.5 -33.5t23.5 -27t32 -17.5q22 -10 48 -13.5t57 -3.5q15 0 32 0.5t34 1.5q28 2 54.5 3t52.5 1q36 0 72 -3.5t70 -16.5q25 -11 47 -30.5
t38.5 -46t25.5 -58t8 -66.5q-1 -43 -14 -77.5t-33.5 -60t-45 -42t-48.5 -23.5q-27 -8 -59.5 -10.5t-68.5 -2.5q-23 0 -48 1t-51 3q-24 2 -46.5 3.5t-42.5 1.5q-17 0 -32 -1t-29 -5q-24 -4 -43 -18.5t-29 -36.5q-8 -13 -11.5 -28t-4.5 -32v-3q0 -22 7.5 -43.5t21 -38.5
t32.5 -27.5t43 -10.5q25 0 49 11t43 26q48 48 83 71t68.5 35.5t71.5 21.5t92 29q30 11 51.5 31t37.5 44t29.5 50t26.5 50.5t28 44.5t35 33h100v23h-99q-23 13 -39 34t-28 43t-21 42t-17 32q-26 38 -60.5 68t-76.5 35q-70 9 -117.5 27t-80.5 39.5t-55 44t-41.5 41t-39 30.5
t-47.5 12z" />
    <glyph glyph-name="uniF220" unicode="EE" horiz-adv-x="2182" 
d="M271 571q-47 7 -85 28.5t-61.5 55.5t-31.5 78.5t5 97.5q9 36 28.5 63t45.5 45.5t57.5 28t63.5 9.5h1817v-192l-1133 -1q-185 -1 -317.5 -1t-226.5 -1q-24 13 -50.5 31.5t-55.5 45.5q-25 21 -47.5 35.5t-51.5 14.5q-20 0 -37 -9.5t-29.5 -26t-20 -38.5t-7.5 -47v-7
q1 -5 1 -10t1 -10h47.5t83 0.5t102 0.5h105.5h62.5h52t37 -0.5t17.5 -0.5q42 -6 73.5 -27t53.5 -53t34.5 -72t16.5 -83q0 -5 0.5 -11t0.5 -11q1 -53 -10 -104t-33.5 -91.5t-56.5 -66t-77 -26.5h-512q-2 -5 -2 -10.5v-12.5q0 -20 5.5 -42.5t16.5 -41t29 -30.5t42 -12
q29 0 52 14.5t47 36.5q30 26 56 43.5t49 31.5h219l212 1v283h191v-284l-1 -193h-190q-54 0 -115.5 0.5t-122 0.5h-116h-97.5h-67h-25q-46 4 -87.5 19.5t-72.5 42.5t-49.5 65.5t-18.5 87.5q0 58 16.5 94.5t46.5 58t72.5 31t94.5 13.5h463v158h-510zM1148 217q0 58 16.5 94.5
t46.5 57.5t72.5 30.5t94.5 13.5h463v158h-510q-39 6 -71.5 21.5t-56.5 40.5t-38 57t-15 71h76.5t101.5 0.5t108.5 0.5h97.5h63h52.5t37 -0.5t17.5 -0.5q46 -6 79.5 -31.5t55.5 -61.5t32.5 -79t10.5 -85q1 -53 -10 -104t-33.5 -91.5t-56 -66t-77.5 -25.5h-512q-1 -5 -1 -11
v-13v-5q0 -25 7 -47t19.5 -38.5t29.5 -26t36 -9.5q29 0 52 14.5t47 36.5q59 50 106 75h218l212 1v283h191v-284v-193h-55h-60.5t-75.5 1h-353q-96 0 -190 1q-97 7 -156.5 57t-69.5 134q-1 6 -1 12t-1 12z" />
    <glyph glyph-name="uniF221" unicode="EL" horiz-adv-x="2147" 
d="M271 571q-47 7 -85 28.5t-61.5 55.5t-31.5 78.5t5 97.5q9 36 28.5 63t45.5 45.5t57.5 28t63.5 9.5h756v-192l-72 -1q-185 -1 -317.5 -1t-226.5 -1q-24 13 -50.5 31.5t-55.5 45.5q-25 21 -47.5 35.5t-51.5 14.5q-20 0 -37 -9.5t-29.5 -26t-20 -38.5t-7.5 -47q0 -4 1 -7
v-10t1 -10h47.5t83 0.5t102 0.5h105.5h62.5h52t37 -0.5t17.5 -0.5q42 -6 73.5 -27t53.5 -53t34.5 -72t16.5 -83q0 -5 0.5 -11t0.5 -11q1 -53 -10 -104t-33.5 -91.5t-56.5 -66t-77 -26.5h-512q-2 -5 -2 -10.5v-12.5q0 -20 5.5 -42.5t16.5 -41t29 -30.5t42 -12q29 0 52 14.5
t47 36.5q30 26 56 43.5t49 31.5h219l212 1v283h191v-214h-162v-23h162v-47l-1 -170h1065v-23h-1065h-190q-54 0 -115.5 0.5t-122 0.5h-116h-97.5h-67h-25q-46 4 -87.5 19.5t-72.5 42.5t-49.5 65.5t-18.5 87.5q0 58 16.5 94.5t46.5 58t72.5 31t94.5 13.5h463v158h-510z
M1338 977v-487q-8 -30 -15.5 -55t-20 -49.5t-34 -52t-58.5 -61.5q-13 -14 -21.5 -29t-12.5 -33q-3 -12 -3 -25q0 -19 7 -33v-1q13 -28 43 -46t68 -18h4q24 0 43 8q11 3 16 7q32 15 45 40q4 7 6.5 13.5t3.5 14.5q5 16 6 33t0 37h418q1 -26 5 -48.5t12 -41.5q6 -17 18 -30
t28 -22t34 -13.5t35 -4.5q24 0 45.5 7.5t37.5 21t25.5 31.5t9.5 38q0 29 -12 47.5t-32 37.5h-625q-1 11 -1.5 23t-2.5 26q-3 35 -4 68.5t1 64.5h514q40 0 75 -14t61.5 -39t41.5 -58t15 -71v-85q0 -25 -10 -46.5t-29 -38t-46.5 -26t-62.5 -9.5h-822v919h194z" />
    <glyph glyph-name="uniF222" unicode="EM" horiz-adv-x="2192" 
d="M271 571q-47 7 -85 28.5t-61.5 55.5t-31.5 78.5t5 97.5q9 36 28.5 63t45.5 45.5t57.5 28t63.5 9.5h1124q37 0 73.5 -20t65.5 -53.5t47 -78.5t18 -95v-334h23v334q0 50 15.5 95t43 78.5t65.5 53.5t83 20h270v-976h-197v597q21 58 50 92.5t55.5 59t44.5 46t18 54.5
q0 20 -9.5 38t-26 31.5t-38 21.5t-46.5 8q-18 0 -35.5 -4.5t-33 -13t-28 -21.5t-18.5 -31q-14 -31 -16.5 -72t1.5 -90q4 -60 4 -115t-12 -98q-2 -5 -3.5 -10.5t-4.5 -10.5q-14 -29 -35.5 -50t-48.5 -34.5t-57.5 -20.5t-60.5 -7q-7 1 -13.5 1t-12.5 1q-37 4 -67 17.5
t-52 31.5t-36.5 39.5t-20.5 42.5q-12 43 -12.5 98t4.5 115q3 43 4.5 78.5t-5.5 63.5q-3 17 -11 27q-8 14 -18 24t-27 17q-25 13 -59 15q-35 0 -68.5 -15.5t-47.5 -49.5q-8 -13 -8 -33q0 -13 4 -24q4 -18 12.5 -33t20.5 -29q37 -35 59 -62t34.5 -52t20 -49.5t16.5 -53.5v-483
h-197v727l-167 -1h-272t-272 -2q-24 13 -50.5 31.5t-55.5 45.5q-25 21 -47.5 35.5t-51.5 14.5q-20 0 -37 -9.5t-29.5 -26t-20 -38.5t-7.5 -47v-7q1 -5 1 -10t1 -10h47.5t83 0.5t102 0.5h105.5h62.5h52t37 -0.5t17.5 -0.5q42 -6 73.5 -27t53.5 -53t34.5 -72t16.5 -83
q0 -5 0.5 -11t0.5 -11q1 -53 -10 -104t-33.5 -91.5t-56.5 -66t-77 -26.5h-512q-2 -5 -2 -10.5v-12.5q0 -20 5.5 -42.5t16.5 -41t29 -30.5t42 -12q29 0 52 14.5t47 36.5q30 26 56 43.5t49 31.5h219l212 1v283h191v-284l-1 -170h584v-22h-584v-1h-190q-54 0 -115.5 0.5
t-122 0.5h-116h-97.5h-67h-25q-46 4 -87.5 19.5t-72.5 42.5t-49.5 65.5t-18.5 87.5q0 58 16.5 94.5t46.5 58t72.5 31t94.5 13.5h463v158h-510v0z" />
    <glyph glyph-name="uniF223" unicode="EN" horiz-adv-x="2184" 
d="M271 571q-47 7 -85 28.5t-61.5 55.5t-31.5 78.5t5 97.5q9 36 28.5 63t45.5 45.5t57.5 28t63.5 9.5h1043v-140q-1 -58 -1 -124v-123q0 -67 -1 -132q-13 -36 -36 -78.5t-70 -94.5q-22 -23 -36 -44.5t-14 -49.5q0 -19 9.5 -35.5t25.5 -28.5t37.5 -19t45.5 -7q15 0 33 2.5
t32 8.5q0 29 0.5 79t0.5 111t0.5 130t0.5 136v127.5v106.5v91v84h750v-853q0 -26 -10 -48t-28 -39t-42 -26.5t-51 -9.5h-62q-40 0 -75.5 14t-61.5 39t-41.5 58t-15.5 71v585h176v-724q15 -7 32 -9.5t33 -2.5q25 0 46.5 7t37.5 19t25 28.5t9 34.5t-5.5 33.5t-15.5 29.5
q-12 15 -27 33q-23 25 -39.5 56t-29 62.5t-21 59t-15.5 44.5q-2 5 -3.5 11t-3.5 12v333h-23l-353 4v-537q-4 -34 -6 -63t-13 -49q-23 -38 -55.5 -56.5t-63.5 -26.5q-36 -10 -75 -9q-36 0 -70.5 8.5t-61.5 26.5t-43.5 45.5t-16.5 65.5v581l-167 -1h-272t-272 -2
q-24 13 -50.5 31.5t-55.5 45.5q-25 21 -47.5 35.5t-51.5 14.5q-20 0 -37 -9.5t-29.5 -26t-20 -38.5t-7.5 -47q0 -4 1 -7v-10t1 -10h47.5t83 0.5t102 0.5h105.5h62.5h52t37 -0.5t17.5 -0.5q42 -6 73.5 -27t53.5 -53t34.5 -72t16.5 -83q0 -7 1 -9v-13q1 -10 0.5 -19t-0.5 -19
q-3 -48 -16 -93t-35.5 -79.5t-54 -55.5t-71.5 -22h-512q-1 -5 -1.5 -10.5t-0.5 -12.5q0 -20 5.5 -42.5t16.5 -41t29 -30.5t42 -12q29 0 52 14.5t47 36.5q30 26 56 43.5t49 31.5h219l212 1v283h191v-284l-1 -169h580v-23h-580v-1h-190q-54 0 -115.5 0.5t-122 0.5h-116h-97.5
h-67h-25q-46 4 -87.5 19.5t-72.5 42.5t-49.5 65.5t-18.5 87.5q0 58 16.5 94.5t46.5 58t72.5 31t94.5 13.5h463v158h-510v0z" />
    <glyph glyph-name="uniF224" unicode="EP" horiz-adv-x="2176" 
d="M271 571q-47 7 -85 28.5t-61.5 55.5t-31.5 78.5t5 97.5q9 36 28.5 63t45.5 45.5t57.5 28t63.5 9.5h756v-192l-72 -1q-185 -1 -317.5 -1t-226.5 -1q-24 13 -50.5 31.5t-55.5 45.5q-25 21 -47.5 35.5t-51.5 14.5q-20 0 -37 -9.5t-29.5 -26t-20 -38.5t-7.5 -47v-7
q1 -5 1 -10t1 -10h47.5t83 0.5t102 0.5h105.5h62.5h52t37 -0.5t17.5 -0.5q42 -6 73.5 -27t53.5 -53t34.5 -72t16.5 -83q0 -5 0.5 -11t0.5 -11q1 -53 -10 -104t-33.5 -91.5t-56.5 -66t-77 -26.5h-512q-2 -5 -2 -10.5v-12.5q0 -20 5.5 -42.5t16.5 -41t29 -30.5t42 -12
q29 0 52 14.5t47 36.5q30 26 56 43.5t49 31.5h219l212 1v283h191v-284l-1 -170h316v230h196v-253h-512h-190l-60 1h-483q-46 4 -87.5 19.5t-72.5 42.5t-49.5 65.5t-18.5 87.5q0 58 16.5 94.5t46.5 58t72.5 31t94.5 13.5h463v158h-510zM1340 599q-59 0 -101 28t-64.5 70
t-25.5 91t17 91t63.5 70t112.5 28h642q31 0 57 -12t44 -31t28.5 -42.5t10.5 -45.5v-394q0 -27 -12 -51t-31.5 -42t-44.5 -28.5t-52 -10.5h-641v-262h-196v444h579q38 -12 81 -34.5t97 -67.5q25 -20 47.5 -33.5t51.5 -13.5q19 0 36.5 9t30 24.5t20 36t7.5 43.5q0 57 -28.5 87
t-85.5 39q-22 4 -36.5 19.5t-14.5 36.5q0 20 13.5 35t33.5 18q48 8 79 35.5t31 89.5q0 23 -7.5 44t-20 36.5t-30 24.5t-36.5 9q-29 0 -51.5 -14t-47.5 -34q-44 -37 -81 -57.5t-69 -33.5h-567v-22h382v-180h-221z" />
    <glyph glyph-name="uniF225" unicode="ER" horiz-adv-x="2192" 
d="M271 571q-47 7 -85 28.5t-61.5 55.5t-31.5 78.5t5 97.5q9 36 28.5 63t45.5 45.5t57.5 28t63.5 9.5h756v-192l-72 -1q-185 -1 -317.5 -1t-226.5 -1q-24 13 -50.5 31.5t-55.5 45.5q-25 21 -47.5 35.5t-51.5 14.5q-20 0 -37 -9.5t-29.5 -26t-20 -38.5t-7.5 -47q0 -4 1 -7
v-10t1 -10h47.5t83 0.5t102 0.5h105.5h62.5h52t37 -0.5t17.5 -0.5q42 -6 73.5 -27t53.5 -53t34.5 -72t16.5 -83q0 -5 0.5 -11t0.5 -11q1 -53 -10 -104t-33.5 -91.5t-56.5 -66t-77 -26.5h-512q-2 -5 -2 -10.5v-12.5q0 -20 5.5 -42.5t16.5 -41t29 -30.5t42 -12q29 0 52 14.5
t47 36.5q30 26 56 43.5t49 31.5h219l212 1v283h191v-284l-1 -170h574v453q22 -7 52.5 -15t65 -21t70.5 -32t69 -48q24 -22 47 -36t53 -14q19 0 36 9.5t29.5 26t20 38t7.5 46.5q0 62 -27.5 90.5t-70.5 39.5q-23 5 -37.5 24t-14.5 42q0 25 15 44.5t38 24.5q42 11 67 40t25 89
q0 25 -7 47t-20 38t-30 25.5t-36 9.5q-29 0 -51.5 -14t-47.5 -35q-30 -27 -57 -46t-51 -32.5t-46 -22t-42 -15.5h-338v-693h23v669h195v-501q0 -41 -15.5 -76.5t-42.5 -62t-63 -42t-76 -15.5h-22q-41 0 -77 15.5t-62.5 42t-42 62.5t-15.5 77v527q0 94 50 145t146 51h642
q31 0 56.5 -12t44 -32t28.5 -45t10 -50v-420q0 -26 -11 -51t-30 -44.5t-44.5 -31.5t-53.5 -12h-279v-89h418v-190l-488 -1h-584h-60h-130q-54 0 -115.5 0.5t-122 0.5h-116h-97.5h-67h-25q-46 4 -87.5 19.5t-72.5 42.5t-49.5 65.5t-18.5 87.5q0 58 16.5 94.5t46.5 58t72.5 31
t94.5 13.5h463v158h-510v0z" />
    <glyph glyph-name="uniF226" unicode="ES" horiz-adv-x="2176" 
d="M271 571q-47 7 -85 28.5t-61.5 55.5t-31.5 78.5t5 97.5q9 36 28.5 63t45.5 45.5t57.5 28t63.5 9.5h756v-193h-72q-185 -1 -317.5 -1.5t-226.5 -0.5q-24 13 -50.5 31.5t-55.5 44.5q-25 22 -47.5 36t-51.5 14q-20 0 -37 -9.5t-29.5 -25.5t-20 -38t-7.5 -47v-7q1 -5 1 -10.5
t1 -10.5q12 0 47.5 0.5t83 0.5t102 0.5t105.5 0.5h62.5t52 -0.5t37 -1t17.5 -0.5q42 -6 73.5 -27t53.5 -53t34.5 -71.5t16.5 -82.5q0 -6 0.5 -11.5t0.5 -10.5q1 -53 -10 -104t-33.5 -91.5t-56.5 -66t-77 -26.5h-512q-2 -5 -2 -11v-12q0 -20 5.5 -42.5t16.5 -41t29 -30.5
t42 -12q29 0 52 14t47 36q30 26 56 44t49 32h219l212 1v359h191v-360l-1 -170h1057v-23h-1057h-190q-54 0 -115.5 0.5t-122 0.5h-116h-97.5h-67h-25q-46 3 -87.5 19t-72.5 43t-49.5 65.5t-18.5 87.5q0 58 16.5 94.5t46.5 57.5t72.5 30.5t94.5 13.5h463v159h-510zM1244 611
q-39 21 -59.5 53t-28.5 61q-10 34 -9 71q0 34 9 66.5t28 58t48 41t68 15.5h806v-181l-541 1q-38 13 -82 34.5t-99 66.5q-24 20 -47 33.5t-52 13.5q-19 0 -36 -9t-29.5 -24t-20 -35.5t-7.5 -43.5q0 -19 3 -34q4 -15 9 -28q262 -1 435.5 -1h277h146.5h43v-712h-806
q-39 0 -68 15.5t-48 41t-28 58t-9 66.5v4q0 37 15.5 70.5t42 58t62 39t76.5 14.5h353v128h193v-295h-687q-2 -5 -3.5 -10.5t-3.5 -10.5q-3 -17 -3 -35q0 -24 7.5 -44.5t20 -35.5t29.5 -23.5t36 -8.5q23 0 46 10q11 8 21 15t20 15q46 38 92.5 63.5t103.5 42.5h347
q0 70 0.5 111.5t0.5 61.5v2v5v5v16v156h-556q-35 4 -65.5 5.5t-50.5 12.5z" />
    <glyph glyph-name="uniF227" unicode="ET" horiz-adv-x="2175" 
d="M271 572q-47 6 -85 28t-61.5 56t-31.5 78.5t5 97.5q9 36 28.5 63t45.5 45.5t57.5 28t63.5 9.5h756v-192l-72 -1q-185 -1 -317.5 -1t-226.5 -1q-24 13 -50.5 31.5t-55.5 44.5q-25 22 -47.5 36.5t-51.5 14.5q-20 0 -37 -9.5t-29.5 -26t-20 -38.5t-7.5 -47v-7q1 -5 1 -10
t1 -10h47.5t83 0.5t102 0.5h105.5h62.5h52t37 -0.5t17.5 -0.5q42 -6 73.5 -27t53.5 -53t34.5 -72t16.5 -83q0 -5 0.5 -11t0.5 -11q1 -53 -10 -104.5t-33.5 -92t-56.5 -65.5t-77 -26h-512q-2 -5 -2 -11v-12q0 -20 5.5 -42.5t16.5 -41t29 -30.5t42 -12q29 0 52 14.5t47 36.5
q30 26 56 43.5t49 31.5h219l212 1l1 340h192l-3 -511h596v533h-308l-191 1v419h977v-194h-569q-38 14 -82 37t-100 73q-25 22 -47.5 36t-51.5 14q-20 0 -36.5 -9.5t-29.5 -26t-20 -38t-7 -46.5q0 -14 2 -32t9 -31h650v-553q0 -42 -15 -78.5t-41.5 -64.5t-62.5 -45t-77 -19
l-596 1h-82h-108q-54 0 -115.5 0.5t-122 0.5h-116h-97.5h-67h-25q-46 4 -87.5 19.5t-72.5 42.5t-49.5 65t-18.5 88q0 58 16.5 94.5t46.5 58t72.5 31t94.5 13.5h463v158h-510zM1426 535h196v-477q-41 3 -76.5 20.5t-62 45.5t-42 64.5t-15.5 77.5v269z" />
    <glyph glyph-name="uniF228" unicode="FE" horiz-adv-x="1992" 
d="M71 0v553h806v23h-806v401h1078h15h756v-192h-72q-93 -1 -189.5 -0.5t-177.5 0.5q-94 0 -183 1h-293v-5v-10t1 -10h47.5t83.5 0.5t102.5 0.5h105.5h62.5h52t36.5 -0.5t17 -0.5q46 -6 79.5 -31.5t55.5 -61.5t33 -79t11 -85q1 -53 -9.5 -104t-33 -91.5t-56 -66t-77.5 -25.5
h-513q0 -5 -0.5 -11t-0.5 -13q0 -20 5.5 -42.5t16.5 -41t28.5 -30.5t41.5 -12q29 0 52 14.5t47 36.5q59 50 106 75h218l212 1v283h192v-284l-1 -193h-55h-60.5t-75.5 1h-353q-96 0 -190 1q-47 3 -88 18.5t-72.5 42.5t-49.5 65.5t-18 88.5q0 58 16.5 94.5t46.5 57.5
t72.5 30.5t94.5 13.5h463v158h-510q-42 6 -76.5 24t-58.5 46t-36 64.5t-9 80.5h-444q-47 14 -79.5 32t-56.5 37.5t-42 38t-34.5 33t-35 23.5t-42.5 9t-43 -9.5t-32.5 -25t-21.5 -36t-9 -41.5q-2 -38 16 -70t59 -46q15 -5 30 -5q19 0 40 5t40 11.5t35.5 12t28.5 6.5
q28 2 74.5 3t98.5 1q34 0 67 -0.5t62.5 -2t52 -4t35.5 -6.5q7 -1 12.5 -3t10.5 -4q50 -22 85 -72.5t36 -118.5v-10q-1 -34 -9.5 -61t-22.5 -47.5t-32.5 -35t-37.5 -24.5q-32 -16 -69 -16l-464 -4v-356h-198z" />
    <glyph glyph-name="uniF229" unicode="FO" horiz-adv-x="2082" 
d="M71 977h962v-191h-516q-47 14 -79.5 32t-56.5 37.5t-42 38t-34.5 33t-35 23.5t-42.5 9t-43 -9.5t-32.5 -25t-21.5 -36t-9 -41.5q-2 -38 16 -70t59 -46q15 -5 30 -5q19 0 40 5t40 11.5t35.5 12t28.5 6.5q28 2 74.5 3t98.5 1q34 0 67 -0.5t62.5 -2t52 -4t35.5 -6.5
q7 -1 12.5 -3t10.5 -4q28 -12 50 -32t38 -45.5t24.5 -55t8.5 -59.5q0 -59 -24 -104.5t-78 -72.5q-32 -16 -69 -16l-464 -4v-332h1238v-24h-1436v553h833l-1 23h-832v401zM1531 977h2q103 -4 193 -41.5t157 -100t105.5 -144t38.5 -174.5q0 -92 -38.5 -174t-105.5 -144
t-157 -99.5t-193 -41.5v495h180q-3 -48 -3.5 -94t11 -83t40.5 -59.5t87 -22.5q25 0 46.5 7t38 19t26 28t9.5 34q0 27 -14 48.5t-36 44.5q-39 42 -63 78h136v23h-150q-25 44 -36 79t-24 69q-14 34 -33.5 54.5t-42 33.5t-47 20.5t-47.5 16.5t-43.5 21t-36.5 34v73zM1507 58
q-103 4 -193 42t-157 100t-105.5 144t-38.5 174v18t1 17h170q-24 -36 -62 -77q-22 -23 -36 -44.5t-14 -49.5q0 -18 9.5 -34t26 -27.5t38 -18.5t46.5 -7q57 0 86.5 22.5t41 59t11 82.5t-3.5 94h180v-495zM1017 576q12 82 54.5 154t108 125.5t149.5 85.5t179 36v-73
q-16 -22 -36.5 -34t-43.5 -20.5t-47 -16.5t-46.5 -20.5t-42 -33.5t-33.5 -55q-7 -17 -12.5 -34t-12 -35t-15 -37.5t-20.5 -41.5h-182zM1326 576q-2 31 -1.5 60.5t5.5 55.5q6 27 22 48t39.5 36t52.5 24t60 12q35 1 69 -6t62 -22.5t48 -39t26 -53.5q5 -26 6 -55t-1 -60h-181
v201h-26v-201h-181z" />
    <glyph glyph-name="uniF230" unicode="FR" horiz-adv-x="2148" 
d="M71 553h833q0 -38 -11.5 -72.5t-33.5 -61t-54 -42.5t-72 -17l-464 -4v-333h1310v452q21 -7 51.5 -15t65 -20.5t71 -32t69.5 -48.5q24 -22 47 -36t52 -14q19 0 36 9.5t30 26t20.5 38t7.5 46.5q0 62 -27.5 91t-71.5 40q-23 5 -37.5 23.5t-14.5 41.5q0 25 15.5 44.5
t38.5 25.5q42 11 67 39.5t25 88.5q0 25 -7 47t-20 38.5t-30 26t-36 9.5q-29 0 -51.5 -14.5t-47.5 -35.5q-61 -53 -108.5 -77.5t-88.5 -37.5h-337v-203h-198v205q0 95 50 145.5t146 50.5h642q31 0 56.5 -12t44 -32t28.5 -45t10 -50v-420q0 -26 -11 -51t-30 -44.5t-44.5 -31.5
t-53.5 -12h-279v-89h418v-190h-2006v553zM71 977h962v-191h-516q-47 14 -79.5 32t-56.5 37.5t-42 38t-34.5 33t-35 23.5t-42.5 9t-43 -9.5t-32.5 -25t-21.5 -36t-9 -41.5q-2 -38 16 -70t59 -46q15 -5 30 -5q19 0 40 5t40 11.5t35.5 12t28.5 6.5q29 2 76.5 3t100.5 1
q33 0 66 -0.5t61.5 -2t51 -4t34.5 -5.5q61 -20 98 -66.5t45 -110.5h-832v401zM1297 58q-41 0 -77 15.5t-62.5 42t-42 62t-15.5 76.5v299h198v-468h23v468h159v23h-159v178h194v-501q0 -41 -15.5 -76.5t-42 -62t-62 -41.5t-76.5 -15h-22z" />
    <glyph glyph-name="uniF231" unicode="GE" horiz-adv-x="2155" 
d="M344 0q-56 0 -106.5 24.5t-88 64t-59.5 89.5t-22 101v419q0 46 12.5 95t38 90t64.5 67.5t92 26.5h531q60 -1 111 -28t79 -82q26 -49 28 -104t-24 -105q-38 -72 -104 -115t-148 -43h-408v-23h692v-217h-177q-11 6 -24 8q-14 4 -29.5 5t-32.5 1q-20 0 -42.5 -1.5
t-47.5 -3.5q-26 -2 -50.5 -3t-48.5 -1q-35 0 -67.5 2.5t-59.5 10.5q-24 7 -48.5 23.5t-45 42t-34 60t-14.5 77.5q-1 35 8.5 66.5t26 58t38.5 46t47 30.5q34 13 70 16.5t71 3.5q26 0 53 -1t54 -3q18 -1 34.5 -1.5t32.5 -0.5q31 0 57.5 3.5t47.5 13.5q18 6 31.5 17.5t23 27.5
t14.5 33.5t5 35.5q0 25 -8 47t-22.5 38.5t-33.5 26t-40 9.5q-28 0 -48 -12t-39 -30.5t-41.5 -41t-55.5 -44t-80.5 -39.5t-116.5 -27q-42 -5 -77 -35t-61 -68q-8 -12 -16.5 -30t-20 -38t-27.5 -39t-38 -32h-100v-23h98q25 -16 42.5 -44t33.5 -60.5t34 -66t44 -58.5h-244v-22
h271q7 -4 13.5 -7t14.5 -7q54 -20 92 -29t71.5 -21.5t68.5 -35.5t83 -71q20 -15 43 -26t49 -11q24 0 43 10.5t32.5 27.5t21 38.5t7.5 43.5q0 51 -32 88h146v-215h1056v-23h-1744zM1309 594q-47 6 -85 27t-61.5 53t-31.5 74t5 92q9 33 28.5 59t46 43t57.5 26t63 9h757v-181
l-73 -1q-185 0 -318 -0.5t-226 -1.5q-24 13 -50.5 30t-56.5 42q-24 20 -47 34t-52 14q-24 0 -41.5 -11t-28.5 -28.5t-16.5 -39t-5.5 -42.5q0 -5 0.5 -9.5t0.5 -9.5h47.5t83.5 0.5t102.5 0.5h104.5h62.5h52t37 -0.5t17.5 -0.5q45 -6 78 -29t55.5 -56.5t33.5 -74.5t11 -82
q2 -50 -9 -98t-33.5 -86.5t-56 -62t-77.5 -24.5h-557q0 56 17.5 91t48 54.5t72.5 28t91 11.5h464v149h-510zM1354 58q-96 7 -156.5 54.5t-69.5 125.5h557l211 1v240h192v-241l-1 -181h-191h-86t-90.5 0.5t-90.5 0.5h-85h-190z" />
    <glyph glyph-name="uniF232" unicode="HA" horiz-adv-x="2168" 
d="M1046 977l-2 -742q0 -36 -14 -68t-40 -56.5t-63 -38.5t-83 -14t-83.5 6.5t-64.5 25.5t-42.5 53.5t-17.5 91.5l4 329h-345v196h529v-196v-185.5v-127v-80v-45v-20.5v-8v-1l24 -1l2 468v196h149q8 14 11 32t3 40q0 25 -7 47t-19.5 38.5t-29.5 26t-36 9.5q-29 0 -52 -14.5
t-47 -35.5q-33 -30 -62.5 -49.5t-55.5 -33t-49 -21.5t-45 -15h-104q-22 7 -45.5 15t-49.5 21.5t-55 33t-62 49.5q-24 21 -47 35.5t-52 14.5q-19 0 -36 -9.5t-29.5 -26t-20 -38.5t-7.5 -47q0 -44 15 -72h155v-196h-1l1 -329v-212h864l5 527q3 97 30.5 175.5t83.5 134t143 85
t209 29.5q24 0 68.5 -0.5t96.5 -10.5t107 -33t101 -66.5t77.5 -112.5t37.5 -170l7 -580l-225 -1q-40 0 -75 15t-61.5 41.5t-41.5 61.5t-15 75v382h192v-535q13 -4 27 -8q11 -3 25 -5t25 -2q25 0 47 7.5t38.5 20t26 29.5t9.5 36q0 29 -14.5 52t-36.5 48q-32 36 -52.5 67
t-34 59t-22 52.5t-15.5 48.5v123q0 56 -31 102.5t-82 66.5q-91 36 -192 31q-46 -4 -92 -16.5t-83 -37t-60 -62.5t-23 -92v-162q-14 -38 -37.5 -81.5t-70.5 -98.5q-22 -25 -36.5 -47.5t-14.5 -51.5q0 -20 9.5 -36.5t26 -29.5t38.5 -20t47 -7q23 0 38 4q13 1 24 6v539h200
v-383q0 -40 -15 -75t-41 -61t-61 -41t-75 -15h-1295l-1 564v160l-1 36v217h975z" />
    <glyph glyph-name="uniF233" unicode="HE" horiz-adv-x="2174" 
d="M1046 978l452 -1h605v-192l-73 -1q-152 0 -268 -0.5t-205 -1.5h-71h-980q-22 7 -45.5 16t-49.5 22.5t-55 33.5t-62 50q-24 21 -47 35.5t-52 14.5q-19 0 -36 -9.5t-29.5 -26t-20 -38.5t-7.5 -47q0 -45 15 -72h155v-196h-1l1 -329v-212h999q-60 26 -95 76.5t-35 115.5
q0 58 16.5 94.5t46.5 58t72.5 31t94.5 13.5h463v158h-510q-39 6 -71.5 21.5t-56.5 40.5t-38 57t-15 71h46h25h58t78.5 0.5t88.5 0.5h88h62.5h52t37 -0.5t17.5 -0.5q46 -6 80 -31.5t56 -61.5t32.5 -79t10.5 -85q1 -53 -10 -104t-33.5 -91.5t-56 -66t-77.5 -26.5h-512
q-1 -5 -1.5 -10.5t-0.5 -12.5q0 -20 5.5 -42.5t16.5 -41t29 -30.5t42 -12q29 0 52 14.5t47 36.5q30 26 56 43.5t49 31.5h219l212 1v283h191v-284l-1 -193h-190q-51 0 -109 0.5t-115.5 0.5h-111h-96.5h-1407l-1 564v159l-1 37v217h975zM824 761v-196q0 -110 0.5 -186
t0.5 -127v-80v-44.5t0.5 -20.5t0.5 -8v-1l24 -1v468v196h196v-526q0 -36 -14 -68t-40 -56.5t-63.5 -38.5t-83.5 -14t-83.5 6.5t-64.5 26t-42.5 54t-17.5 91.5l3 329h-345v196h529z" />
    <glyph glyph-name="uniF234" unicode="HI" horiz-adv-x="1623" 
d="M71 977h975v-743q0 -36 -14 -68t-40 -56t-63.5 -38t-83.5 -14t-83.5 6.5t-64.5 25t-42.5 53t-17.5 91.5l3 330h-345v196h529v-196q0 -109 0.5 -185.5t0.5 -127.5v-80.5v-45v-20.5v-8v-1h24l1 468v196h149q8 14 11 32t3 40q0 25 -7 47t-19.5 38.5t-29.5 26t-36 9.5
q-29 0 -52 -14.5t-47 -35.5q-33 -30 -62.5 -49.5t-55.5 -33t-49 -21.5t-45 -15h-104q-22 7 -45.5 15t-49.5 21.5t-55 33t-62 49.5q-24 21 -47 35.5t-52 14.5q-19 0 -36 -9.5t-29.5 -26t-20 -38.5t-7.5 -47q0 -44 15 -72h155v-196h-1l1 -329v-212h1084l1 517q7 22 15.5 45
t22 49t33.5 55t49 62q22 26 35.5 48.5t13.5 51.5q0 19 -9.5 36t-25.5 30t-37.5 20t-46.5 7q-26 0 -49 -5v38h194v-801q0 -41 -16 -73.5t-43 -55.5t-62.5 -35t-74.5 -12h-1283l-1 564v160l-1 36v217zM1144 256q0 12 0.5 33.5t0.5 54.5q0 15 0.5 30t0.5 30v112q0 26 1 48
l1 413h182v-50l1 -232v-131v-94q0 -114 0.5 -187.5t0.5 -118.5t0.5 -68.5t0.5 -37.5q-42 1 -76.5 8.5t-58.5 27t-38 53.5t-16 88v21z" />
    <glyph glyph-name="uniF235" unicode="HO" horiz-adv-x="2225" 
d="M1046 978v-744q0 -36 -14 -68t-40 -56t-63.5 -38t-83.5 -14t-83.5 6.5t-64.5 25.5t-42.5 53.5t-17.5 91.5l3 330h-345v195h529v-195q0 -109 0.5 -185.5t0.5 -127.5v-80.5v-45t0.5 -20.5t0.5 -8v-2h24v469v195h149q14 27 14 73q0 25 -7 47t-19.5 38.5t-29.5 26t-36 9.5
q-29 0 -52 -14.5t-47 -35.5q-33 -30 -62.5 -49.5t-55.5 -33t-49 -22t-45 -15.5h-104q-22 7 -45.5 15.5t-49.5 22t-55 33t-62 49.5q-24 21 -47 35.5t-52 14.5q-19 0 -36 -9.5t-29.5 -26t-20 -38.5t-7.5 -47q0 -45 15 -73h155v-195h-1l1 -329v-213h1239q-78 24 -144 69.5
t-113.5 106.5t-74.5 135t-27 155q0 98 38.5 185t106 153t157.5 106t194 44v-78q-16 -23 -36.5 -36t-44 -22t-47.5 -17.5t-46.5 -22t-42 -36t-32.5 -58.5q-11 -27 -19.5 -55t-22 -59.5t-36 -68t-60.5 -79.5q-22 -26 -36 -48.5t-14 -51.5q0 -20 9.5 -36.5t25.5 -29.5t38 -20
t47 -7q53 0 82 20.5t41.5 54.5t14 77.5t-1 90.5t-4 93t6.5 85q5 28 21.5 51t39.5 39.5t52 26t59 11.5q35 1 69.5 -6.5t62.5 -24t48 -41t27 -56.5q7 -39 5.5 -85t-4 -93t-1.5 -91t14 -78t41.5 -54.5t81.5 -20.5q25 0 47 7.5t38.5 20t26 29.5t9.5 37q0 29 -14.5 51.5
t-36.5 47.5q-38 43 -60 79.5t-35.5 68t-22 60t-18.5 55.5q-14 36 -33.5 58t-42 35.5t-47 22t-47.5 18t-44 22.5t-36 36v77q104 -4 194.5 -44t157 -105.5t105 -152.5t38.5 -185q0 -99 -38.5 -185.5t-105 -152.5t-157 -106t-193.5 -45v763h-24v-762h-1574l-1 564v159l-1 36
v218h975z" />
    <glyph glyph-name="uniF236" unicode="IC" horiz-adv-x="1609" 
d="M250 0q-40 1 -72.5 9.5t-56 28.5t-36.5 53.5t-15 85.5q1 57 1 113.5v113.5q0 32 0.5 61t0.5 51q0 26 1 48l2 413h181v-50l1 -232v-131v-65h-158v-23h158v-7q1 -182 1 -289.5v-156.5h638q-54 20 -110 58.5t-101.5 95t-76 131.5t-34.5 168h155q20 -13 35.5 -34t29 -47
t27 -53.5t30.5 -53t38.5 -46t51.5 -31.5q31 -12 57 -20t48.5 -14t42.5 -12t40 -15q-2 26 -2.5 51.5t-0.5 48.5q1 57 13 97t37.5 66t66 38t99.5 12q95 -6 143.5 -44.5t48.5 -116.5q1 -40 1.5 -92t1.5 -99q1 -55 1 -111h-196v429h-24v-429h-1060h-6h-2zM574 499q0 33 3 59.5
t9 51t15.5 49.5t23.5 54q27 51 66 97.5t89.5 82.5t112 58.5t135.5 25.5h290v-435h23v435h191v-306q-7 -83 -53 -125t-148 -47q-60 0 -99 14t-62 39t-33.5 60.5t-13.5 77.5q-2 22 -1.5 45t2.5 47q-29 -13 -65.5 -23t-83.5 -17q-42 -5 -78 -35t-62 -69q-8 -12 -16.5 -30
t-20.5 -37.5t-28 -39t-38 -32.5h-158zM283 476h196v-242q0 -36 -13.5 -67.5t-39 -55.5t-62 -38.5t-81.5 -14.5v418zM283 499v41q7 22 15.5 45t22 49t33 55t48.5 62q22 26 36.5 48.5t14.5 51.5q0 19 -9.5 36t-26 30t-38.5 20t-47 7q-27 0 -48 -6v39h195v-478h-196z" />
    <glyph glyph-name="uniF237" unicode="IE" horiz-adv-x="1608" 
d="M70 177q1 57 1 113.5v113.5q0 32 0.5 60.5t0.5 51.5q0 26 1 49l2 413h181v-50l1 -232v-132v-94q1 -172 1 -280.5v-165.5h447q-60 26 -95 76.5t-35 115.5q0 58 16.5 94.5t46.5 58t72.5 31t94.5 13.5h463v158h-510q-47 7 -85 28.5t-61.5 55.5t-31.5 78.5t5 97.5
q9 36 28.5 63t46 45.5t57.5 28t63 9.5h757v-192l-73 -1q-185 -1 -317.5 -1t-226.5 -1q-24 13 -50.5 31.5t-55.5 45.5q-25 21 -47.5 35.5t-51.5 14.5q-25 0 -42.5 -12t-29 -31t-16.5 -41.5t-5 -43.5v-10t1 -10h47.5t83.5 0.5t102.5 0.5h104.5h62.5h52t37 -0.5t17.5 -0.5
q46 -6 80 -31.5t56 -61.5t32.5 -79t10.5 -85q1 -53 -10 -104t-33.5 -91.5t-56 -66t-77.5 -26.5h-512q-1 -5 -1.5 -10.5t-0.5 -12.5q0 -20 5.5 -42.5t16.5 -41t29 -30.5t42 -12q29 0 52 14.5t47 36.5q30 26 56 43.5t49 31.5h219l211 1v283h192v-284l-1 -193h-191
q-54 0 -114.5 0.5t-120 0.5h-114.5h-97h-644q-41 1 -74.5 9t-57.5 27.5t-37.5 53t-15.5 86.5zM479 235q0 -36 -13.5 -67.5t-39 -55.5t-62 -38.5t-81.5 -15.5v483q7 21 15.5 44.5t22 49.5t33 55t48.5 62q22 25 36.5 47.5t14.5 51.5q0 19 -9.5 36.5t-26 30t-38.5 20t-47 7.5
q-14 0 -25.5 -2t-22.5 -4v39h195v-743z" />
    <glyph glyph-name="uniF238" unicode="IL" horiz-adv-x="1571" 
d="M258 0q-42 1 -75.5 9t-58 27.5t-38.5 53t-16 87.5q1 57 1 113.5v113.5q0 32 0.5 61t0.5 51q0 26 1 48l2 413h181v-50l1 -232v-131v-94q1 -77 1 -139v-113h-158v-24h158v-171h318v171h44q-8 -16 -12 -33q-3 -12 -3 -26q0 -24 10.5 -43t27.5 -32.5t38 -21t43 -7.5
q16 0 32.5 4t30.5 12q46 22 54 73q5 16 6 34.5t0 39.5h418q1 -28 5 -51.5t12 -43.5q12 -36 45.5 -55.5t69.5 -19.5q24 0 46 8t38 22.5t25.5 33.5t9.5 41q0 20 -6.5 35.5t-17.5 29.5q-9 12 -21 24h-625q-1 12 -1.5 25t-2.5 27q-3 37 -4 73t1 68h514q40 0 75 -15t61.5 -41.5
t41.5 -61.5t15 -75v-90q0 -26 -10 -49.5t-29 -41t-46.5 -27.5t-61.5 -10h-1141zM576 218v759h194v-518q-8 -32 -15.5 -58t-20 -52.5t-34 -55t-57.5 -65.5q-6 -8 -9 -10h-58zM283 218v322q7 22 15.5 45t22 49t33 55t48.5 62q23 26 37 48.5t14 51.5q0 19 -9.5 36t-26 30
t-38.5 20t-47 7t-48 -5v38h195v-743v-8t-1 -8h-195zM474 194q-14 -57 -63.5 -96t-127.5 -40v136h191z" />
    <glyph glyph-name="uniF239" unicode="IN" horiz-adv-x="1615" 
d="M70 177q1 57 1 113.5v113.5q0 32 0.5 61t0.5 51q0 26 1 48l2 413h181v-50l1 -232v-131v-95q1 -182 1 -289.5v-156.5h1001q-45 25 -73.5 70t-28.5 100v561h176v-707q13 -8 32.5 -11t33.5 -3q24 0 45.5 7.5t37.5 20.5t25 30t9 37q0 19 -5.5 35t-15.5 31q-6 9 -12.5 17.5
t-14.5 17.5q-37 43 -67.5 93.5t-44.5 105.5v355h-23l-354 4v-513q-2 -35 -4.5 -66t-14.5 -52q-22 -40 -54.5 -60.5t-63.5 -28.5q-36 -10 -75 -9q-36 0 -70.5 9.5t-61.5 28.5t-43.5 48t-16.5 69v764h192v-149q-1 -62 -1 -123v-111q0 -58 -1 -111q-13 -38 -36 -82.5
t-70 -100.5q-22 -26 -36 -49t-14 -52q0 -20 9.5 -37t25.5 -30.5t37.5 -21t45.5 -7.5q17 0 33.5 3t31.5 10q1 194 1.5 385.5t0.5 384.5v91h750v-846q0 -27 -10.5 -51t-28 -42t-41.5 -28t-51 -10h-62h-3h-1090q-94 0 -139 40.5t-49 136.5zM479 234q0 -36 -13.5 -67.5
t-39 -55.5t-62 -38.5t-81.5 -14.5v482q7 22 15.5 45t22 49t33 55t48.5 62q22 26 36.5 48.5t14.5 51.5q0 19 -9.5 36t-26 30t-38.5 20t-47 7t-48 -5v38h195v-743z" />
    <glyph glyph-name="uniF240" unicode="IO" horiz-adv-x="1639" 
d="M575 518q0 93 39 174.5t106 144t157.5 100t193.5 41.5v-74q-16 -22 -36.5 -34t-43.5 -20.5t-47.5 -16.5t-46.5 -20.5t-41.5 -33.5t-33.5 -55q-11 -26 -19 -52.5t-21.5 -56.5t-36 -64t-60.5 -75q-23 -23 -37 -45t-14 -49q0 -18 9.5 -34t26 -27.5t38 -18.5t46.5 -7
q53 0 82 19.5t42 51t14 73t-1.5 85.5t-4 87.5t6.5 80.5q6 27 22 48t39.5 36.5t52.5 24.5t59 11q35 1 69 -6t62.5 -22.5t48.5 -39t26 -53.5q7 -36 5.5 -80t-4 -88t-1.5 -85.5t14 -73t41.5 -51t81.5 -19.5q25 0 47 7t38.5 19t26 28t9.5 34q0 27 -14.5 48.5t-35.5 44.5
q-38 41 -60.5 75.5t-36 64.5t-22 56.5t-18.5 52.5q-14 34 -33.5 54.5t-42 33.5t-46.5 21t-47.5 16.5t-44 20.5t-36.5 34v73q104 -4 194.5 -41.5t157 -100t105 -144t38.5 -174.5q0 -92 -38.5 -174t-105 -144t-157 -99.5t-193.5 -41.5v719h-24v-719q-103 4 -193.5 41.5
t-157.5 100t-105.5 144t-38.5 174.5zM249 1q-49 4 -82 14t-54 30.5t-31 52.5t-12 79q1 57 1 113.5v113.5q0 32 0.5 60.5t0.5 51.5q0 26 1 49l2 413h181v-50l1 -233v-131v-94q0 -97 0.5 -171t0.5 -128v-90.5v-57.5h813v-22l-808 -1zM479 235q0 -36 -13.5 -68t-39 -56t-62 -38
t-82.5 -15l1 483q7 21 15.5 44.5t22 49t33 55t48.5 62.5q22 25 36.5 47.5t14.5 51.5q0 19 -9.5 36t-26 30t-38.5 20t-47 7t-48 -5v39h195v-743z" />
    <glyph glyph-name="uniF241" unicode="IR" horiz-adv-x="1627" 
d="M70 177q1 57 1 113.5v113.5q0 32 0.5 61t0.5 51q0 26 1 48l2 413h181v-50l1 -232v-131v-94q0 -94 0.5 -166.5t0.5 -127.5v-92.5v-60.5h799v452q22 -7 52.5 -15t65 -20.5t71 -32t69.5 -48.5q24 -22 47 -36t52 -14q19 0 36 9.5t29.5 26t20 38t7.5 46.5q0 62 -27 91t-72 40
q-22 5 -36.5 23.5t-14.5 41.5q0 24 15 44q14 18 39 26q41 11 66.5 39.5t25.5 88.5q0 25 -7 47t-20 38.5t-30 26t-36 9.5q-29 0 -51.5 -14.5t-48.5 -35.5q-60 -53 -108 -77.5t-88 -37.5h-337v-693h22v668h195v-500q0 -40 -15.5 -75.5t-42 -62.5t-62.5 -42.5t-76 -15.5h-22
q-41 0 -77 15.5t-62.5 42t-42 62.5t-15.5 77v526q0 95 49.5 145.5t145.5 50.5h643q30 0 55.5 -12t44 -32t29 -45t10.5 -50v-420q0 -26 -11 -51t-30 -44.5t-44.5 -31.5t-53.5 -12h-280v-89h419v-190h-1301q-47 1 -81 11t-56.5 30.5t-34 54t-13.5 81.5zM479 234
q0 -36 -13.5 -67.5t-39 -55.5t-62 -38.5t-81.5 -14.5v482q7 22 15.5 45t22 49t33 55t48.5 62q22 26 36.5 48.5t14.5 51.5q0 19 -9.5 36t-26 30t-38.5 20t-47 7t-48 -5v38h195v-743z" />
    <glyph glyph-name="uniF242" unicode="IS" horiz-adv-x="1600" 
d="M668 611q-39 21 -59.5 52.5t-28.5 60.5q-10 34 -9 71q0 34 9 67t28 58.5t48 41t68 15.5h806v-182l-541 1q-38 14 -82 35.5t-99 66.5q-24 20 -47 33.5t-52 13.5q-19 0 -36 -9t-29.5 -24t-20 -35.5t-7.5 -44.5q0 -17 2.5 -31t9.5 -30q175 -1 309.5 -1t234.5 -0.5
t168.5 -0.5h110.5h60.5h18.5v-712h-806q-39 0 -68 15.5t-48 41t-28 58.5t-9 67v3q0 38 15.5 71t42 58t62 39t76.5 14h353v147h193v-313h-687q-2 -5 -3.5 -10.5t-3.5 -11.5q-3 -17 -3 -34q0 -24 7.5 -44.5t20 -35.5t29.5 -24t36 -9q15 0 27 3.5t25 10.5q9 7 17.5 13t17.5 14
q45 38 92.5 63t103.5 43h347v176q1 1 1 5v17v159h-556q-35 3 -65.5 5t-50.5 13zM255 0q-41 1 -74.5 9t-57.5 27.5t-37.5 53.5t-15.5 87q1 57 1 113.5v113.5q0 32 0.5 61t0.5 51q0 26 1 48l2 413h181v-50l1 -232v-131v-95q0 -97 0.5 -170.5t0.5 -127.5v-90.5v-57.5h1272v-23
h-1275zM479 234q0 -36 -13.5 -67.5t-39 -55.5t-62 -38.5t-81.5 -14.5v482q7 22 15.5 45t22 49t33 55t48.5 62q23 26 37 48.5t14 51.5q0 19 -9.5 36t-26 30t-38.5 20t-47 7q-27 0 -48 -6v39h195v-743z" />
    <glyph glyph-name="uniF243" unicode="IT" horiz-adv-x="1599" 
d="M252 0q-41 1 -73.5 9.5t-56 28t-37 53t-15.5 86.5q1 57 1 113.5v113.5q0 32 0.5 61t0.5 51q0 26 1 48l2 413h181v-50l1 -232v-131v-95q1 -182 1 -289.5v-156.5h817v535h-307l-192 1v418h977v-194h-568q-19 7 -39.5 15.5t-43 21.5t-47 30.5t-52.5 42.5q-26 22 -48.5 36
t-51.5 14q-19 0 -36 -9.5t-29.5 -26t-20 -38t-7.5 -46.5q0 -14 2 -32t9 -31h651v-553q0 -41 -15 -77.5t-41 -64.5t-61 -45t-75 -20h-828zM479 234q0 -36 -13.5 -67.5t-39 -55.5t-62 -38.5t-81.5 -14.5v482q7 22 15.5 45t22 49t33 55t48.5 62q22 26 36.5 48.5t14.5 51.5
q0 19 -9.5 36t-26 30t-38.5 20t-47 7q-27 0 -48 -6v39h195v-743zM1052 535v-477q-41 2 -77 19.5t-62 46t-41 65t-15 77.5v269h195z" />
    <glyph glyph-name="uniF244" unicode="JU" horiz-adv-x="2165" 
d="M741 506v-1q0 -38 -15.5 -71t-41.5 -57.5t-61 -39t-75 -14.5h-219q13 -15 26 -26t27 -19q28 -18 68.5 -29t97.5 -10q51 1 102.5 19t90.5 52q21 14 36.5 35t26 45.5t17 50.5t9.5 49v16h195q-9 -133 -68.5 -233t-181.5 -161q-47 -27 -108 -40.5t-114 -13.5
q-88 -2 -167.5 18.5t-144 57t-110.5 85.5t-68 104v183h678zM1626 23l-1 96q16 29 36.5 45.5t44 28t47.5 22t47 27.5t42.5 45t33.5 74q10 34 18 69.5t21 75.5h158v22h-150q14 37 35 78t54 89q22 31 36.5 59.5t14.5 65.5q0 25 -9.5 46.5t-26 37.5t-38.5 25t-47 9
q-43 0 -70 -17.5t-42 -47t-20 -70t-5.5 -86t2 -94t3.5 -95.5h-194v443h484v-486q0 -66 -17 -127t-47.5 -114.5t-73.5 -97.5t-95 -76t-112.5 -50t-125.5 -20h-1566v23h1563zM63 968l966 9l-1 -190v-22l-1 -30v-24l-1 -145q2 -20 0 -38h-196v174q33 1 62.5 7t51 20.5t34 39
t12.5 63.5q0 24 -7.5 44.5t-20 35.5t-30 24t-36.5 9q-29 0 -51.5 -13.5t-47.5 -34.5q-32 -27 -60 -45t-53.5 -30.5t-48.5 -20.5t-44 -14h-528v181zM1604 58q-93 2 -175.5 37.5t-146 95.5t-103.5 141t-47 174h199q6 -23 11 -45t12 -43q14 -46 33.5 -74t42 -45t46.5 -27.5
t47.5 -22.5t44 -28.5t36.5 -45.5v-117zM1323 971v-436l2 -7h-194q0 4 -1 7l-1 64v372h194zM63 711h485q12 0 24 -1.5t23 -3.5q31 -8 58 -24.5t46.5 -40t30.5 -52.5t11 -61h-253q-20 6 -42 14t-46 20.5t-51 30t-57 42.5q-24 20 -47 34t-52 14q-19 0 -36 -9t-29.5 -24.5
t-19.5 -36t-7 -43.5q0 -26 4 -42h-42v183zM1804 404q-6 -38 -24 -67.5t-43.5 -50.5t-56.5 -32.5t-64 -12.5v265h194q1 -54 -6 -102z" />
    <glyph glyph-name="uniF245" unicode="KE" horiz-adv-x="2163" 
d="M1316 595q-47 6 -85 26.5t-61.5 52.5t-31.5 74t5 92q8 33 27.5 59t46 43t57.5 26t63 9h757v-181h-72q-185 -1 -317.5 -1.5t-226.5 -1.5q-24 13 -50.5 30t-55.5 42q-25 20 -48 34t-52 14q-24 0 -41.5 -11t-29 -28.5t-17 -39t-5.5 -42.5q1 -5 1 -9.5t1 -9.5h47.5t83 0.5
t102 1t105.5 0.5h62.5t52 -0.5t36.5 -1t17 -0.5q42 -5 74 -25t54 -50t34.5 -67.5t16.5 -77.5q0 -6 0.5 -11t0.5 -10q1 -50 -10 -98t-33.5 -86.5t-56.5 -62.5t-77 -24h-513q-1 -5 -1 -10.5t-1 -12.5q0 -20 6 -41t18 -38t29.5 -27.5t40.5 -10.5q29 0 52 13t47 34
q29 25 55.5 41.5t49.5 28.5h219l211 2v239h192v-241l-1 -180h-191h-542q-44 3 -85.5 17t-73 39t-50.5 61.5t-19 85.5q0 56 17.5 90.5t48.5 54.5t73 28t91 11h463v150h-510zM388 481q-1 35 8 66.5t25.5 58t38.5 46t48 30.5q5 2 10.5 4t11.5 4q25 7 54.5 9.5t62.5 2.5
q26 0 53 -1t56 -3q17 -1 34 -1.5t33 -0.5q30 0 56.5 3.5t48.5 13.5q36 13 55 45.5t19 69.5q0 25 -8 46.5t-22.5 38t-33.5 26t-40 9.5q-30 0 -54 -16v45h193v-276q0 -34 -14 -69.5t-39.5 -65t-61.5 -48t-80 -18.5h-410v-23h409q44 0 80 -20t62 -51t40 -68t14 -70v-245h1058
v-23h-1249l-1 39q11 -4 20 -5v-1q12 -3 26 -3q24 0 43 10.5t32.5 27.5t20.5 38.5t7 43.5q0 17 -3.5 32.5t-11.5 30.5q-9 20 -23.5 32t-31.5 18.5t-37 8.5t-39 2q-20 0 -43 -1.5t-49 -3.5q-25 -2 -50 -3t-49 -1q-35 0 -67.5 2.5t-59.5 10.5q-24 7 -49 23.5t-45.5 42t-33.5 60
t-14 77.5zM633 977v-193q-57 0 -108 4q-22 2 -45 5t-44.5 8.5t-40.5 12.5t-32 17q-27 20 -46 40t-36 35.5t-36 25.5t-44 10q-21 0 -40 -9.5t-33.5 -26t-22.5 -38t-8 -46.5q0 -43 24 -77q16 -26 38.5 -50.5t43 -48t36.5 -45.5t20 -43v-58h-147v-23h147v-52q-4 -21 -25.5 -45
t-47 -54t-49 -67.5t-30.5 -85.5q-3 -12 -3 -25q0 -23 7 -45.5t20.5 -39.5t33 -27.5t45.5 -10.5q28 0 48 9.5t41 27.5q15 14 31 26.5t34 23.5q23 12 58.5 23.5t72.5 21t70.5 16.5t51.5 11q4 0 7.5 0.5t5.5 0.5q3 0 5 1v-15l-2 -171h-562v977h562z" />
    <glyph glyph-name="uniF246" unicode="LA" horiz-adv-x="2166" 
d="M1137 262l1 288q3 97 30.5 175.5t84 134t143.5 85t210 29.5q24 0 68 -0.5t96 -10.5t107 -33t101 -66.5t77.5 -112.5t37.5 -170l8 -580l-226 -1q-40 0 -75.5 15t-61.5 41.5t-41.5 61.5t-15.5 75v47h193v-200q13 -4 27 -8q11 -3 25 -5t25 -2q25 0 47 7.5t38.5 20t26 29.5
t9.5 36q0 29 -14.5 52t-36.5 48q-5 5 -9.5 11t-9.5 11h59v22h-77q-20 28 -34 52.5t-24 47t-16.5 43t-12.5 40.5v123q0 56 -31 102.5t-82 66.5q-90 36 -193 31q-45 -4 -91 -16.5t-82.5 -37t-59.5 -62.5t-23 -92v-162q-11 -30 -27.5 -63.5t-45.5 -72.5h-125zM70 976h195v-487
q-9 -30 -16.5 -54.5t-20.5 -49.5t-34 -52t-58 -62q-12 -14 -21 -29t-12 -33q-4 -11 -4 -25q0 -24 11 -42t29 -30.5t39.5 -19t42.5 -6.5q23 1 44 8q5 2 8.5 4t7.5 4q30 13 44 40h1q3 6 5.5 13t4.5 15q4 15 5 32.5t0 37.5h699v-63q0 -24 -10 -46t-29 -38t-46.5 -25.5
t-61.5 -9.5h-823v918zM337 311q-4 35 -5 68.5t1 65.5h514q40 0 75 -14.5t61.5 -39t41.5 -58t15 -70.5v-1h-700q-1 11 -1.5 23.5t-1.5 25.5zM70 23h1064l2 217h109q-10 -10 -19 -22q-22 -25 -36.5 -47.5t-14.5 -51.5q0 -20 9.5 -36.5t26 -29.5t38.5 -20t47 -7q23 0 39 4
q11 1 22 6v204h201v-48q0 -40 -15 -75t-41 -61t-61 -41t-75 -15h-1296v23zM1357 575h201v-313h-201v313zM1681 575h193v-313h-193v313z" />
    <glyph glyph-name="uniF247" unicode="LE" horiz-adv-x="2171" 
d="M265 977v-518q-9 -32 -16 -58t-20 -52.5t-34 -55t-58 -65.5q-12 -15 -21 -31t-13 -36q-3 -12 -3 -25q0 -24 10.5 -43.5t27.5 -33t39 -21t45 -7.5q25 2 43 9q11 3 17 8q21 10 35.5 29t19.5 43q4 16 5 34.5t0 39.5h418q0 -56 18 -95q6 -18 17.5 -32t27 -23.5t33.5 -14.5
t36 -5q31 0 53.5 7t39 19t27 27.5t16.5 31.5q15 37 13 85h97q3 -36 19 -64q14 -24 41 -43.5t75 -19.5q29 0 52 14.5t47 36.5q30 26 56 43.5t50 31.5h218l212 1v283h192v-284l-1 -193h-191q-69 1 -148 1h-154h-694l-188 -1h-653v977h194zM1320 571q-47 7 -85 28.5t-61.5 55.5
t-31.5 78.5t5 97.5q9 36 28.5 63t46 45.5t57.5 28t64 9.5h756v-192l-72 -1q-185 -1 -318.5 -1t-226.5 -1q-23 13 -49.5 31.5t-56.5 45.5q-24 21 -47 35.5t-52 14.5q-19 0 -36 -9.5t-30 -26t-20.5 -38.5t-7.5 -47q0 -4 1 -7v-10t1 -10h47.5t83.5 0.5t102.5 0.5h105.5h62.5h52
t36.5 -0.5t17 -0.5q42 -6 73.5 -27t53.5 -53t34.5 -72t16.5 -83q0 -5 0.5 -11t0.5 -11q2 -53 -9 -104t-33.5 -91.5t-56.5 -66t-77 -26.5h-447l-110 1q0 58 16.5 94t46.5 57.5t72 31t94 13.5h464v158h-511zM337 270q-3 37 -4 73t1 68h514q40 0 75 -15t61.5 -41t41.5 -61
t15 -75v-2l-74 1h-626q-1 12 -1.5 25t-2.5 27z" />
    <glyph glyph-name="uniF248" unicode="LI" horiz-adv-x="1613" 
d="M69 58v919h195v-488q-9 -30 -16.5 -54.5t-20.5 -49.5t-34 -52t-58 -62q-12 -14 -21 -29t-12 -33q-4 -9 -4 -25q0 -23 10.5 -41t28 -31t38.5 -19.5t42 -6.5h3q23 1 44 8q5 2 8.5 4t7.5 4q30 13 44 40q8 13 11 28q4 15 5 32.5t0 37.5h419q0 -26 4 -48.5t13 -41.5
q6 -18 18 -31t27.5 -21.5t33.5 -13t35 -4.5q25 0 46.5 7.5t37.5 21t25.5 31.5t9.5 38q0 19 -6.5 33.5t-17.5 28.5h54v-63q0 -24 -10 -46t-28.5 -38t-46 -25.5t-62.5 -9.5h-823zM1346 23v217h161v22h-161l1 278q7 22 15.5 45t22 49t33.5 55.5t49 62.5q22 25 35.5 47.5
t13.5 51.5q0 19 -9.5 36t-25.5 30t-37.5 20t-46.5 7q-26 0 -49 -5v38h195v-801q0 -35 -13.5 -66t-38 -55t-60 -39t-79.5 -16h-1281v23h1275zM1135 344q0 15 0.5 30t0.5 30v112q0 26 1 48l1 413h182l1 -49v-364v-48.5t1 -45.5v-208h-187v82zM336 311q-4 35 -5 68.5t1 65.5
h514q40 0 75 -14.5t61.5 -39t41.5 -58t15 -70.5v-1h-700q-1 12 -1.5 24t-1.5 25zM1323 58q-42 1 -76.5 8.5t-58.5 27t-38 53.5t-16 88v5h188v-70v-50t0.5 -36t0.5 -26z" />
    <glyph glyph-name="uniF249" unicode="LL" horiz-adv-x="2143" 
d="M265 977v-518q-9 -32 -16 -58t-20 -52.5t-34 -55t-58 -65.5q-12 -15 -21 -31t-13 -36q-3 -12 -3 -25q0 -23 10 -42.5t27 -33.5t38 -21.5t44 -7.5h3q25 2 43 9q11 3 17 8q31 15 44 42l1 1q3 7 5.5 14t4.5 15q4 16 5 34.5t0 39.5h840q-5 -8 -7.5 -15.5t-4.5 -17.5
q-4 -11 -4 -26q0 -23 10.5 -42.5t27.5 -33t38 -21t43 -7.5q24 0 47 9q9 1 16 7q22 11 36.5 29.5t18.5 43.5q4 16 5 34.5t0 39.5h419q1 -28 4.5 -51.5t12.5 -43.5q6 -18 17.5 -32t27.5 -23.5t33.5 -14.5t35.5 -5q25 0 46.5 8t37.5 22.5t25.5 33.5t9.5 41q0 20 -6 35.5
t-17 29.5l-21 24h-625q-1 12 -1.5 25t-2.5 27q-4 37 -5 73t1 68h514q40 0 75.5 -15t61.5 -41.5t41.5 -61.5t15.5 -75v-90q0 -26 -10 -49.5t-29 -41t-46.5 -27.5t-62.5 -10h-1889v977h194zM1138 218v759h194v-505q0 -14 -3 -26q-8 -29 -15.5 -53.5t-20 -49.5t-34 -52.5
t-56.5 -62.5q-3 -6 -7 -10h-58zM337 270q-3 37 -4 73t1 68h514q40 0 75 -15t61.5 -41t41.5 -61t15 -75v-1h-700q-1 13 -1.5 25.5t-2.5 26.5z" />
    <glyph glyph-name="uniF250" unicode="LO" horiz-adv-x="2115" 
d="M1171 218q-59 60 -92 136.5t-33 162.5q0 93 38.5 175t105.5 144t157 99.5t194 41.5v-73q-16 -22 -36.5 -34t-43.5 -20.5t-47.5 -16.5t-47 -21t-42 -33.5t-33.5 -54.5q-10 -26 -18.5 -52.5t-22 -56.5t-35.5 -64.5t-60 -75.5q-22 -23 -36.5 -44.5t-14.5 -48.5
q0 -18 9.5 -34t26 -28t38.5 -19t47 -7q53 0 81.5 19.5t41.5 51t14 73t-1.5 85.5t-4 87.5t6.5 80.5q6 27 22 48t39.5 36.5t52 24.5t59.5 12q35 1 69 -6.5t62 -23t48 -38.5t26 -53q8 -37 6.5 -80.5t-4 -88t-1.5 -86t14 -73t42 -51t82 -19.5q25 0 46.5 7t38 19t26 28.5
t9.5 34.5q0 27 -14 48.5t-37 44.5q-38 40 -60 74.5t-35.5 64.5t-22 56.5t-18.5 52.5q-14 34 -33.5 54.5t-42 33.5t-47 21t-47.5 16.5t-44 21t-36 34.5v72q104 -4 194.5 -41.5t157.5 -99.5t105.5 -143.5t38.5 -174.5t-38.5 -174.5t-105.5 -143.5t-157.5 -99.5t-193.5 -41.5
v136h269v24h-269v558h-24v-558h-369zM71 977h194v-518q-9 -32 -16 -58t-20 -52.5t-34 -55t-58 -65.5q-12 -16 -21 -31.5t-13 -35.5q-3 -12 -3 -26q0 -24 10 -43t27 -32.5t38 -21t44 -7.5q14 0 32 4t31 12q31 17 44 43q8 15 11 30q4 16 5 34.5t0 39.5h418q0 -56 18 -95
q6 -18 17.5 -32t27 -23.5t33.5 -14.5t36 -5q25 0 46.5 8t37.5 22.5t25.5 33.5t9.5 41q0 20 -6.5 35.5t-17.5 29.5h54v-66q0 -32 -14.5 -60t-43.5 -45h559v-23h-1471v977zM337 270q-3 37 -4 73t1 68h514q40 0 75 -15t61.5 -41.5t41.5 -61.5t15 -75h-700q-1 12 -1.5 25
t-2.5 27zM1540 194v-136q-102 4 -190.5 40t-155.5 96h346z" />
    <glyph glyph-name="uniF251" unicode="LY" horiz-adv-x="1866" 
d="M1104 578q-28 45 -64.5 102t-72.5 113.5t-67.5 105.5t-49.5 78h215q53 0 100 -20t82 -55t55 -82t20 -100v-173h23v173q0 53 20.5 100t55.5 82t82 55t100 20h214q-63 -100 -126 -198.5t-126 -198.5q-10 -14 -17.5 -27t-14.5 -24v-529h-188v240h155v22h-155v174
q19 26 46.5 37t56 22t54 30t42.5 63q8 21 15 43.5t17.5 48t28.5 55t49 64.5q18 20 29.5 38.5t11.5 41.5q0 32 -28.5 53.5t-69.5 21.5q-43 0 -66 -16.5t-33 -43.5t-11 -62.5t1 -73t3.5 -75t-4.5 -68.5q-6 -29 -23 -48.5t-40 -32t-50 -18t-52 -5.5h-1q-25 2 -48 10t-42 21
t-32 31.5t-17 41.5q-6 31 -5 68t3 75t1 73t-11 62.5t-33 44t-66 16.5q-41 0 -69 -22t-28 -54q0 -23 11.5 -41t28.5 -38q31 -35 49 -64.5t29 -55t17.5 -48.5t15.5 -44q16 -43 41.5 -62.5t54 -30.5t55.5 -21.5t46 -35.5v-175h-187v267q-7 11 -14.5 23t-16.5 26zM70 58v919h195
v-488q-9 -30 -16.5 -54.5t-20.5 -49.5t-34 -52t-58 -62q-12 -14 -21 -29t-12 -33q-4 -9 -4 -25q0 -23 10.5 -41t28 -31t38.5 -19.5t42 -6.5h3q23 1 44 8q5 2 8.5 4t7.5 4q30 13 44 40q8 13 11 28q4 15 5 32.5t0 37.5h699v-63q0 -24 -10 -46t-29 -38t-46.5 -25.5t-61.5 -9.5
h-823zM337 311q-4 35 -5 68.5t1 65.5h514q40 0 75 -14.5t61.5 -39t41.5 -58t15 -70.5v-1h-700q-1 12 -1.5 24t-1.5 25zM70 0v23h1065v217h187v-240h-1252z" />
    <glyph glyph-name="uniF252" unicode="MA" horiz-adv-x="2177" 
d="M71 977h274q37 0 73 -21t65 -57t47 -83.5t18 -101.5v-355h23v355q0 53 15 100.5t42.5 83.5t65.5 57.5t84 21.5h270v-919h-198v516q14 41 32.5 71t37 52t36.5 38.5t32 32.5t22.5 33.5t8.5 40.5q0 22 -9.5 41t-26 33t-38.5 22.5t-47 8.5q-18 0 -36 -5t-33.5 -14.5
t-27 -23.5t-17.5 -32q-15 -33 -17 -76.5t2 -94.5q4 -64 4.5 -122.5t-13.5 -104.5q-1 -5 -3 -10.5t-4 -10.5q-19 -44 -60 -76.5t-98 -40.5q-11 -2 -21.5 -3t-21.5 0q-32 0 -64.5 10t-60.5 28.5t-48.5 44.5t-29.5 58q-12 46 -13 104.5t4 122.5q5 45 6 83t-7 67q-3 16 -10 29v1
q-16 28 -45 42q-26 16 -60 17q-23 0 -45 -7t-39 -20.5t-28 -33t-11 -44.5t11 -48.5t27 -43.5q37 -37 58.5 -65.5t34 -54.5t20 -52.5t16.5 -57.5v-513h-197v977zM1150 550q3 97 30.5 175.5t83.5 134t143 85t209 29.5q24 0 68.5 -0.5t96.5 -10.5t107 -33t101 -66.5
t77.5 -112.5t37.5 -170l7 -580l-225 -1q-40 0 -75 15t-61.5 41.5t-41.5 61.5t-15 75v382h192v-535q13 -4 27 -8q11 -3 25 -5t25 -2q25 0 47 7.5t38.5 20t26 29.5t9.5 36q0 29 -14.5 52t-36.5 48q-32 36 -52.5 67t-34 59t-22 52.5t-15.5 48.5v123q0 56 -30.5 102.5
t-82.5 66.5q-91 36 -192 31q-42 -4 -80 -14t-72 -26q-48 -23 -77 -68.5t-29 -99.5v-162q-14 -38 -37.5 -81.5t-70.5 -98.5q-22 -25 -36.5 -47.5t-14.5 -51.5q0 -18 8.5 -33.5t22.5 -27.5h-71zM1369 23v552h200v-383q0 -40 -15 -75t-41 -61t-61 -41t-75 -15h-817v23h809z" />
    <glyph glyph-name="uniF253" unicode="ME" horiz-adv-x="2174" 
d="M71 0v977h274q37 0 73 -21t65 -57t47 -83.5t18 -101.5v-355h23v355q0 53 15.5 100.5t43 83.5t65.5 57.5t83 21.5h270l290 -1h12h757v-180l-73 -1q-172 -1 -298 -1t-218 -1h-29h-297v-1v-19h48.5t83.5 0.5t102.5 0.5h104.5h62.5h52t37 -0.5t17.5 -0.5q44 -6 77.5 -28.5
t56 -56t33.5 -74.5t11 -82q2 -50 -9 -98.5t-33.5 -86.5t-56 -62t-77.5 -24h-512q-1 -5 -1.5 -10.5t-0.5 -12.5q0 -20 6 -41t17.5 -38t29 -27.5t40.5 -10.5q29 0 51.5 13t47.5 34q29 25 55 41.5t50 28.5h219l211 2v266h192v-268l-1 -180h-191h-543q-95 7 -155.5 54.5
t-69.5 125.5q-1 6 -1 11.5t-1 11.5q0 56 17.5 90.5t48.5 54t73 28t90 11.5h464v150h-511q-41 5 -75.5 21.5t-58.5 42.5t-36 60t-10 74h-99v-770h1059v-23h-1257v574q14 41 32.5 71t37 52t36.5 38.5t32 32.5t22.5 33.5t8.5 40.5q0 22 -9.5 41t-26 33t-38.5 22.5t-47 8.5
q-18 0 -36 -5t-33.5 -14.5t-27 -23.5t-17.5 -32q-15 -33 -17 -76.5t2 -94.5q4 -64 4.5 -122.5t-13.5 -104.5q-1 -5 -3 -10.5t-4 -10.5q-19 -44 -60 -76.5t-98 -40.5q-11 -2 -21.5 -3t-21.5 0q-32 0 -64.5 10t-60.5 28.5t-48.5 44.5t-29.5 58q-12 46 -13 104.5t4 122.5
q5 45 6 83t-7 67q-3 16 -10 29v1q-16 28 -45 42q-26 16 -60 17q-23 0 -45 -7t-39 -20.5t-28 -33t-11 -44.5t11 -48.5t27 -43.5q37 -37 58.5 -65.5t34 -54.5t20 -52.5t16.5 -57.5v-513h-197z" />
    <glyph glyph-name="uniF254" unicode="MI" horiz-adv-x="1625" 
d="M71 0v977h274q37 0 73 -21t65 -57t47 -83.5t18 -101.5v-355h23v355q0 53 15 100.5t42.5 83.5t65.5 57.5t84 21.5h270v-919h-198v516q14 41 32.5 71t37 52t36.5 38.5t32 32.5t22.5 33.5t8.5 40.5q0 22 -9.5 41t-26 33t-38.5 22.5t-47 8.5q-18 0 -36 -5t-33.5 -14.5
t-27 -23.5t-17.5 -32q-15 -33 -17 -76.5t2 -94.5q4 -64 4.5 -122.5t-13.5 -104.5q-1 -5 -3 -10.5t-4 -10.5q-19 -44 -60 -76.5t-98 -40.5q-11 -2 -21.5 -3t-21.5 0q-32 0 -64.5 10t-60.5 28.5t-48.5 44.5t-29.5 58q-12 46 -13 104.5t4 122.5q5 45 6 83t-7 67q-3 16 -10 29v1
q-16 28 -45 42q-26 16 -60 17q-23 0 -45 -7t-39 -20.5t-28 -33t-11 -44.5t11 -48.5t27 -43.5q37 -37 58.5 -65.5t34 -54.5t20 -52.5t16.5 -57.5v-490h1090l1 517q7 22 15.5 45t22 49t33 55.5t49.5 62.5q21 25 35.5 47.5t14.5 51.5q0 19 -9.5 36t-26 30t-38.5 20t-47 7
t-48 -5v38h195v-801q0 -35 -13.5 -66t-38.5 -55t-60.5 -39t-80.5 -16h-1093h-198zM1335 58q-42 1 -76.5 8.5t-58.5 27t-38 53.5t-15 88v109v60q0 32 0.5 61t0.5 51v48l3 413h182v-282l1 -109v-22v-94q0 -104 0.5 -174t0.5 -116.5v-74v-47.5z" />
    <glyph glyph-name="uniF255" unicode="NC" horiz-adv-x="2166" 
d="M846 0q-40 0 -75.5 15t-61.5 41.5t-41.5 61.5t-15.5 75v312h175v-458q12 -7 23 -8q21 -6 44 -6q24 0 45.5 7.5t37.5 20.5t25.5 30.5t9.5 37.5q0 31 -15 54.5t-34 45.5q-36 42 -67 93.5t-45 105.5v77h188v-374q0 -34 -15.5 -62t-41.5 -46h918v438h-23v-403h-308
q-38 0 -84 12.5t-93.5 37t-93 61.5t-81 86.5t-58.5 112t-26 137.5h155q20 -12 35.5 -32t28.5 -44.5t26.5 -50.5t30.5 -50t38.5 -43t51.5 -30q32 -11 58 -18.5t48 -13t42 -11.5t40 -14q-1 25 -2 49t0 45q1 44 9.5 81t32 63.5t63.5 41.5t104 15q1 -1 6 -1q96 -5 144 -41
t48 -109q0 -19 0.5 -44t1 -52.5t1 -56.5t0.5 -56q1 -64 2 -133h-1251zM1132 527q0 31 3 56t9 48t15.5 46.5t23.5 50.5q28 48 66.5 91.5t89 77.5t112 55.5t135.5 24.5h290v-410h23v410h191v-288q-6 -78 -52.5 -118t-148.5 -44q-60 0 -99 13t-62 37t-33.5 57t-13.5 73
q-1 20 -1 42t2 45q-29 -12 -65.5 -22t-83.5 -16q-42 -5 -78 -33t-62 -65q-8 -11 -16.5 -28t-20.5 -35.5t-28 -36.5t-38 -31h-158zM288 527q1 76 1 144v119v96v91h750v-450h-188v256h-24l-353 4v-260h-186zM262 977v-224.5t-2 -225.5h-156v-22h156v-79q-13 -39 -36 -83.5
t-70 -100.5q-22 -25 -36 -48.5t-14 -52.5q0 -20 9.5 -37.5t25.5 -30t37.5 -20t45.5 -7.5q17 0 33.5 2.5t31.5 9.5v77t0.5 108t0.5 127.5v134.5h186v-288q-2 -36 -4.5 -67t-14.5 -52q-22 -40 -54.5 -60t-63.5 -28q-36 -10 -75 -10q-36 0 -70.5 9.5t-61.5 28.5t-43.5 48.5
t-16.5 69.5v821h192zM827 754v-227h-175v227h175z" />
    <glyph glyph-name="uniF256" unicode="ND" horiz-adv-x="2169" 
d="M263 977v-238t-2 -239h-155v-23h155v-51q-13 -39 -36 -83.5t-70 -100.5q-22 -25 -36 -48.5t-14 -52.5q0 -20 9.5 -37.5t25.5 -30t37.5 -20t45.5 -7.5q19 0 36 3q8 2 15.5 4.5l13.5 4.5v72t0.5 100.5t0.5 119v127.5h186v-260q-2 -36 -4.5 -67t-14.5 -52q-15 -28 -37 -46
t-45 -29h763v454h720q-2 -42 -15.5 -76t-33.5 -59t-44.5 -41t-48.5 -23q-27 -8 -59.5 -10.5t-67.5 -2.5q-24 0 -48.5 1t-50.5 3t-48.5 3.5t-42.5 1.5q-17 0 -31.5 -1t-27.5 -4q-21 -4 -37 -15t-27.5 -26.5t-17.5 -34.5t-6 -39q0 -23 7 -45t20 -39.5t32 -28.5t44 -11
q26 0 49 11t43 26q32 32 58 52.5t49 33.5t45.5 20.5t46.5 14.5t52.5 15t64.5 22q29 11 50.5 30.5t38 43.5t29.5 50t26.5 50.5t28.5 44.5t35 33h99v23h-98q-22 13 -38.5 34t-28.5 43t-21 42t-16 32q-26 38 -61 68t-77 35q-70 9 -117.5 27t-80.5 39.5t-55.5 44t-41.5 41
t-39 30.5t-48 12q-21 0 -39.5 -9.5t-33 -26t-22.5 -38t-8 -46.5q0 -37 19 -69.5t55 -45.5q21 -10 47.5 -13.5t57.5 -3.5q16 0 32.5 0.5t33.5 1.5q29 2 56 3t53 1q33 0 62.5 -2.5t54.5 -9.5q10 -3 23 -8q47 -21 81 -69t38 -113h-720v477h757q53 0 92 -26.5t64.5 -67.5t38 -90
t12.5 -95v-419q0 -51 -22 -101t-59.5 -89.5t-88 -64t-106.5 -24.5h-1549h-13h-12q-35 1 -67 11.5t-57.5 30t-40.5 48t-15 66.5v821h192zM289 500q0 83 0.5 158.5t0.5 131.5v96v91h750v-477h-188v283h-24l-353 4v-287h-186zM828 477v-373q5 -2 11 -4l12 -4q11 -2 21 -3t23 -1
q24 0 45.5 7.5t37.5 20t25 29.5t9 37q0 19 -5.5 35t-15.5 32q-6 8 -12.5 16.5t-14.5 17.5q-45 54 -68 96.5t-37 79.5q-2 8 -4 14h185v-288q0 -27 -10.5 -51t-28 -41.5t-41.5 -28t-51 -10.5h-62q-40 0 -75.5 15t-61.5 41.5t-41.5 61.5t-15.5 75v226h175zM653 754h175v-254
h-175v254z" />
    <glyph glyph-name="uniF257" unicode="NE" horiz-adv-x="2158" 
d="M1313 595q-47 6 -85 26.5t-61.5 52.5t-31.5 74t5 92q9 33 28.5 59t46 43t58 26t63.5 9h756v-181h-72q-185 -1 -318.5 -1.5t-226.5 -1.5q-23 13 -50 30t-56 42q-25 20 -47.5 34t-51.5 14q-24 0 -41.5 -11t-29 -28.5t-17 -39t-5.5 -42.5q0 -5 0.5 -9.5t0.5 -9.5h47.5
t83.5 0.5t102.5 0.5h104.5h63h52.5t37 -0.5t17.5 -0.5q44 -6 77.5 -28.5t56 -56t33.5 -74.5t11 -82q1 -50 -10 -98t-33.5 -86.5t-56 -62.5t-77.5 -24h-557q0 56 17.5 90.5t48.5 54t73 28t91 11.5h463v150h-510zM288 261v138t0.5 144t0.5 135v112v96v91h750v-716h-101
q-28 36 -51.5 79t-35.5 88v355h-24l-353 4v-526h-186zM1358 58q-97 7 -156.5 54.5t-69.5 126.5h557l212 1v266h191v-267v-181h-191h-543zM70 977h192v-149q-1 -62 -1 -132.5v-130.5q0 -70 -1 -139q-12 -35 -32.5 -75.5t-58.5 -89.5h-66v-22h48q-20 -24 -33.5 -46.5
t-13.5 -51.5q0 -20 9.5 -37.5t25.5 -30t37.5 -20t45.5 -7.5q19 0 36 3q8 2 15.5 4.5l13.5 4.5v75.5t1 105.5h186v-22q-2 -36 -4.5 -67t-14.5 -52q-22 -40 -54.5 -60t-63.5 -28q-36 -10 -75 -10q-36 0 -70.5 9.5t-61.5 28.5t-43.5 48.5t-16.5 69.5v821zM652 261v493h175v-493
h-175zM827 239v-192q14 -8 32 -11t35 -3q24 0 45.5 7.5t37.5 20.5t25.5 30.5t9.5 37.5q0 31 -15 54.5t-34 45.5q-2 3 -4 5.5t-4 4.5h84v-108q0 -34 -15.5 -62t-41.5 -46h1110v-23h-1246q-40 0 -75.5 15t-61.5 41.5t-41.5 61.5t-15.5 75v46h175z" />
    <glyph glyph-name="uniF258" unicode="NO" horiz-adv-x="2209" 
d="M237 2q-33 3 -63 14t-53 30t-36.5 46.5t-13.5 63.5v821h192v-149q-1 -62 -1 -132.5v-130.5q0 -70 -1 -139q-13 -39 -36 -83.5t-70 -100.5q-22 -25 -36 -48.5t-14 -52.5q0 -20 9.5 -37.5t25.5 -30t37.5 -20t45.5 -7.5q17 0 33.5 2.5t31.5 9.5v83.5v118t0.5 138.5t0.5 144
t0.5 135.5t0.5 112.5v96v91h750v-788q0 -38 -20.5 -69t-55.5 -47q-25 -11 -53 -13.5t-55 -1.5q-23 0 -45.5 3.5t-42.5 13.5q-52 23 -83.5 71t-31.5 105v503h175v-650q5 -2 11 -4l12 -4q11 -2 21 -3t23 -1q24 0 45.5 7.5t37.5 20t25 29.5t9 37q0 19 -5.5 35t-15.5 32
q-6 8 -12.5 16.5t-14.5 17.5q-17 19 -34 43t-32.5 50.5t-27.5 53.5t-18 53v296h-24l-353 4v-570q-2 -36 -4.5 -67t-14.5 -52q-15 -28 -36 -45.5t-44 -28.5h1119q-78 24 -143.5 69t-113.5 106t-74.5 135t-26.5 155q0 98 38.5 185t105.5 153t157.5 106t194.5 44v-78
q-16 -23 -36.5 -36t-44 -22t-47.5 -17.5t-47 -22t-42.5 -36t-33.5 -58.5q-10 -27 -18 -55t-21.5 -59.5t-36 -68.5t-60.5 -80q-22 -25 -36.5 -47.5t-14.5 -51.5q0 -20 9.5 -36.5t26 -29.5t38.5 -20t47 -7q53 0 82 20.5t41.5 54.5t13.5 77.5t-1 90.5t-4 93t6 85q6 28 22 51
t39.5 39.5t52 26t59.5 11.5q35 1 69.5 -6.5t62.5 -24t47.5 -41t25.5 -56.5q8 -39 6.5 -85t-4 -93t-1 -91t14 -78t41.5 -54.5t82 -20.5q25 0 47 7t38.5 20t26 30t9.5 37q0 29 -14.5 51.5t-36.5 47.5q-38 43 -60.5 79.5t-36 68t-22 60t-18.5 55.5q-14 36 -33.5 58t-42 35.5
t-46.5 22t-47.5 18t-44 22.5t-36.5 36v77h2q103 -4 193 -44t157 -105.5t105.5 -152.5t38.5 -185q0 -99 -38.5 -185.5t-105.5 -152.5t-157 -106t-193 -45v763h-25v-762h-1385q-7 0 -9 1z" />
    <glyph glyph-name="uniF259" unicode="NS" horiz-adv-x="2164" 
d="M1231 611q-38 21 -58 53t-28 61q-10 34 -9 71q0 34 8.5 66.5t27.5 58t48 41t68 15.5h806v-181l-542 1q-37 13 -81 34.5t-99 66.5q-24 20 -47 33.5t-52 13.5q-19 0 -36 -9t-29.5 -24t-19.5 -35.5t-7 -43.5q0 -17 2 -31t9 -31q175 -1 309.5 -1t234.5 -0.5t168.5 -0.5h110.5
h60.5h18.5v-711h-806q-39 0 -67.5 15t-47 40t-28 57t-9.5 66h767v173v3q1 5 1 9.5v6.5v9v156h-556q-35 4 -66 5.5t-51 12.5zM288 258v139t0.5 144t0.5 136v113v96v91h750v-719h-99q-29 38 -53 81t-36 89v355h-24l-353 4v-529h-186zM262 977v-149q-1 -62 -1 -132.5v-130.5
q0 -70 -1 -139q-12 -36 -32.5 -76.5t-61.5 -91.5h-62v-22h44q-19 -23 -31.5 -45t-12.5 -50q0 -20 9.5 -37.5t25.5 -30t37.5 -20t45.5 -7.5q19 0 36 3q8 2 15.5 4.5l13.5 4.5v74t1 104h186v-19q-2 -36 -4.5 -67t-14.5 -52q-22 -40 -54.5 -60t-63.5 -28q-36 -10 -75 -10
q-36 0 -70.5 9.5t-61.5 28.5t-43.5 48.5t-16.5 69.5v821h192zM1136 258q3 35 19.5 65t42.5 52.5t60 35.5t73 13h354v147h192v-313h-741zM652 258v496h175v-496h-175zM846 0q-40 0 -75.5 15t-61.5 41.5t-41.5 61.5t-15.5 75v43h175v-189q14 -8 32 -11t35 -3q24 0 45.5 7.5
t37.5 20.5t25.5 30.5t9.5 37.5q0 31 -15 54.5t-34 45.5l-5 7h81v-105q0 -34 -15 -62t-41 -46h1111v-23h-1248z" />
    <glyph glyph-name="uniF260" unicode="NT" horiz-adv-x="2164" 
d="M263 977v-149q-1 -62 -1 -132.5v-130.5q0 -70 -1 -139q-13 -39 -36 -83.5t-70 -100.5q-22 -25 -36 -48.5t-14 -53.5q0 -20 9.5 -37t25.5 -29.5t37.5 -20t45.5 -7.5q19 0 36 3t29 9v83v118.5t0.5 138.5t0.5 144t0.5 135.5t0.5 112.5v96v91h750v-788q0 -27 -10.5 -51
t-28 -42t-41.5 -28t-51 -10h-62q-40 0 -75.5 15t-61.5 41.5t-41.5 61.5t-15.5 75v502h175v-649q14 -8 32 -10.5t35 -2.5q24 0 45.5 7.5t37.5 20t25 30t9 37.5q0 32 -14.5 55t-33.5 46q-36 42 -67 93.5t-45 105.5v297h-24l-353 4v-571q-2 -36 -4.5 -67t-14.5 -51
q-15 -28 -36.5 -46t-44.5 -29h1258v534h-307l-192 1v419h977v-194h-568q-19 7 -39.5 15.5t-43 21.5t-47 30.5t-52.5 42.5q-25 22 -47.5 36t-51.5 14q-20 0 -37 -9.5t-29.5 -26t-20 -38t-7.5 -46.5q0 -11 1 -21t3 -19q2 -6 3.5 -12t3.5 -11h652v-553q0 -41 -15 -77t-41 -64
t-60.5 -45t-74.5 -20q-2 -1 -7 -1h-1382q-34 0 -66.5 10.5t-57.5 30.5t-40.5 48.5t-15.5 65.5v822h192zM1611 535v-477q-41 2 -77 19.5t-62.5 46t-41.5 65t-15 77.5v269h196z" />
    <glyph glyph-name="uniF261" unicode="NG" horiz-adv-x="2171" 
d="M1414 58q-56 0 -106 23t-87.5 60.5t-59.5 84t-22 94.5v199h129q20 -12 35.5 -32t28.5 -44.5t26.5 -50.5t30 -50t38 -43.5t51.5 -30.5q36 -13 64.5 -20t52.5 -13.5t46.5 -14t45.5 -19.5t48.5 -31t57.5 -49q15 -12 30.5 -20t34.5 -12q12 -4 27 -4q16 0 35 7
q30 12 49.5 40.5t19.5 66.5q0 15 -4 30.5t-12 28.5q-10 19 -24.5 30.5t-32 17.5t-37.5 8t-39 2q-20 0 -42.5 -2t-47.5 -4q-26 -2 -51 -3t-49 -1q-35 0 -67 3t-59 10q-34 9 -60.5 28.5t-44.5 46.5t-27.5 59.5t-9.5 65.5h720v-461h-688zM1139 715q0 43 12.5 89t38 84.5
t64 63.5t91.5 25h526q59 0 113 -25t83 -78q26 -46 27.5 -98.5t-24.5 -98.5q-38 -68 -103.5 -102t-148.5 -34h-435q8 57 41 98.5t78 59.5q30 13 69 16t71 3q26 0 53 -1t55 -2q34 -3 65 -3q32 0 58 3.5t48 12.5q17 5 31 16t23.5 25.5t15 31.5t5.5 35q0 24 -8 44.5t-22.5 35.5
t-33.5 24t-40 9q-28 0 -48 -11t-39 -28.5t-41.5 -38.5t-55.5 -41t-81 -37t-117 -26q-42 -5 -76.5 -33t-60.5 -64q-8 -11 -16.5 -27.5t-20 -35t-27 -36t-36.5 -30.5h-134v174zM71 977h192v-217.5t-2 -218.5h-147v-22h147v-93q-13 -39 -36 -83.5t-70 -100.5q-22 -25 -36 -48.5
t-14 -52.5q0 -20 9.5 -37.5t25.5 -30t37.5 -20t45.5 -7.5q19 0 36 3q8 2 15.5 4.5l13.5 4.5v80t0.5 111.5t0.5 131v138.5h186v-302q-2 -36 -4.5 -67t-14.5 -52q-15 -28 -37 -46t-45 -29h1728v-23h-1826h-13q-36 0 -70.5 9.5t-61.5 28.5t-43.5 48.5t-16.5 69.5v821zM289 541
q1 72 1 136.5v112.5v96v91h750v-436h-188v242h-24l-353 4v-246h-186zM828 519v-415q5 -2 11 -4l12 -4q11 -2 21 -3t23 -1q24 0 45.5 7.5t37.5 20t25 29.5t9 37q0 19 -5.5 35t-15.5 32q-6 8 -12.5 16.5t-14.5 17.5q-17 19 -34 43t-32.5 50.5t-27.5 53.5t-18 53v32h188v-330
q0 -27 -10.5 -51t-28 -41.5t-41.5 -28t-51 -10.5h-62q-40 0 -75.5 15t-61.5 41.5t-41.5 61.5t-15.5 75v268h175zM653 541v213h175v-213h-175z" />
    <glyph glyph-name="uniF262" unicode="OC" horiz-adv-x="2206" 
d="M759 506q-3 -48 -3 -94t12.5 -82t41.5 -57.5t84 -21.5q25 0 46.5 7.5t38 20t26 29.5t9.5 37q0 29 -14 51.5t-36 47.5q-31 34 -49 62h158v-17q0 -81 -26.5 -155t-74.5 -135t-113.5 -106t-143.5 -69h1224v438h-24v-404h-309q-38 0 -83.5 12.5t-93 37t-92.5 62t-81 87
t-59 112t-26 137.5h155q20 -12 35.5 -32t29 -44.5t26.5 -50.5t30 -50t39 -43t52 -30q31 -11 57 -18.5t48 -13t42 -11.5t40 -14q-2 25 -2.5 48.5t0.5 45.5q1 44 9.5 81t31.5 63.5t63.5 41t103.5 14.5q37 0 73 -7.5t64.5 -25t45.5 -46.5t17 -72q0 -19 0.5 -43.5t1 -52.5t1 -57
t0.5 -56q1 -64 1 -133h-196v1h-1350q-2 0 -5 -0.5t-5 -0.5v506h180zM1171 528q0 31 3 56t9 48t15.5 46.5t22.5 50.5q28 48 66.5 91.5t89 77.5t112 55.5t135.5 24.5h290v-410h23v410h191v-288q-7 -78 -53 -118t-147 -44q-60 0 -99 13t-62.5 36.5t-34 56.5t-12.5 73
q-2 20 -1.5 42t1.5 45q-29 -12 -65.5 -21.5t-84.5 -15.5q-42 -5 -77 -33.5t-61 -64.5q-8 -11 -17 -28t-21 -35.5t-28 -36.5t-39 -31h-156zM553 1q-103 4 -193 44t-157 106t-105.5 153t-38.5 186q0 98 38.5 184.5t106 152.5t157.5 106t194 44v-77q-16 -23 -36.5 -36
t-43.5 -22.5t-47.5 -18t-47 -22t-42 -35.5t-33.5 -58q-8 -20 -14 -40.5t-13.5 -42.5t-18.5 -46t-27 -51h-141v-22h126q-11 -14 -22.5 -29.5t-26.5 -31.5q-22 -25 -36 -48t-14 -52q0 -20 9.5 -36.5t26 -29.5t38 -20t46.5 -7q55 0 84 21.5t41.5 57t13 81.5t-2.5 94h179v-505z
M577 977q1 0 1 -0.5t1 -0.5q98 -4 184 -40t152 -96t107 -140.5t49 -171.5h-171q-17 27 -27.5 50.5t-18 45.5t-14 42.5t-13.5 40.5q-14 36 -33.5 58.5t-42 36t-47 22t-47.5 17.5t-43.5 22t-36.5 36v78zM373 528q-2 39 -2.5 76.5t6.5 69.5q5 28 21.5 51t39.5 39t52 25.5
t60 12.5q35 1 69 -7t62.5 -24.5t48 -41t25.5 -56.5q7 -32 7 -69t-2 -76h-181v236h-26v-236h-180z" />
    <glyph glyph-name="uniF263" unicode="OF" horiz-adv-x="2170" 
d="M760 553q-2 -54 -4.5 -108t8 -97t39.5 -70t91 -27q25 0 46.5 7.5t38 20t26 29.5t9.5 37q0 29 -14 51.5t-36 47.5q-27 30 -45.5 57t-32.5 52h182q2 -16 3.5 -32t1.5 -32q0 -82 -27 -156t-74.5 -135t-113.5 -106t-144 -69h455v530h805l1 23h-806v401h962v-191h-516
q-47 14 -79.5 32t-56.5 37.5t-42 38t-34.5 33t-35 23.5t-42.5 9t-43 -9.5t-32.5 -25t-21.5 -36t-9 -41.5q-2 -38 16 -70t59 -46q15 -5 30 -5q19 0 40 5t40 11.5t35.5 12t28.5 6.5q29 2 76.5 3t100.5 1q33 0 65.5 -0.5t61 -2t51 -4t35.5 -5.5q10 -3 23 -8q50 -22 85 -72.5
t36 -118.5v-10q-1 -38 -13.5 -71t-35 -57.5t-53.5 -39.5t-69 -16l-465 -4v-356h-783h-4v553h181zM553 1q-103 4 -193 44t-157 106t-105.5 153t-38.5 185t38.5 185t106 153t157.5 106t194 44v-78q-16 -23 -36.5 -36t-43.5 -22t-47.5 -17.5t-47 -22t-42 -36t-33.5 -58.5
q-11 -29 -20.5 -61.5t-26.5 -69.5h-160v-23h148q-13 -24 -32 -51t-46 -57q-22 -26 -36 -48.5t-14 -51.5q0 -20 9.5 -36.5t26 -29.5t38 -20t46.5 -7q41 0 67.5 12.5t41.5 33.5t21.5 50.5t8 62.5t-1 69.5t-3.5 72.5h181v-552zM578 976q92 -4 173.5 -36t146 -85t108 -124.5
t59.5 -154.5h-191q-17 37 -26.5 69t-20.5 62q-14 36 -33.5 58t-42 35.5t-47 22t-47.5 18t-43.5 22.5t-36.5 36zM371 576q-1 26 0 50.5t6 46.5q5 28 21.5 51t39.5 39.5t52 26t60 11.5q35 1 69 -6.5t62.5 -24t48 -41t25.5 -56.5q5 -23 6 -47t0 -50h-182v187h-26v-187h-182z
" />
    <glyph glyph-name="uniF264" unicode="OM" horiz-adv-x="2215" 
d="M553 1q-103 4 -193 44t-157 106t-105.5 153t-38.5 185t38.5 185t106 153t157.5 106t194 44v-78q-16 -23 -36.5 -36t-43.5 -22t-47.5 -17.5t-47 -22t-42 -36t-33.5 -58.5q-10 -27 -18.5 -55t-22 -59.5t-35.5 -68t-61 -79.5q-22 -26 -36 -48.5t-14 -51.5q0 -20 9.5 -36.5
t26 -29.5t38 -20t46.5 -7q53 0 82 20.5t42 54.5t14 77.5t-1.5 90.5t-4 93t6.5 85q5 28 21.5 51t39.5 39.5t52 26t60 11.5q35 1 69 -6.5t62.5 -24t48 -41t25.5 -56.5q8 -39 6.5 -85t-3.5 -93t-1 -91t13.5 -78t41.5 -54.5t82 -20.5q25 0 46.5 7.5t38 20t26 29.5t9.5 37
q0 29 -14 51.5t-36 47.5q-38 43 -60.5 79.5t-36 68t-22 60t-18.5 55.5q-14 36 -33.5 58t-42 35.5t-47 22t-47.5 18t-43.5 22.5t-36.5 36l1 77q103 -4 193.5 -44t157.5 -105.5t105.5 -152.5t38.5 -185q0 -82 -27 -156t-74.5 -135t-113.5 -106t-144 -69h1232v551
q21 62 50 98.5t55.5 62.5t44.5 49t18 58q0 22 -9.5 41t-26 33t-38.5 22.5t-47 8.5q-36 0 -69.5 -20t-45.5 -55q-14 -33 -16 -76.5t3 -94.5q3 -64 3 -122.5t-12 -104.5q-2 -5 -4 -10.5t-4 -10.5q-19 -44 -60.5 -76.5t-97.5 -40.5q-11 -2 -21.5 -3t-21.5 0q-32 0 -64.5 10
t-60.5 28.5t-48.5 44.5t-29.5 58q-13 46 -13.5 104.5t4.5 122.5q5 45 6 83t-6 67q-5 24 -19.5 43t-35.5 29q-28 16 -61 17q-23 0 -45 -7t-39 -20.5t-28 -33t-11 -44.5q0 -14 4 -25q3 -20 12 -36t22 -31q37 -37 58.5 -65.5t34 -54.5t20 -52.5t16.5 -57.5v-455h-197v919h274
q36 0 72.5 -21t65 -57t46.5 -83.5t18 -101.5v-355h24v355q0 53 15 100.5t42.5 83.5t65.5 57.5t84 21.5h271v-977h-1560h-5v763h-26v-762v0z" />
    <glyph glyph-name="uniF265" unicode="ON" horiz-adv-x="2210" 
d="M59 490q0 98 38.5 185t106 153t157.5 105.5t194 43.5v-77q-16 -23 -36.5 -36t-43.5 -22t-47.5 -17.5t-47 -22t-42 -36t-33.5 -58.5q-10 -27 -18.5 -55t-22 -60t-35.5 -68.5t-61 -79.5q-22 -25 -36 -47.5t-14 -51.5q0 -20 9.5 -37t26 -29.5t38 -20t46.5 -7.5q53 0 82 20.5
t42 54.5t14 78t-1.5 91t-4 93t6.5 85q5 28 21.5 51t39.5 39.5t52 26t60 11.5q35 1 69 -6.5t62.5 -24t48 -41.5t25.5 -57q8 -39 6.5 -85t-3.5 -93t-1 -90.5t13.5 -77.5t41.5 -54.5t82 -20.5q25 0 46.5 7t38 20t26 29.5t9.5 36.5q0 29 -14 51.5t-36 47.5q-38 43 -60.5 80
t-36 68.5t-22 59.5t-18.5 55q-14 36 -33.5 58.5t-42 36t-47 22t-47.5 17.5t-43.5 22t-36.5 36l1 78q103 -5 193.5 -44.5t157.5 -105.5t105.5 -153t38.5 -185q0 -81 -27 -155t-74.5 -135t-113 -106t-143.5 -69h1138q-45 25 -73 70t-28 99v561h176v-707q13 -8 32.5 -11
t33.5 -3q24 0 45.5 7.5t37.5 20.5t25 30t9 37q0 19 -5.5 35t-15.5 31q-6 9 -12.5 17.5t-14.5 17.5q-37 43 -67.5 93.5t-44.5 105.5v355h-23l-353 4v-513q-4 -35 -6 -66t-13 -52q-23 -40 -55.5 -60.5t-63.5 -28.5q-36 -10 -75 -9q-36 0 -70.5 9.5t-61.5 28.5t-43.5 48
t-16.5 69v764h192v-149q-1 -62 -1 -123v-111q0 -58 -1 -111q-13 -38 -36 -83t-70 -100q-22 -26 -36 -49t-14 -52q0 -20 9.5 -37t25.5 -30.5t37.5 -21t45.5 -7.5q17 0 33.5 3t31.5 10q0 31 0.5 79t0.5 107t0.5 124.5t0.5 130.5v125v108v96v91h750v-846q0 -27 -10.5 -51
t-28 -42t-41.5 -28t-51 -10h-62h-8t-8 1h-1342h-9v763h-26v-763q-103 4 -193 44t-157 106t-105.5 153t-38.5 186z" />
    <glyph glyph-name="uniF266" unicode="OO" horiz-adv-x="2187" 
d="M59 519q5 103 45 193.5t106 157t152.5 105t185.5 38.5q98 0 185 -38.5t153 -105t105.5 -157t44.5 -194.5l-78 -1q-23 16 -36 36.5t-22 44t-17.5 47.5t-22 47t-35.5 42.5t-58 33.5q-27 10 -55.5 18t-60.5 21.5t-68.5 36t-79.5 60.5q-24 22 -47 36.5t-52 14.5
q-20 0 -37 -9.5t-29.5 -26t-20 -38.5t-7.5 -47q0 -43 14 -69.5t38 -41.5t57.5 -20.5t72.5 -5.5t80.5 2.5t80.5 2.5q42 0 80 -6q32 -6 56.5 -26t41 -48t24 -62.5t5.5 -69.5q-2 -30 -11.5 -59t-26 -52t-39 -39.5t-50.5 -21.5q-34 -7 -78 -7q-39 0 -81 3t-82 3q-37 0 -70 -5
t-57.5 -20t-39 -42t-14.5 -71q0 -25 7.5 -47t20 -38.5t29.5 -26t36 -9.5q29 0 52 14.5t48 36.5q43 38 79.5 60.5t68.5 36t60 22t55 18.5q36 14 58.5 33.5t36 42t22 46.5t17.5 47.5t21.5 44t35.5 36.5h79q-3 -83 -30 -158.5t-72 -137t-106 -107t-133 -69.5h780
q-80 24 -146 69.5t-113 107t-73.5 136.5t-26.5 159h150q-9 -12 -19.5 -24.5t-21.5 -26.5q-22 -25 -36.5 -47.5t-14.5 -51.5q0 -20 9.5 -37t26 -29.5t38.5 -20t47 -7.5q53 0 81.5 20.5t41.5 54.5t14 78t-1 91h179v-495h-1033q-8 -1 -15 -1h-15q-98 0 -185 38.5t-153 105.5
t-106 157t-44 193h763v25h-764zM1885 707q-14 36 -33.5 58.5t-42.5 36t-47 22t-47.5 17.5t-44 22t-36.5 36v78q104 -5 194.5 -44.5t157.5 -105.5t105.5 -153t38.5 -185t-38.5 -185t-105.5 -153t-157 -106t-193 -44v495h179q-2 -47 -1 -91t13.5 -78t41.5 -54.5t82 -20.5
q25 0 47 7t38 20t25.5 29.5t9.5 36.5q0 29 -14 51.5t-36 47.5q-12 14 -22 27t-19 25h120v22h-136q-19 28 -31 53.5t-20 49t-14.5 44.5t-13.5 42zM1118 518q6 94 46.5 176t106.5 143.5t153.5 98.5t187.5 41v-77q-16 -23 -36.5 -36t-43.5 -22t-47.5 -17.5t-47 -22t-42 -36
t-32.5 -58.5q-8 -21 -14.5 -42.5t-15 -44.5t-20.5 -48.5t-31 -54.5h-164zM1431 518q-3 42 -3.5 81.5t6.5 74.5q6 28 22 51t39.5 39.5t52 26t59.5 11.5q35 1 69 -6.5t62 -24t48 -41.5t27 -57q7 -34 6 -73.5t-3 -81.5h-180v246h-25v-246h-180z" />
    <glyph glyph-name="uniF267" unicode="OP" horiz-adv-x="2202" 
d="M553 1q-103 4 -193 44t-157 106t-105.5 153t-38.5 185t38.5 185t106 153t157.5 106t194 44v-78q-16 -23 -36.5 -36t-43.5 -22t-47.5 -17.5t-47 -22t-42 -36t-33.5 -58.5q-10 -27 -18.5 -55t-22 -59.5t-35.5 -68.5t-61 -80q-22 -25 -36 -47.5t-14 -51.5q0 -20 9.5 -36.5
t26 -29.5t38 -20t46.5 -7q53 0 82 20.5t42 54.5t14 77.5t-1.5 90.5t-4 93t6.5 85q5 28 21.5 51t39.5 39.5t52 26t60 11.5q35 1 69 -6.5t62.5 -24t48 -41t25.5 -56.5q8 -39 6.5 -85t-3.5 -93t-1 -91t13.5 -78t41.5 -54.5t82 -20.5q25 0 46.5 7t38 20t26 30t9.5 37
q0 29 -14 51.5t-36 47.5q-38 43 -60.5 79.5t-36 68t-22 60t-18.5 55.5q-14 36 -33.5 58t-42 35.5t-47 22t-47.5 18t-43.5 22.5t-36.5 36l1 77q103 -4 193.5 -44t157.5 -105.5t105.5 -152.5t38.5 -185q0 -82 -27 -156t-74.5 -135t-113 -106t-143.5 -69h675v230h196v-253
l-997 1q-4 -1 -10 -1v763h-26v-762zM1365 576q-59 0 -101 29.5t-65 74.5t-25.5 96.5t17 96.5t63 74.5t112.5 29.5h643q31 0 56.5 -13t43.5 -33t28.5 -44.5t10.5 -48.5v-419q0 -29 -11.5 -54t-31 -44t-44.5 -30t-52 -11h-642v-222h-196v414h579q38 -13 81.5 -36.5t97.5 -71.5
q24 -21 47.5 -35.5t52.5 -14.5q19 0 36 9.5t29.5 26t19.5 38.5t7 47q0 22 -3 37q-9 47 -38.5 68t-71.5 28q-23 3 -37 20t-14 40q0 20 13 36t33 20q49 9 79.5 38t30.5 94q0 25 -7.5 47t-20 38.5t-29.5 26t-36 9.5q-29 0 -52 -14.5t-47 -36.5q-45 -39 -82 -60.5t-69 -35.5
h-567v-23h383v-191h-221z" />
    <glyph glyph-name="uniF268" unicode="OR" horiz-adv-x="2218" 
d="M59 489q0 98 38.5 185t106 153t157.5 106t194 44v-78q-16 -23 -36.5 -36t-43.5 -22t-47.5 -17.5t-47 -22t-42 -36t-33.5 -58.5q-10 -27 -18.5 -55t-22 -59.5t-35.5 -68.5t-61 -80q-22 -25 -36 -47.5t-14 -51.5q0 -20 9.5 -36.5t26 -29.5t38 -20t46.5 -7q53 0 82 20.5
t42 54.5t14 77.5t-1.5 90.5t-4 93t6.5 85q5 28 21.5 51t39.5 39.5t52 26t60 11.5q35 1 69 -6.5t62.5 -24t48 -41t25.5 -56.5q8 -39 6.5 -85t-3.5 -93t-1 -91t13.5 -78t41.5 -54.5t82 -20.5q25 0 46.5 7t38 20t26 30t9.5 37q0 29 -14 51.5t-36 47.5q-38 43 -60.5 79.5t-36 68
t-22 60t-18.5 55.5q-11 30 -25 47h187q40 -57 62 -124t22 -141q0 -82 -27 -156t-74.5 -135t-113 -106t-143.5 -69h933v453q22 -7 52.5 -15.5t65 -21t70.5 -32t69 -48.5q26 -22 48.5 -36t51.5 -14q19 0 36 9.5t29.5 26t20 38t7.5 46.5q0 62 -27 91t-71 40q-23 5 -37.5 23.5
t-14.5 41.5q0 13 4 24t11 21q16 18 39 25q41 11 66.5 39.5t25.5 88.5q0 25 -7.5 47t-20 38.5t-29.5 26t-36 9.5q-29 0 -52 -14.5t-47 -35.5q-61 -53 -109 -77.5t-88 -37.5h-535v3q0 94 49.5 144.5t145.5 50.5h642q31 0 57 -12t44.5 -32t28.5 -45t10 -50v-419q0 -26 -11 -51
t-30.5 -44.5t-45 -31.5t-53.5 -12h-279v-89h419v-191h-1562h-6v763h-26v-762q-103 4 -193 44t-157 106t-105.5 153t-38.5 185zM1366 58q-41 0 -76.5 15.5t-62 42.5t-42 63t-15.5 77v498h197v-667h23v667h195v-500q0 -41 -15.5 -76.5t-42 -62t-62.5 -42t-76 -15.5h-23z
M780 779q-24 22 -52 34t-55.5 22t-52.5 23.5t-43 40.5l1 77q61 -3 117 -18t106.5 -40.5t93 -60.5t76.5 -78h-191z" />
    <glyph glyph-name="uniF269" unicode="OT" horiz-adv-x="2197" 
d="M579 0v535h181q-3 -52 -4.5 -103t10 -91t40.5 -65t88 -25q25 0 46.5 7t38 20t26 30t9.5 37q0 29 -14 51.5t-36 47.5q-23 25 -39 47.5t-29 43.5h175q1 -12 1.5 -23.5t0.5 -22.5q0 -81 -26.5 -155t-74 -135t-113 -106t-143.5 -69h952v534h-308l-153 1h-40v418h978v-194
h-568q-38 14 -82.5 37.5t-100.5 72.5q-24 22 -47 36t-52 14q-19 0 -36 -9.5t-30 -26t-20.5 -38t-7.5 -46.5q0 -20 5 -40q1 -6 2.5 -12t3.5 -11h652v-553q0 -41 -15 -77.5t-41.5 -64.5t-62 -45t-75.5 -20h-1087h-4zM59 489q0 98 38.5 185t106 153t157.5 106t194 44v-78
q-16 -23 -36.5 -36t-43.5 -22t-47.5 -17.5t-47 -22t-42 -36t-33.5 -58.5q-13 -34 -23 -69.5t-33 -78.5h-145v-24h132q-12 -20 -28.5 -43t-39.5 -47q-22 -26 -36 -48.5t-14 -51.5q0 -20 9.5 -36.5t26 -29.5t38 -20t46.5 -7q59 0 88.5 25t40.5 65t10 90.5t-4 102.5h180v-534
q-103 4 -193 44t-157 106t-105.5 153t-38.5 185zM578 976q94 -4 177.5 -37.5t148 -89.5t107.5 -130.5t56 -159.5h-184q-23 43 -33 78.5t-23 69.5q-14 36 -33.5 58t-42 35.5t-47 22t-47.5 18t-43.5 22.5t-36.5 36zM1449 535h195v-477q-41 3 -77 20.5t-62 45t-41 64t-15 78.5
v269zM372 559q-2 30 -1 59t6 55q5 28 21.5 51t39.5 39.5t52 26t60 11.5q35 1 69 -6.5t62.5 -24t48 -41t25.5 -56.5q5 -26 6 -55t0 -59h-182v204h-26v-204h-181z" />
    <glyph glyph-name="uniF270" unicode="OU" horiz-adv-x="2204" 
d="M59 489q0 98 38.5 185t106 153t157.5 106t194 44v-78q-16 -23 -36.5 -36t-43.5 -22t-47.5 -17.5t-47 -22t-42 -36t-33.5 -58.5q-10 -27 -18.5 -55t-22 -59.5t-35.5 -68t-61 -79.5q-22 -26 -36 -48.5t-14 -51.5q0 -20 9.5 -36.5t26 -29.5t38 -20t46.5 -7q53 0 82 20.5
t42 54.5t14 77.5t-1.5 90.5t-4 93t6.5 85q5 28 21.5 51t39.5 39.5t52 26t60 11.5q35 1 69 -6.5t62.5 -24t48.5 -41t26 -56.5q8 -39 6.5 -85t-4 -93t-1.5 -91t13.5 -78t41.5 -54.5t82 -20.5q25 0 46.5 7.5t38 20t26 29.5t9.5 37q0 29 -14 51.5t-36 47.5q-38 43 -60.5 79.5
t-36 68t-22 60t-18.5 55.5q-14 36 -33.5 58t-42 35.5t-47 22t-47.5 18t-43.5 22.5t-36.5 36l1 77q103 -4 193.5 -44t157.5 -105.5t105.5 -152.5t38.5 -185q0 -81 -26.5 -155t-74 -135t-113 -106.5t-143.5 -69.5h1424v-22h-1551q-3 -1 -10 -1v763h-26v-762q-103 4 -193 44
t-157 106t-105.5 153t-38.5 185zM1363 972v-464q9 -30 16 -57.5t15 -53.5q14 -43 33.5 -69.5t42 -43t46.5 -26t47 -20.5t43.5 -27t36.5 -43v-74l23 -1v76q16 27 36.5 42.5t43.5 26.5t47.5 21t47 26.5t42 42.5t33.5 70q10 32 18 65.5t21.5 71.5t36 81.5t61.5 94.5
q22 30 36 57t14 62q0 23 -9.5 43t-26 35t-38 23.5t-46.5 8.5q-53 0 -82 -24.5t-42 -64.5t-14 -92.5t1.5 -108t4 -111t-6.5 -101.5q-6 -36 -23.5 -64t-43 -47.5t-56.5 -30t-64 -11.5v687h483v-458q0 -95 -38 -178t-104 -144.5t-154.5 -97.5t-188.5 -36q-94 0 -181 33.5
t-154 93t-107.5 141.5t-41.5 180l-1 61v405h193z" />
    <glyph glyph-name="uniF271" unicode="OW" horiz-adv-x="2215" 
d="M553 1q-103 4 -193 44t-157 106t-105.5 153t-38.5 186q0 98 38.5 185t106 153t157.5 106t194 44v-78q-16 -23 -36.5 -36t-43.5 -22t-47.5 -17.5t-47 -22t-42 -36t-33.5 -58.5q-10 -27 -18.5 -55.5t-22 -60t-35.5 -68t-61 -79.5q-22 -25 -36 -47.5t-14 -51.5
q0 -20 9.5 -37t26 -30t38 -20t46.5 -7q53 0 82 20.5t42 54.5t14 78t-1.5 91t-4 93t6.5 85q5 28 21.5 51t39.5 39.5t52 26t60 11.5q35 1 69 -6.5t62.5 -24t48 -41.5t25.5 -57q8 -39 6.5 -85t-3.5 -93t-1 -91t13.5 -78t41.5 -54.5t82 -20.5q25 0 46.5 7.5t38 20t26 29.5
t9.5 37q0 29 -14 51.5t-36 47.5q-38 43 -60.5 80t-36 68.5t-22 59.5t-18.5 55q-14 36 -33.5 58.5t-42 36t-47 22t-47.5 18t-43.5 22.5t-36.5 36l1 77h1h1h744q66 0 124.5 -24t102 -65t69 -96t25.5 -118v-357h24v357q0 63 25.5 118t69 96t102 65t125.5 24h155v-788
q0 -29 -12 -53t-31.5 -41t-44.5 -27t-52 -10h-619v350q1 -4 1.5 -6.5t1.5 -5.5q13 -41 30.5 -66.5t38.5 -42t43 -26.5l44 -20q27 -11 51 -27t43 -48v-77h21v77q18 32 42 48t50 27q22 10 45 20.5t43.5 27t38.5 42t32 66.5q4 13 7 25.5t7 26.5v-362h23v441q14 40 36.5 86
t62.5 101q22 29 36.5 56t14.5 62q0 23 -9.5 43.5t-26 36t-38.5 24.5t-47 9q-53 0 -82 -24.5t-41.5 -65.5t-13.5 -94t1 -109.5t3.5 -112t-5.5 -102.5q-6 -38 -26 -67.5t-48 -49.5t-62.5 -30t-69.5 -8q-31 3 -59.5 15t-52 31.5t-39.5 46.5t-21 61q-7 45 -6 99t3 109.5
t1.5 107.5t-11.5 93.5t-36.5 68t-73.5 30.5h-597q14 -5 27 -10.5t27 -12.5q62 -31 113 -76.5t87.5 -101t56.5 -120.5t20 -135q0 -82 -27 -156t-74.5 -135t-113.5 -106t-144 -69h1432v-23h-1566h-1v764h-26v-763zM1168 922h82q-22 -16 -35 -39t-13 -51q0 -34 14.5 -61.5
t36.5 -56.5q50 -68 73 -122t37 -100v-434h-55q-28 0 -53.5 12t-44.5 30.5t-30.5 42t-11.5 46.5v733z" />
    <glyph glyph-name="uniF272" unicode="PA" horiz-adv-x="2245" 
d="M334 578q-59 0 -101 30t-65 74.5t-25.5 96.5t17 96.5t63 74.5t112.5 30h643q31 0 57 -13t44 -33t28.5 -44.5t10.5 -48.5v-420q0 -28 -12 -53.5t-31.5 -44.5t-44.5 -30t-52 -11h-641v-256h1098v549h200v-383q0 -40 -15 -75t-41 -61t-60.5 -41t-74.5 -15h-233l-1071 3v472
h580q37 -14 80.5 -37t97.5 -71q25 -22 47.5 -36t51.5 -14q19 0 36 9.5t30 25.5t20.5 37.5t7.5 46.5q0 59 -27.5 92t-87.5 43q-21 3 -35.5 19.5t-14.5 39.5q0 21 13.5 36.5t33.5 19.5q48 8 78.5 37.5t30.5 95.5q0 25 -7.5 47t-20 38t-29.5 25.5t-36 9.5q-29 0 -52 -14
t-47 -36q-44 -39 -81 -61t-69 -36h-567v-23h382v-191h-221zM1217 550q3 97 30 175.5t83 134t143 85t210 29.5q24 0 68 -0.5t96.5 -10.5t107 -33t101 -66.5t78 -112.5t37.5 -170l7 -580l-225 -1q-40 0 -75.5 15t-61.5 41.5t-41.5 61.5t-15.5 75v382h192v-535l28 -8
q12 -3 25.5 -5t24.5 -2q25 0 46.5 7.5t38 20t26 29.5t9.5 36q0 29 -14 52t-36 48q-32 36 -53 67t-34.5 59t-21.5 52.5t-15 48.5v123q0 56 -31 102.5t-83 66.5q-45 18 -93.5 25.5t-98.5 5.5q-45 -4 -91 -16.5t-83 -37t-60 -62.5t-23 -92v-162q-14 -38 -37.5 -81.5
t-71.5 -98.5q-22 -25 -36 -47.5t-14 -51.5q0 -36 30 -61h-71zM359 58v194h196v-194h-196z" />
    <glyph glyph-name="uniF273" unicode="PR" horiz-adv-x="2267" 
d="M721 472q37 -14 80.5 -37t97.5 -71q24 -21 47 -35.5t52 -14.5q19 0 36 9.5t30 26t20.5 38.5t7.5 47q0 57 -27.5 90t-87.5 43q-21 3 -35.5 20t-14.5 39q0 21 13.5 37t33.5 20q38 6 65 25t38 58h42v-349q0 -28 -12 -53.5t-31.5 -44.5t-44.5 -30t-52 -11h-642v-259h23v233
h196v-230h1141v452q22 -7 53 -15t65.5 -20.5t70.5 -32t69 -48.5q25 -22 48 -36t52 -14q19 0 36 9.5t29.5 26t19.5 38t7 46.5q0 62 -27 91t-71 40q-23 5 -37 23.5t-14 41.5q0 26 15 44.5t38 25.5q41 10 67 39.5t26 88.5q0 25 -7.5 47t-20.5 38.5t-30 26t-36 9.5
q-29 0 -51.5 -14.5t-47.5 -35.5q-50 -45 -90.5 -68t-75.5 -37h-566q2 91 52 139.5t144 48.5h641q31 0 57 -12t44.5 -32t28.5 -45t10 -50v-420q0 -26 -11 -51t-30 -44.5t-44.5 -31.5t-54.5 -12h-279v-89h419v-190h-2055v472h580zM1416 58q-41 0 -77 15.5t-62.5 42t-42 62.5
t-15.5 77v512h198v-681h23v681h194v-513q0 -41 -15.5 -76.5t-42 -62t-62.5 -42t-76 -15.5h-22zM335 575q-59 0 -101 30t-65 74.5t-25.5 96.5t17 96.5t63 74.5t112.5 30h643q31 0 57 -13t44 -33t28.5 -44.5t10.5 -48.5v-49h-37q1 7 1 13v14q0 25 -7.5 47t-20 38.5t-29.5 26
t-36 9.5q-29 0 -52 -14.5t-47 -36.5q-45 -39 -81.5 -61t-68.5 -36h-567v-22h382v-192h-221z" />
    <glyph glyph-name="uniF274" unicode="RA" horiz-adv-x="2175" 
d="M262 0q-40 1 -75 16t-61.5 40t-41.5 58t-15 71v609q0 89 50.5 136.5t145.5 47.5h642q31 0 56.5 -11.5t44 -30t29 -42t10.5 -47.5v-394q0 -25 -11 -48.5t-30 -42t-44.5 -30t-54.5 -11.5h-279v-84h419v-179h-499v448q22 -7 52 -14.5t64.5 -19.5t71 -30t69.5 -46
q25 -20 47.5 -34t51.5 -14q19 0 36 9t30 24.5t20 36.5t7 44q0 58 -26.5 85.5t-70.5 37.5q-23 5 -37.5 22t-14.5 40q0 24 15 41q15 18 39 24q42 10 67 37.5t25 83.5q0 23 -7.5 44t-20 36.5t-29.5 24.5t-36 9q-29 0 -52 -14t-48 -34q-60 -50 -107.5 -72.5t-88.5 -35.5h-338
v-768h1100v552h200v-383q0 -39 -14.5 -73t-39 -60t-58 -41.5t-72.5 -17.5h-8h-1113zM1148 550q3 97 30.5 175.5t83.5 134t143 85t210 29.5q24 0 68 -0.5t96.5 -10.5t107 -33t101 -66.5t78 -112.5t37.5 -170l7 -580l-225 -1q-41 0 -76 15t-61.5 41.5t-41.5 61.5t-15 75v382
h192v-535q13 -4 27 -8q11 -3 25 -5t25 -2q25 0 47 7.5t38.5 20t26 29.5t9.5 36q0 29 -14.5 52t-36.5 48q-32 36 -52.5 67t-34 59t-22 52.5t-15.5 48.5v123q0 56 -30.5 102.5t-82.5 66.5q-91 36 -192 31q-42 -4 -80 -14t-72 -26q-48 -23 -76.5 -68.5t-28.5 -99.5v-162
q-14 -38 -37.5 -81.5t-71.5 -98.5q-22 -25 -36.5 -47.5t-14.5 -51.5q0 -18 8.5 -33.5t22.5 -27.5h-71zM290 768h194v-527q0 -40 -16 -73.5t-43 -58t-62 -38t-73 -13.5v710z" />
    <glyph glyph-name="uniF275" unicode="RD" horiz-adv-x="2176" 
d="M70 794q0 89 50 136.5t146 47.5h642q31 0 56.5 -11.5t44 -30t29 -42t10.5 -47.5v-347h-60q-11 33 -34 55.5t-53 29.5q-23 5 -37.5 22t-14.5 40q0 24 15 41q15 18 39 24q42 10 66.5 37.5t24.5 83.5q0 23 -7 44t-19.5 36.5t-29.5 24.5t-36 9q-29 0 -52 -14t-48 -34
q-60 -50 -107.5 -72.5t-88.5 -35.5h-338v-291h-163v-20h163v-457h876v456l693 -2v23h-693v477h758q52 0 91 -26.5t64.5 -67.5t38 -90t12.5 -95v-419q0 -51 -22 -101t-59.5 -89.5t-88 -64t-106.5 -24.5h-1567q-41 0 -76.5 15t-61.5 40t-41.5 58.5t-15.5 71.5v609zM1251 827
q0 -18 5 -36t14.5 -33.5t23.5 -27t32 -17.5q21 -10 47.5 -13.5t56.5 -3.5q16 0 32.5 0.5t34.5 1.5q28 2 54.5 3t52.5 1q35 0 71 -3.5t70 -16.5q25 -11 47.5 -30.5t39 -46t25.5 -58t8 -66.5q-2 -43 -15 -77.5t-33.5 -60t-45 -42t-48.5 -23.5q-27 -8 -59.5 -10.5t-67.5 -2.5
q-24 0 -48.5 1t-50.5 3q-25 2 -47 3.5t-42 1.5q-17 0 -32.5 -1t-29.5 -5q-23 -4 -42 -18.5t-30 -36.5q-8 -13 -11.5 -28t-4.5 -32q0 -23 7 -45t20.5 -39t33 -28t44.5 -11t48.5 11t42.5 26q48 48 83 71t68.5 35.5t71.5 21.5t92 29q30 11 51.5 31t37.5 44t29.5 50t26.5 50.5
t28 44.5t35 33h100v23h-99q-22 13 -38 34t-28 43t-21.5 42t-16.5 32q-26 38 -60.5 68t-76.5 35q-70 9 -117.5 27t-80.5 39.5t-55.5 44t-41.5 41t-39 30.5t-48 12q-21 0 -40 -9.5t-33.5 -26t-22.5 -38.5t-8 -47zM549 480q1 0 2 -1q22 -6 52 -14t64 -20t70 -30t69 -45
q25 -20 47.5 -33.5t51.5 -13.5q19 0 36 9t30 24t20 35.5t7 44.5t-4 43h54v-52q0 -25 -11 -48.5t-30 -42t-44.5 -30t-54.5 -11.5h-279v-58h419v-179h-499v422zM485 241q0 -40 -16 -73.5t-43 -58t-62 -38t-73 -13.5v422l194 -1v-238zM291 500v268h194v-268h-194z" />
    <glyph glyph-name="uniF276" unicode="RE" horiz-adv-x="2177" 
d="M237 2q-36 5 -66.5 21.5t-53 41t-35 55t-12.5 65.5v609q0 89 50 136.5t146 47.5h642q31 0 56.5 -11.5t44 -30t29 -42t10.5 -47.5v-394q0 -25 -11 -49t-30 -42.5t-44.5 -30t-54.5 -11.5h-279v-83h419v-179h-499v448q22 -7 52 -14.5t64.5 -19.5t71 -30t69.5 -46
q25 -20 47.5 -34t51.5 -14q19 0 36 9t30 24.5t20 36.5t7 44q0 58 -27 85.5t-70 37.5q-23 5 -37.5 22t-14.5 40q0 24 15 41q15 18 39 24q42 10 66.5 37.5t24.5 83.5q0 23 -7 44t-19.5 36.5t-29.5 24.5t-36 9q-29 0 -52 -14t-48 -34q-60 -50 -107.5 -72.5t-88.5 -35.5h-338
v-767h1005q-54 23 -87 66t-40 103q-1 6 -1 12t-1 11q0 58 16.5 94.5t46.5 58t72 31t94 13.5h464v158h-510q-47 7 -85 28.5t-61.5 55.5t-31.5 78.5t5 97.5q9 36 28.5 63t46 45.5t57.5 28t63 9.5h757v-192l-73 -1q-185 -1 -318 -1t-226 -1q-24 13 -50.5 31.5t-56.5 45.5
q-24 21 -47 35.5t-52 14.5q-24 0 -41.5 -12t-29 -31t-16.5 -41.5t-5 -43.5q0 -5 0.5 -10t0.5 -10h47.5t83.5 0.5t102.5 0.5h104.5h62.5h52t37 -0.5t17.5 -0.5q46 -6 79.5 -31.5t55.5 -61.5t32.5 -79t10.5 -85q2 -53 -9 -104t-33.5 -91.5t-56 -66t-77.5 -26.5h-512
q-1 -5 -1.5 -10.5t-0.5 -12.5q0 -20 5.5 -42.5t16.5 -41t29 -30.5t42 -12q29 0 51.5 14.5t48.5 36.5q29 26 55 43.5t49 31.5h219l211 1v283h192v-284l-1 -193h-191q-51 0 -109 0.5t-115 0.5h-110.5h-96.5h-1234q-3 0 -6 0.5t-6 0.5zM485 768v-526q0 -40 -16 -73.5t-42.5 -58
t-61.5 -38.5t-74 -14v710h194z" />
    <glyph glyph-name="uniF277" unicode="RI" horiz-adv-x="1623" 
d="M248 1q-38 3 -70.5 18.5t-56.5 40.5t-38 57t-14 68v609q0 89 50.5 136.5t145.5 47.5h642q31 0 56.5 -11.5t44 -30t29 -42t10.5 -47.5v-394q0 -25 -11 -48.5t-30 -42t-44.5 -30t-54.5 -11.5h-279v-84h419v-179h-499v448q22 -7 52 -14.5t64.5 -19.5t71 -30t69.5 -46
q25 -20 47.5 -34t51.5 -14q19 0 36 9t30 24.5t20 36.5t7 44q0 58 -26.5 85.5t-70.5 37.5q-23 5 -37.5 22t-14.5 40q0 24 15 41q15 18 39 24q42 10 67 37.5t25 83.5q0 23 -7.5 44t-20 36.5t-29.5 24.5t-36 9q-29 0 -52 -14t-48 -34q-60 -50 -107.5 -72.5t-88.5 -35.5h-338
v-768h1088l1 544q7 20 15.5 42t22 46.5t33.5 51.5t49 59q22 23 36 44.5t14 48.5q0 18 -9.5 34t-26 28t-38 19t-46.5 7q-28 0 -49 -6v37h195v-812q0 -32 -12.5 -60.5t-35.5 -51t-56 -37t-74 -17.5h-1108h-9t-9 1zM1143 273q0 22 0.5 50t0.5 59q1 14 1 28v28v105q0 25 1 46
l1 389h182l1 -47v-342q0 -24 0.5 -46.5t0.5 -43.5v-164.5v-126.5t0.5 -91t0.5 -59q-42 1 -76.5 8.5t-58.5 25.5t-38 50t-16 83v48zM484 242q0 -40 -16 -73.5t-42.5 -58t-61.5 -38.5t-74 -14v710h194v-526z" />
    <glyph glyph-name="uniF278" unicode="RO" horiz-adv-x="2213" 
d="M267 0q-39 0 -74.5 14t-62.5 38.5t-43.5 58.5t-16.5 74v609q0 89 50 136.5t146 47.5h642q10 0 15 -1h717v-73q-16 -22 -36.5 -34t-43.5 -20.5t-47.5 -16.5t-47 -21t-42 -33.5t-33.5 -54.5q-10 -26 -18.5 -52.5t-22 -56.5t-35.5 -64.5t-60 -75.5q-22 -23 -36.5 -44.5
t-14.5 -48.5q0 -18 9.5 -34t26 -28t38.5 -19t47 -7q53 0 81.5 19.5t41.5 51t14 73t-1.5 85.5t-4 87.5t6.5 80.5q6 27 22 48t39 36.5t52 24.5t59 12q35 1 69.5 -6.5t62.5 -23t48 -38.5t26 -53q8 -37 6.5 -80.5t-4 -88t-1.5 -86t14 -73t41.5 -51t81.5 -19.5q25 0 47 7t38.5 19
t26 28.5t9.5 34.5q0 27 -14.5 48.5t-36.5 44.5q-38 40 -60 74.5t-35.5 64.5t-22 56.5t-18.5 52.5q-14 34 -33.5 54.5t-42 33.5t-47 21t-47.5 16.5t-44 21t-36 34.5v72q104 -4 194.5 -41.5t157 -99.5t105 -143.5t38.5 -174.5t-38.5 -174.5t-105 -143.5t-157 -99.5
t-193.5 -41.5v718h-24v-718q-104 4 -194 41.5t-157 99.5t-105.5 144t-38.5 174q0 66 20 127t56 113.5t86.5 94.5t111.5 71q28 13 57 24h-573q-29 0 -52 -14t-48 -34q-60 -50 -107.5 -72.5t-88.5 -35.5h-338v-768h1368v-23h-1369zM549 506q22 -7 52 -14.5t64.5 -19.5t71 -30
t69.5 -46q25 -20 47.5 -34t51.5 -14q19 0 36 9t30 24.5t20 36.5t7 44q0 58 -27 85.5t-70 37.5q-23 5 -37.5 22t-14.5 40q0 24 15 41q15 18 39 24q42 10 66.5 37.5t24.5 83.5q0 28 -9.5 51.5t-26.5 38.5h62q28 -34 28 -76v-394q0 -25 -11 -48.5t-30 -42t-44.5 -30
t-54.5 -11.5h-279v-84h419v-179h-499v448zM485 241q0 -40 -16 -73.5t-43 -58t-62 -38t-73 -13.5v710h194v-527z" />
    <glyph glyph-name="uniF279" unicode="RS" horiz-adv-x="2173" 
d="M1240 611q-39 21 -59 53t-28 61q-10 34 -9 71q0 34 9.5 67t29.5 59h43q-17 -15 -26.5 -38.5t-9.5 -50.5q0 -17 2 -31t9 -31q262 -1 435.5 -1h277h146.5h43v-712h-806q-39 0 -68 15.5t-48 41t-28 58t-9 66.5v4q0 37 15.5 70t42 58t62 39t76.5 14h354v147h192v-313h-687
q-5 -14 -7 -28t-2 -28q0 -24 7 -44.5t19.5 -35.5t29.5 -23.5t36 -8.5q14 0 24.5 2.5t21.5 7.5q2 2 3.5 2.5t3.5 1.5q8 6 16.5 12.5t18.5 13.5q46 38 92 63t103 43h347v173v28q0 20 0.5 57t0.5 99h-556q-35 4 -66 5.5t-51 12.5zM70 793q0 90 50 137t146 47h1837v-181l-542 1
q-41 13 -72 29t-55.5 32.5t-43.5 32.5t-36 28q-15 11 -27 16t-27 6.5t-37.5 1.5t-58.5 2q-87 0 -145 1t-96.5 1t-61.5 -2t-39 -7t-29 -14.5t-31 -24.5q-60 -50 -107.5 -72.5t-88.5 -35.5h-338v-768h1835v-23h-1837q-41 0 -76.5 15t-62 40t-42 58.5t-15.5 71.5v608zM549 505
q22 -6 52 -13.5t64.5 -19.5t71 -30t69.5 -46q25 -20 47.5 -34t51.5 -14q19 0 36 9t30 24.5t20 36t7 44.5q0 58 -27 85t-70 37q-23 5 -37.5 22t-14.5 40q0 25 15.5 42.5t38.5 22.5q42 10 66.5 37.5t24.5 83.5q0 28 -9.5 51.5t-26.5 38.5h63q27 -35 27 -76v-394q0 -24 -11 -48
t-30 -42.5t-44.5 -30t-54.5 -11.5h-279v-83h419v-179h-499v447zM291 767h194v-526q0 -40 -16 -73.5t-43 -58t-62 -38t-73 -13.5v709z" />
    <glyph glyph-name="uniF280" unicode="RT" horiz-adv-x="2173" 
d="M70 794q0 89 50 136.5t146 47.5h642l663 -2h550v-182h-568q-38 13 -82.5 34.5t-99.5 68.5q-22 18 -46 32.5t-53 14.5q-10 0 -15 -1h-332q-5 2 -11 3t-12 1q-8 0 -14.5 -1t-13.5 -3q-22 -6 -43 -22q-8 -5 -14.5 -10.5t-14.5 -11.5q-60 -50 -107.5 -72.5t-88.5 -35.5h-338
v-768h1376v559h-500v338h70q-17 -16 -26.5 -39t-9.5 -50q0 -11 1 -20t3 -17q1 -11 7 -22h651v-578q0 -38 -15 -72t-41 -60.5t-61 -42.5t-75 -19h-1381q-39 0 -74.5 14t-62.5 38.5t-43.5 58.5t-16.5 74v609zM549 506q22 -7 52 -14.5t64.5 -19.5t71 -30t69.5 -46
q25 -20 47.5 -34t51.5 -14q19 0 36 9t30 24.5t20 36.5t7 44q0 58 -27 85.5t-70 37.5q-23 5 -37.5 22t-14.5 40q0 24 15 41q15 18 39 24q42 10 66.5 37.5t24.5 83.5q0 26 -8.5 48.5t-23.5 38.5h61q25 -34 25 -73v-394q0 -25 -11 -48.5t-30 -42t-44.5 -30t-54.5 -11.5h-279
v-84h419v-179h-499v448zM485 768v-527q0 -40 -16 -73.5t-43 -58t-62 -38t-73 -13.5v710h194zM1426 560h195v-502q-39 2 -74.5 17.5t-62.5 41.5t-42.5 60.5t-15.5 75.5v307z" />
    <glyph glyph-name="uniF281" unicode="SE" horiz-adv-x="2164" 
d="M171 589q-39 23 -59 55.5t-28 64.5q-10 36 -9 76q0 36 9 70.5t28 62t48 44t68 16.5h806l662 -1h396v-192l-72 -1q-116 0 -211.5 -0.5t-173.5 -0.5h-162l-297 1v-3q1 -5 1 -10t1 -10h47.5t83 0.5t102 0.5h105.5h63h52.5t36.5 -0.5t17 -0.5q42 -6 73.5 -27t53.5 -53
t34.5 -72t16.5 -83q0 -5 0.5 -11t0.5 -11q1 -53 -10 -104t-33.5 -91.5t-56 -66t-77.5 -26.5h-512q-1 -5 -1 -10.5v-12.5q0 -20 5 -42.5t16.5 -41t29 -30.5t41.5 -12q29 0 52 14.5t47 36.5q30 26 56 43.5t50 31.5h218l212 1v283h191v-284v-193h-191q-55 0 -116 0.5
t-121.5 0.5h-116h-97.5h-67h-25q-46 4 -87.5 19.5t-72.5 42.5t-49.5 65.5t-18.5 87.5q0 58 16.5 94.5t46.5 58t72.5 31t94.5 13.5h463v158h-510q-42 6 -76.5 24t-58.5 45.5t-36 64t-9 79.5l-99 1h-10l-532 2q-38 13 -81.5 36t-98.5 71q-24 21 -47 35t-52 14q-19 0 -36 -9.5
t-29.5 -25.5t-20 -37.5t-7.5 -46.5q0 -20 3 -36t9 -29q262 -1 435.5 -1h277h146.5h43v-757h-806q-39 0 -68 16.5t-48 43.5t-28 62t-9 71v4q0 40 15.5 75t41.5 61t61.5 41.5t76.5 15.5h354v155h193v-332h-687q-6 -14 -8 -29.5t-2 -30.5q0 -25 7.5 -46.5t20 -37.5t29.5 -25.5
t36 -9.5q25 0 45 11q2 2 4 2.5t3 1.5q9 6 17.5 12.5t17.5 14.5q45 40 91 67.5t104 45.5h348v184v30v166h-556q-35 3 -65.5 5t-50.5 14z" />
    <glyph glyph-name="uniF282" unicode="SH" horiz-adv-x="2176" 
d="M171 589q-39 22 -59 55.5t-28 64.5q-10 36 -9 75q0 36 9 71t28 62t48 43.5t68 16.5h806v-193l-542 2q-38 13 -81.5 36.5t-98.5 71.5q-24 21 -47 35t-52 14q-19 0 -36 -9.5t-29.5 -25.5t-20 -37.5t-7.5 -46.5q0 -21 3 -37q3 -17 9 -28q175 0 309.5 -0.5t234.5 -1
t168.5 -0.5h110.5h60.5h18.5v-734h875l1 541v196h148q15 27 15 72q0 25 -7.5 47t-20 38.5t-29.5 26t-36 9.5q-29 0 -52 -14.5t-47 -35.5q-33 -30 -62 -49.5t-55 -33t-49.5 -21.5t-45.5 -15h-104q-22 7 -45 15t-49 21.5t-55 33t-62 49.5q-25 21 -47.5 35.5t-51.5 14.5
q-20 0 -37 -9.5t-29.5 -26t-20 -38.5t-7.5 -47q0 -44 15 -72h155v-196h-1l1 -271v-235h-199l-1 506v160l-1 36v217h975v-801q0 -41 -16 -73.5t-43 -55.5t-62.5 -35t-74.5 -12h-1681q-39 0 -68 16.5t-48 44t-28 62t-9 70.5v4q0 40 15.5 75t41.5 61t61.5 41.5t76.5 15.5h354
v156h193v-333h-687q-6 -14 -8 -29.5t-2 -30.5q0 -25 7.5 -46.5t20 -37.5t29.5 -25.5t36 -9.5q12 0 23.5 3t21.5 8q6 4 7 4q9 7 17.5 13.5t17.5 14.5q45 40 91 67.5t104 45.5h348v184v29v167h-556q-35 2 -65.5 4.5t-50.5 14.5zM1354 760h530v-196q0 -135 0.5 -224.5
t0.5 -145.5v-87v-49q-42 1 -76 8.5t-58.5 27t-38.5 53.5t-16 88l3 329h-345v196z" />
    <glyph glyph-name="uniF283" unicode="SI" horiz-adv-x="1601" 
d="M163 611q-39 21 -59 53t-28 61q-10 34 -9 71q0 34 9 66.5t28 58t48 41t68 15.5h806v-181l-542 1q-38 13 -81.5 34.5t-98.5 66.5q-24 20 -47 33.5t-52 13.5q-19 0 -36 -9t-29.5 -24t-20 -35.5t-7.5 -43.5q0 -9 0.5 -18t2.5 -17t4.5 -14.5t4.5 -12.5q175 -1 309.5 -1
t234.5 -0.5t168.5 -0.5h110.5h60.5h18.5v-711h-806q-39 0 -68 15.5t-48 41t-28 58t-9 66.5v4q0 37 15.5 70t41.5 58t61.5 39t76.5 14h354v147h193v-313h-688q-5 -14 -7 -28t-2 -28q0 -24 7.5 -44.5t20 -35.5t29.5 -23.5t36 -8.5q23 0 45 10q2 2 4 2.5t3 1.5q9 6 17.5 12.5
t17.5 13.5q46 38 92 63t103 43h348v173v2v23v3v156h-556q-35 4 -65.5 5.5t-50.5 12.5zM1335 23l1 517q7 22 15.5 45t21.5 49t32.5 55t48.5 62q22 26 36.5 48.5t14.5 51.5q0 19 -9.5 36t-26 30t-38 20t-46.5 7q-26 0 -49 -5v38h195v-801q0 -35 -13.5 -66.5t-39 -55.5
t-62 -38.5t-81.5 -15.5h-1268v23h1268zM1310 58q-42 1 -75.5 8.5t-58 27t-38.5 53.5t-16 88q1 43 1 84.5v84.5q0 32 0.5 61t0.5 51q0 26 1 48l2 413h182v-50v-232v-131v-94q0 -101 0.5 -169.5t0.5 -115v-76v-51.5z" />
    <glyph glyph-name="uniF284" unicode="SO" horiz-adv-x="2198" 
d="M1034 23h589v-23h-1395q-41 0 -70 17.5t-47.5 45.5t-27 63.5t-8.5 70.5q0 40 15.5 75t41.5 61t61.5 41.5t76.5 15.5h354v156h193v-333h-687q-6 -14 -8 -29.5t-2 -30.5q0 -25 7.5 -46.5t20 -37.5t29.5 -25.5t36 -9.5q12 0 23.5 3t21.5 8q6 4 7 4q9 7 17.5 13.5t17.5 14.5
q45 40 91 67.5t104 45.5h539v-167zM171 589q-39 22 -59 55.5t-28 64.5q-10 36 -9 75q0 36 9 71t28 62t48 43.5t68 16.5h806v-193l-542 2q-38 13 -81.5 36.5t-98.5 71.5q-24 21 -47 35t-52 14q-19 0 -36 -9.5t-29.5 -25.5t-20 -37.5t-7.5 -46.5q0 -21 3 -37q3 -17 9 -28
q175 0 309.5 -0.5t234.5 -1t168.5 -0.5h110.5h60.5h18.5v-544h-191v161v1v3v16v9v167h-556q-35 2 -65.5 4.5t-50.5 14.5zM843 386v-8v8zM1647 976q103 -4 193.5 -41.5t157.5 -99.5t105.5 -143.5t38.5 -174.5t-38.5 -174.5t-105.5 -143.5t-157 -99.5t-193 -41.5v132h302v23
h-302v563h-25v-563h-365q-61 61 -95 138.5t-34 165.5q0 93 38.5 175t105.5 144t157 99.5t194 41.5v-73q-16 -22 -36.5 -34t-43.5 -20.5t-47.5 -16.5t-47 -21t-42 -33.5t-33.5 -54.5q-10 -26 -18.5 -52.5t-22 -56.5t-35.5 -64.5t-61 -75.5q-21 -23 -35 -44.5t-14 -48.5
q0 -18 9.5 -34t25.5 -28t38 -19t47 -7q53 0 81.5 19.5t41.5 51t14 73t-1 85.5t-4 87.5t6 80.5q6 27 22 48t39.5 36.5t52 24.5t59.5 12q35 1 69.5 -6.5t62.5 -23t48 -38.5t26 -53q8 -37 6.5 -80.5t-4 -87.5t-1.5 -85.5t13.5 -73.5t41.5 -51.5t82 -19.5q25 0 46.5 7t38 19
t26 28.5t9.5 34.5q0 27 -14 48.5t-36 44.5q-38 41 -60.5 75t-36 64t-22 56.5t-18.5 52.5q-14 34 -33.5 55t-42 33.5t-46.5 20.5t-47 17t-44 21t-36 34v72zM1623 58q-100 4 -186.5 38.5t-153.5 93.5h340v-132z" />
    <glyph glyph-name="uniF285" unicode="SS" horiz-adv-x="2157" 
d="M843 383v-6v6zM843 383v3v-3zM1265 943q-19 0 -36 -9.5t-29.5 -25.5t-19.5 -37.5t-7 -46.5q0 -10 0.5 -19.5t1.5 -17.5q2 -8 4.5 -15t4.5 -13q175 0 309.5 -0.5t234.5 -1t168.5 -0.5h110.5h60.5h18.5v-757h-806q-41 0 -70 17.5t-47 45.5t-26.5 63.5t-8.5 70.5
q0 40 15.5 75t41.5 61t61.5 41.5t76.5 15.5h354v156h192v-333h-686q-7 -15 -8.5 -29t-1.5 -31q0 -25 7 -46.5t19.5 -37.5t29.5 -25.5t36 -9.5q13 0 24 3t22 8q6 4 7 4q8 7 17 13.5t18 14.5q85 78 195 113h347q0 87 0.5 132.5t0.5 63.5v17v167h-556q-35 2 -65.5 4.5
t-50.5 14.5q-39 22 -59 55.5t-28 64.5q-10 36 -9 75h-120l-516 2q-38 13 -81.5 36.5t-98.5 71.5q-24 21 -47 35t-52 14q-19 0 -36 -9.5t-29.5 -25.5t-20 -37.5t-7.5 -46.5q0 -21 3 -37q3 -17 9 -28q175 0 309.5 -0.5t234.5 -1t168.5 -0.5h110.5h60.5h18.5v-757h-806
q-41 0 -70 17.5t-47.5 45.5t-27 63.5t-8.5 70.5q0 40 15.5 75t41.5 61t61.5 41.5t76.5 15.5h354v156h193v-333h-687q-6 -14 -8 -29.5t-2 -30.5q0 -25 7.5 -46.5t20 -37.5t29.5 -25.5t36 -9.5q12 0 23.5 3t21.5 8q6 4 7 4q9 7 17.5 13.5t17.5 14.5q45 40 91 67.5t104 45.5
h348v184v1v2v17v9v167h-556q-35 2 -65.5 4.5t-50.5 14.5q-39 22 -59 55.5t-28 64.5q-10 36 -9 75q0 36 9 71t28 62t48 43.5t68 16.5h1858v-193l-541 2q-38 13 -82 36.5t-99 71.5q-24 21 -47 35t-52 14z" />
    <glyph glyph-name="uniF286" unicode="ST" horiz-adv-x="2157" 
d="M171 589q-39 22 -59 55.5t-28 64.5q-10 36 -9 75q0 36 9 71t28 62t48 43.5t68 16.5h812v-193l-548 2q-38 13 -81.5 36.5t-98.5 71.5q-24 21 -47 35t-52 14q-19 0 -36 -9.5t-29.5 -25.5t-20 -37.5t-7.5 -46.5q0 -21 3 -37q2 -8 4 -14t5 -13h309.5h234.5h168.5h110.5h60.5
h18.5v-737h594v535h-308l-192 1v418h977v-194h-568q-19 7 -39.5 15.5t-43 21.5t-47.5 30.5t-53 42.5q-24 22 -47 36t-52 14q-19 0 -36 -9.5t-29.5 -26t-20 -38t-7.5 -46.5q0 -11 1 -21t2 -19q3 -10 8 -23h651v-553q0 -41 -15 -77.5t-41 -64.5t-61.5 -45t-75.5 -19v-1h-1403
q-39 0 -68 16.5t-48 44t-28 62t-9 70.5v4q0 40 15.5 75t41.5 61t61.5 41.5t76.5 15.5h354v156h193v-333h-687q-6 -14 -8 -29.5t-2 -30.5q0 -25 7.5 -46.5t20 -37.5t29.5 -25.5t36 -9.5q12 0 23.5 3t21.5 8q6 4 7 4q9 7 17.5 13.5t17.5 14.5q45 40 91 67.5t104 45.5h348v184
v29v167h-556q-35 2 -65.5 4.5t-50.5 14.5zM1605 535v-477q-42 2 -77.5 19.5t-62 45.5t-41.5 65t-15 78v269h196z" />
    <glyph glyph-name="uniF287" unicode="TA" horiz-adv-x="2109" 
d="M1081 550q3 97 30 175.5t83.5 134t143.5 85t210 29.5q24 0 68 -0.5t96.5 -10.5t107 -33t101 -66.5t78 -112.5t37.5 -170l7 -580l-226 -1q-40 0 -75 15t-61.5 41.5t-41.5 61.5t-15 75v382h192v-535q13 -4 27 -8q12 -3 25.5 -5t25.5 -2q25 0 46.5 7.5t38 20t26 29.5t9.5 36
q0 29 -14 52t-36 48q-32 36 -53 67t-34.5 59t-21.5 52.5t-15 48.5v123q0 56 -31 102.5t-83 66.5q-45 18 -93.5 25.5t-98.5 5.5q-46 -4 -92 -16.5t-82.5 -37t-59.5 -62.5t-23 -92v-162q-14 -38 -37.5 -81.5t-71.5 -98.5q-22 -25 -36 -47.5t-14 -51.5q0 -37 31 -62h-72z
M52 557v419h978v-195h-568q-20 7 -40.5 15.5t-43 21.5t-47 30.5t-52.5 42.5q-24 22 -47 36t-52 14q-20 0 -37 -9.5t-29.5 -26t-20 -38t-7.5 -46.5q0 -11 1 -21t3 -19q2 -6 3.5 -12t3.5 -11h652v-495q0 -42 -15.5 -78.5t-42 -64.5t-62.5 -44.5t-77 -18.5v499h-308zM529 533
v-510h771v552h200v-383q0 -40 -15 -75t-41 -61t-61 -41t-74 -15h-780q-41 3 -77 19.5t-62.5 44t-41.5 64t-15 78.5v327h196z" />
    <glyph glyph-name="uniF288" unicode="TE" horiz-adv-x="2029" 
d="M54 557v419h851l453 -1h605v-182h-72q-180 -1 -310 -1t-223 -1h-13l-1 2q-24 12 -49.5 29t-54.5 41q-25 20 -48 33.5t-52 13.5q-19 0 -36 -9t-29.5 -24.5t-19.5 -36t-7 -44.5v-3h-45l-540 1q-19 7 -39.5 13.5t-43 17t-47 26t-52.5 40.5q-25 22 -47.5 36t-51.5 14
q-28 0 -49 -15t-32.5 -39.5t-12.5 -55t11 -60.5h652v-508q0 -42 -15.5 -78.5t-42.5 -64.5t-63 -44.5t-77 -18.5v499h-307zM1002 259q-1 6 -0.5 12.5t1.5 12.5q3 45 20 74t46 47t69.5 26.5t92.5 12.5h463v148h-511q-39 6 -71 21t-56 38t-38 53.5t-15 66.5h46h35h1h59.5
t76 0.5t84 0.5h83.5h62h51.5t37 -0.5t17.5 -0.5q42 -5 73.5 -25t53.5 -50t34.5 -67.5t15.5 -77.5q1 -5 1 -11t1 -11q2 -50 -9 -98t-33.5 -86t-56.5 -62t-78 -24h-512q-1 -5 -1.5 -10.5t-0.5 -11.5v-5q0 -24 7 -44.5t20 -35.5t29.5 -24t36.5 -9q29 0 52 13.5t48 33.5
q29 25 55 41.5t49 29.5h219l212 1v266h191v-448h-191h-354q-96 0 -190 1q-44 3 -84.5 17t-72 39t-50.5 61.5t-19 84.5zM531 533v-510h1430v-23h-1430q-41 3 -77 19.5t-62.5 44t-41.5 64t-15 78.5v327h196z" />
    <glyph glyph-name="uniF289" unicode="TI" horiz-adv-x="1601" 
d="M1026 977v-194h-568q-19 7 -39.5 15.5t-43 21.5t-47.5 30.5t-53 42.5q-24 22 -47 36t-52 14q-20 0 -36.5 -9.5t-29.5 -26t-20 -38t-7 -46.5q0 -11 1 -21t2 -19q3 -10 8 -23h651v-495q0 -42 -15.5 -78.5t-42 -64.5t-62.5 -45t-77 -19v500h-499v419h977zM329 535h197v-512
h809l1 517q7 22 15.5 45t21.5 49t33 55t49 62q22 26 36.5 48.5t14.5 51.5q0 19 -9.5 36t-26 30t-38.5 20t-47 7q-26 0 -49 -5v38h195v-801q0 -40 -16 -72.5t-43 -55.5t-62.5 -35.5t-73.5 -12.5h-1h-809q-41 3 -77 20t-62.5 45t-42 64.5t-15.5 78.5v327zM1311 58
q-42 1 -76 8.5t-58.5 27t-38.5 53.5t-16 88v50q0 23 0.5 53t0.5 63q0 7 0.5 6t0.5 -4.5v-5t0 6.5v112q0 26 1 48l2 413h182v-50v-363q0 -26 0.5 -49t0.5 -45v-187.5t0.5 -118.5t0.5 -68.5v-37.5z" />
    <glyph glyph-name="uniF290" unicode="TO" horiz-adv-x="2110" 
d="M531 1q-41 2 -77 19t-62.5 45t-41.5 65t-15 78v327h196v-512h866q-78 24 -144 69.5t-113.5 106.5t-74.5 135t-27 155q0 98 38.5 185t106 153t157.5 106t194 44v-78q-16 -23 -36.5 -36t-44 -22t-47.5 -17.5t-46.5 -22t-42 -36t-33.5 -58.5q-11 -27 -19 -55t-21.5 -59.5
t-36 -68t-60.5 -79.5q-21 -26 -35.5 -48.5t-14.5 -51.5q0 -20 9.5 -36.5t26 -29.5t38.5 -20t47 -7q53 0 81.5 20.5t41.5 54.5t14 77.5t-1.5 90.5t-4.5 93t6 85q6 28 22.5 51t39.5 39.5t52 26t59 11.5q35 1 69.5 -6.5t62.5 -24t48 -41t26 -56.5q8 -39 6.5 -85t-4 -93
t-1.5 -91t14 -78t41.5 -54.5t81.5 -20.5q25 0 47 7.5t38.5 20t26 29.5t9.5 37q0 29 -14.5 51.5t-36.5 47.5q-38 43 -60.5 79.5t-36 68t-22 60t-18.5 55.5q-14 36 -33.5 58t-42 35.5t-46.5 22t-47 18t-44 22.5t-36 36v77q103 -4 193.5 -44t157.5 -105.5t105.5 -152.5
t38.5 -185q0 -99 -38.5 -185.5t-105.5 -152.5t-157 -106t-193 -45v763h-24v-762h-1002zM54 977h977v-194h-568q-19 7 -39.5 15.5t-43 21.5t-47 30.5t-52.5 42.5q-25 22 -47.5 36t-51.5 14q-20 0 -37 -9.5t-29.5 -26t-20 -38t-7.5 -46.5q0 -11 1 -21t3 -19q2 -6 3.5 -12
t3.5 -11h652v-495q0 -42 -15.5 -78.5t-42.5 -64.5t-63 -45t-77 -19v500h-307l-192 1v418z" />
    <glyph glyph-name="uniF291" unicode="TT" horiz-adv-x="1881" 
d="M52 976h1779v-193h-568q-38 13 -82 36.5t-100 72.5q-25 22 -48 36t-52 14q-23 0 -40.5 -11.5t-29 -29t-17.5 -38.5t-6 -41q0 -23 4 -39h-430q-39 13 -83 36.5t-100 72.5q-24 22 -47 36t-52 14q-20 0 -37 -9.5t-29.5 -26t-20 -38t-7.5 -46.5q0 -32 11 -62h652v-495
q0 -42 -15.5 -78.5t-42 -64.5t-62.5 -45t-77 -19v499h-308l-192 1v418zM529 534v-511h825v534h-308l-192 1v202h696v-554q0 -42 -15.5 -78.5t-42 -64.5t-62 -44.5t-76.5 -18.5h-825q-42 3 -77.5 20t-62 44.5t-41.5 64.5t-15 79v326h196zM1135 534h195v-476q-41 3 -76.5 20
t-62 45t-41.5 64.5t-15 77.5v269z" />
    <glyph glyph-name="uniF292" unicode="TH" horiz-adv-x="1891" 
d="M52 559v418h1768v-801q0 -35 -13.5 -67t-39 -56t-62 -38t-81.5 -15h-1095q-41 3 -77 20t-62.5 45t-41.5 64.5t-15 78.5v327h196v-512h1094l1 541v131v65h148q15 27 15 72q0 25 -7 47t-19.5 38.5t-29.5 26t-36 9.5q-29 0 -52 -14.5t-48 -35.5q-33 -30 -62 -49.5t-55 -33
t-49.5 -21.5t-45.5 -15h-103q-22 7 -45.5 15t-49.5 21.5t-55 33t-62 49.5q-25 21 -48 35.5t-52 14.5q-23 0 -40 -11.5t-28.5 -29t-17.5 -39t-6 -41.5q0 -14 1 -26t5 -23h-420q-20 7 -40.5 15.5t-43 21.5t-47 30.5t-52.5 42.5q-24 22 -47 36t-52 14q-20 0 -37 -9.5t-29.5 -26
t-20 -38t-7.5 -46.5q0 -11 1 -21t3 -19q2 -6 3.5 -12t3.5 -11h652v-495q0 -42 -15.5 -78.5t-42 -64.5t-62.5 -45t-77 -19v500h-308zM1597 760l1 -65v-131q0 -131 0.5 -218.5t0.5 -144.5v-89.5v-53.5q-42 1 -75.5 8.5t-58 27t-38.5 53.5t-16 88l2 329h-345v196h529zM1045 760
v-467l1 -68v-167h-200l-1 506v196h200z" />
    <glyph glyph-name="uniF293" unicode="TR" horiz-adv-x="2177" 
d="M336 535h196v-512h1075v452q22 -7 52.5 -15t65 -20.5t71 -32t69.5 -48.5q24 -22 47 -36t52 -14q19 0 36 9.5t29.5 26t20 38t7.5 46.5q0 62 -27 91t-71 40q-23 5 -37 23.5t-14 41.5q0 26 15 44.5t38 25.5q42 11 67 39.5t25 88.5q0 25 -7.5 47t-20 38.5t-29.5 26t-36 9.5
q-29 0 -51.5 -14.5t-47.5 -35.5q-61 -53 -108.5 -77.5t-87.5 -37.5h-536v2q0 95 50 145.5t146 50.5h641q31 0 56.5 -12t44 -32t29 -45t10.5 -50v-420q0 -26 -11 -51t-30 -44.5t-44.5 -31.5t-54.5 -12h-279v-89h419v-190h-1574q-41 3 -77 20t-62.5 45t-41.5 64.5t-15 78.5
v327zM55 977h977v-194h-568q-38 14 -82.5 37t-99.5 73q-25 22 -47.5 36t-51.5 14q-20 0 -37 -9.5t-30 -26t-20 -38t-7 -46.5q0 -11 1 -21t3 -19q1 -6 3 -12t4 -11h651v-495q0 -42 -15.5 -78.5t-42 -64.5t-62.5 -45t-77 -19v500h-307l-192 1v418zM1129 754h198v-668h23v668
h194v-500q0 -40 -15.5 -75.5t-42.5 -62.5t-62.5 -42.5t-75.5 -15.5h-22q-41 0 -77 15.5t-62.5 42t-42 62.5t-15.5 77v499z" />
    <glyph glyph-name="uniF294" unicode="UM" horiz-adv-x="2179" 
d="M66 977h192v-496q10 -32 17 -61t15 -57q14 -47 33.5 -75t42 -45.5t47 -28t47.5 -22.5t43.5 -28.5t36.5 -45.5l-1 -80h23v81q16 29 36.5 45.5t43.5 28.5t47.5 22.5t47 28t42 45.5t33.5 75q10 34 18 70t21.5 76.5t36 87t61.5 101.5q21 32 35.5 61t14.5 65q0 29 -13 53.5
t-35 41.5h85v-432q0 -81 -25 -155t-70 -135t-107 -106t-135 -69h1211v551q21 62 49.5 98.5t55 62.5t44.5 49t18 58q0 22 -9.5 41t-25.5 33t-38 22.5t-47 8.5q-36 0 -69 -19.5t-46 -55.5q-14 -33 -16 -76.5t3 -94.5q2 -64 2.5 -122.5t-11.5 -104.5q-7 -28 -24 -51.5
t-39.5 -41.5t-49.5 -29.5t-54 -15.5q-10 -2 -20.5 -3t-21.5 0q-32 0 -64.5 10t-60.5 28.5t-48.5 44.5t-29.5 58q-13 46 -13.5 104.5t4.5 122.5q4 50 4.5 78t-0.5 43t-2.5 20t-1.5 9q-4 23 -16.5 40.5t-29.5 29t-38 17t-42 5.5h-378h-37q-47 -5 -71.5 -33.5t-35.5 -72
t-11 -98.5t2.5 -113t3.5 -114.5t-6 -104.5q-6 -38 -23.5 -68t-43 -51t-56.5 -32.5t-64 -12.5v734h851q36 0 72.5 -21t65 -57t46.5 -83.5t18 -101.5v-355h24v355q0 53 15 100.5t42.5 83.5t65.5 57.5t84 21.5h271v-977h-1563h-7.5t-8.5 1q-96 3 -179.5 42.5t-146 104.5
t-99 150.5t-37.5 181.5l-1 64v433zM1208 920q-14 -10 -24.5 -22t-16.5 -27q-13 -30 -3 -61q0 -14 11 -34t22 -33q37 -37 58.5 -65.5t34.5 -54.5t20.5 -52.5t16.5 -57.5v-455h-197v862h78z" />
    <glyph glyph-name="uniF295" unicode="UN" horiz-adv-x="2177" 
d="M66 977h192v-496q10 -32 17 -61t15 -57q14 -47 33.5 -75t42 -45.5t47 -28t47.5 -22t43.5 -28t36.5 -45.5l-1 -81h23v81q16 29 36.5 45.5t43.5 28.5t47.5 22.5t47 28t42 45.5t33.5 75q10 34 18 70t21.5 76.5t36 87t61.5 101.5q21 32 35.5 61t14.5 65q0 30 -13.5 54.5
t-35.5 41.5h86v-433q0 -81 -25.5 -155t-70.5 -135t-107 -106t-135 -69h1263q24 0 45.5 9t37.5 24t25.5 34t9.5 39q0 29 -15.5 54t-34.5 46q-45 54 -67.5 96.5t-35.5 79.5l-4 12t-4 11v355h-24l-352 4v-513q-4 -35 -6 -66t-13 -51q-23 -41 -56 -61.5t-64 -28.5
q-36 -10 -74 -9q-36 0 -70.5 9.5t-61.5 28.5t-43.5 48t-16.5 69v708h191q0 -110 -0.5 -219t-0.5 -219q-14 -38 -37 -83t-70 -100q-21 -26 -35 -49t-14 -52q0 -20 9.5 -37t25.5 -30t37.5 -20.5t45.5 -7.5q20 0 37 3q8 2 14.5 4t13.5 5v79v107t0.5 124.5t0.5 130.5v125v108v96
v91h751v-846q0 -25 -9 -47t-24 -39.5t-36 -29t-45 -14.5v-1h-1441q-99 0 -186.5 37.5t-153.5 103t-104.5 153t-39.5 186.5l-1 64v433zM1329 977v-9q0 -5 -0.5 -10.5t-0.5 -13.5h-442h-8h-10q-50 -3 -76.5 -30.5t-38.5 -71t-12.5 -98.5t2 -114t3.5 -117t-6 -106
q-6 -38 -23.5 -68t-43 -51t-56.5 -32.5t-64 -12.5v734h776zM1720 754h174v-696h-118q-26 26 -41 60.5t-15 74.5v561z" />
    <glyph glyph-name="uniF296" unicode="UR" horiz-adv-x="2184" 
d="M66 977h192v-198h-161v-25h161v-273q10 -32 17 -61t15 -57q14 -47 33.5 -75t42 -45.5t47 -28t47.5 -22t43.5 -28t36.5 -45.5l-1 -81h23v81q16 29 36.5 45.5t43.5 28.5t47.5 22.5t47 28t42 45.5t33.5 75q10 34 18 70t21.5 76.5t36 87t61.5 101.5q9 14 17.5 27.5t15.5 27.5
h54v-265q0 -82 -25.5 -156t-70.5 -135t-107 -106t-135 -69h917v452q22 -7 52.5 -15t65 -20.5t70.5 -32t69 -48.5q25 -22 48 -36t52 -14q19 0 36 9.5t29.5 26t20 38t7.5 46.5q0 62 -27 91t-72 40q-23 5 -37 23.5t-14 41.5q0 26 15 44.5t38 25.5q41 10 67 39.5t26 88.5
q0 25 -7.5 47t-20 38.5t-30 26t-36.5 9.5q-29 0 -51.5 -14.5t-47.5 -35.5q-61 -53 -108.5 -77.5t-87.5 -37.5h-535v2q0 95 49.5 145.5t145.5 50.5h642q31 0 56.5 -12t44 -32t28.5 -45t10 -50v-420q0 -26 -11 -51t-30 -44.5t-44.5 -31.5t-53.5 -12h-279v-89h418v-190h-1562
q-99 0 -186.5 37.5t-153.5 103t-104.5 153t-39.5 186.5l-1 64v433zM1137 754h197v-668h23v668h195v-500q0 -41 -15.5 -76.5t-42.5 -62t-63 -42t-76 -15.5h-22q-41 0 -76.5 15.5t-62 42t-42 62.5t-15.5 77v499zM740 407q-6 -38 -23.5 -68t-43 -51t-56.5 -32.5t-64 -12.5v511
h189q-2 -42 -0.5 -87t3 -90.5t1.5 -89t-6 -80.5zM553 779v198h483v-198h-44q3 11 5 22.5t2 23.5q0 25 -9.5 46.5t-26 37.5t-38.5 25.5t-47 9.5q-36 0 -60.5 -12.5t-40 -34.5t-24 -52t-11.5 -66h-189z" />
    <glyph glyph-name="uniF297" unicode="VE" horiz-adv-x="2153" 
d="M605 720q0 52 19 97.5t51.5 80t77 55.5t95.5 24h14h1224v-181h-72q-185 -1 -318 -1.5t-226 -0.5q-24 12 -50.5 29t-56.5 42q-24 20 -47 34t-52 14q-24 0 -41 -11t-28.5 -28.5t-17 -39t-5.5 -42.5v-9.5t1 -9.5q12 0 47.5 0.5t83.5 1t102.5 0.5h104.5h62.5t52 -0.5t37 -1
t17.5 -0.5q44 -6 77.5 -28.5t56 -56t33.5 -74.5t11 -82q2 -50 -9 -98t-33.5 -86.5t-56 -62.5t-77.5 -24h-512q-1 -5 -1.5 -10.5t-0.5 -12.5q0 -20 6 -41t17.5 -38t29 -27.5t40.5 -10.5q29 0 51.5 13t47.5 34q29 25 55.5 41.5t49.5 28.5h219l211 2v266h192v-268l-1 -180h-191
h-542q-44 3 -85 17t-73 39.5t-51 62t-19 84.5q0 56 17.5 90.5t48 54t72.5 28t91 11.5h464v150h-510q-47 6 -85 26.5t-61.5 52.5t-31.5 74t5 92q10 38 34.5 67t58.5 46h-383q-3 1 -6.5 1h-6.5h-3h-10t-10 -1v-688q0 -63 -27.5 -117t-73.5 -90h-103v662zM282 977
q40 0 75.5 -15t62 -41.5t41.5 -62t15 -75.5v-760h1611v-23h-1543q-54 0 -101.5 20.5t-83.5 56t-56.5 83t-20.5 102.5v690q-6 1 -11.5 1.5t-11.5 0.5h-1q-43 -1 -73.5 -25t-30.5 -59q0 -26 12.5 -46t31.5 -43q20 -23 34.5 -44t25.5 -40v-220h-200v500h224zM832 701
q22 38 58 81q19 22 31 42.5t12 46.5q0 35 -30 59h127v-453h-198v224z" />
    <glyph glyph-name="uniF298" unicode="WI" horiz-adv-x="1622" 
d="M71 977h155q67 0 125.5 -25.5t102 -69t69 -102t25.5 -125.5v-380h23v380q0 67 25.5 125.5t69 102t102.5 69t126 25.5h436v-282l1 -109v-22v-94v-180t0.5 -117.5t0.5 -71.5v-43q-42 1 -76.5 8.5t-58.5 27t-38 53.5t-16 88q1 24 1 51v53t1 62v3v112q0 26 1 48l1 356v22
h-252q-10 0 -18.5 0.5t-15.5 -0.5q-47 -5 -71.5 -33.5t-35.5 -72t-11 -99t2 -113.5t3 -115t-6 -105q-6 -41 -26 -72.5t-48 -52.5t-62 -31t-69 -8q-31 3 -59.5 15.5t-52 33.5t-39.5 50t-22 65q-7 46 -6 100.5t3.5 110t2.5 109t-8.5 97.5t-29.5 75t-60 42q-20 5 -40 5
q-25 0 -47 -9.5t-38.5 -26t-26 -38t-9.5 -46.5q0 -36 14.5 -65t36.5 -61q49 -72 72.5 -129t37.5 -106v-462h-55q-28 0 -53.5 12.5t-44.5 33t-30.5 45t-11.5 48.5v838zM289 372q3 -6 3 -12q13 -43 31 -70.5t39 -44.5t43 -28t44 -21q27 -13 51 -30.5t43 -50.5l-1 -81h22v82
q18 32 42 49.5t50 30.5q22 10 44.5 21t43.5 28.5t39 44.5t31 71q5 14 8 28t7 28v-385h23v468q14 43 36 91t63 106q22 32 36.5 61t14.5 66q0 29 -13 54t-36 42h95v-781q0 -37 -17.5 -67t-45.5 -49h370l1 517q7 22 15.5 45t22 49t33.5 55.5t49 62.5q22 25 36 47.5t14 51.5
q0 19 -9.5 36t-26 30t-38 20t-46.5 7q-14 0 -26 -1.5t-23 -3.5v38h195v-801q0 -34 -13 -65t-37 -55t-59 -39t-78 -17h-1076v372z" />
    <glyph glyph-name="uniF299" unicode="WO" horiz-adv-x="2216" 
d="M211 0q-28 0 -53.5 12.5t-44.5 33t-30.5 45t-11.5 48.5v838h155q67 0 125.5 -25.5t102 -69t69 -102t25.5 -125.5v-380h23v380q0 67 25.5 125.5t69 102t102.5 69t126 25.5h746v-73q-16 -22 -36.5 -34t-43.5 -20.5t-47.5 -16.5t-47 -21t-42 -33.5t-33.5 -54.5
q-10 -26 -18.5 -52.5t-22 -56.5t-35.5 -64.5t-60 -75.5q-22 -23 -36.5 -44.5t-14.5 -48.5q0 -18 9.5 -34t26 -28t38.5 -19t47 -7q53 0 81.5 19.5t41.5 51t14 73t-1.5 85.5t-4 87.5t6.5 80.5q6 27 22 48t39.5 36.5t52 24.5t59.5 12q35 1 69 -6.5t62 -23t48 -38.5t26 -53
q8 -37 6.5 -80.5t-4 -88t-1.5 -86t14 -73t42 -51t82 -19.5q25 0 46.5 7t38 19t26 28.5t9.5 34.5q0 27 -14 48.5t-37 44.5q-38 40 -60 74.5t-35.5 64.5t-22 56.5t-18.5 52.5q-14 34 -33.5 54.5t-42 33.5t-47 21t-47.5 16.5t-44 21t-36 34.5v72q104 -4 194.5 -41.5
t157.5 -99.5t105.5 -143.5t38.5 -174.5t-38.5 -174.5t-105.5 -143.5t-157.5 -99.5t-193.5 -41.5v718h-24v-718q-104 4 -194 41.5t-156.5 99.5t-105 144t-38.5 174q0 75 25.5 142.5t69.5 123t103.5 97.5t128.5 66h-71h-39.5h-24.5h-25.5h-42.5h-75.5t-124 -0.5t-188.5 -1.5
q-53 0 -82 -26t-41.5 -69.5t-14 -99.5t1 -116t4 -119.5t-6.5 -108.5q-6 -41 -26 -73t-48 -53t-62 -31t-69 -8q-31 3 -59.5 15.5t-52 33.5t-39.5 50t-22 65q-7 46 -6 100.5t3.5 110t2.5 109t-8.5 97.5t-29.5 75t-60 42q-20 5 -40 5q-25 0 -47 -9.5t-38.5 -25.5t-26 -37.5
t-9.5 -46.5q0 -37 14.5 -66t36.5 -61q49 -72 72.5 -129t37.5 -106v-462h-55zM289 372q3 -6 3 -12q13 -43 31 -70.5t39 -44.5t43 -28t44 -21q27 -13 51 -30.5t43 -50.5l-1 -81h22v82q18 33 42 50t50 30q22 10 44.5 21t43.5 28.5t39 44.5t31 71q5 14 8 28t7 28v-383h23v466
q14 43 36 91t63 106q22 32 36.5 61.5t14.5 65.5q0 30 -13.5 55t-36.5 42h96v-782q0 -37 -17.5 -67t-45.5 -49h1173v-23h-1869v372z" />
    <glyph glyph-name=".notdef" horiz-adv-x="474" 
d="M429 630v-630h-384v630h384zM237 334l167 278h-334zM64 585v-541l162 271zM71 19h333l-166 277zM411 42v545l-163 -272z" />
    <glyph glyph-name="uni0000" horiz-adv-x="0" 
 />
    <glyph glyph-name="uni0000" horiz-adv-x="0" 
 />
    <glyph glyph-name="uni000D" unicode="&#xd;" horiz-adv-x="0" 
 />
    <glyph glyph-name="uni000A" unicode="&#xa;" horiz-adv-x="0" 
 />
    <glyph glyph-name="space" unicode=" " horiz-adv-x="399" 
 />
    <glyph glyph-name="exclam" unicode="!" horiz-adv-x="436" 
d="M19 191q0 29 20 46t44 17h222v64l-286 571h381l-63 -571v-64q28 0 45.5 -20.5t17.5 -42.5v-127q0 -13 -6 -24.5t-15 -20.5t-20 -14t-22 -5h-254q-32 0 -48 20.5t-16 43.5v127z" />
    <glyph glyph-name="quotedbl" unicode="&#x22;" horiz-adv-x="381" 
d="M31 1016h127v-63l-31 -255h-64l-32 255v63zM222 1016h127v-63l-31 -255h-64l-32 255v63z" />
    <glyph glyph-name="numbersign" unicode="#" horiz-adv-x="1032" 
d="M40 413h413v63h-413v95h460v128l-460 -1v191h953v-190h-461v-128h461v-95h-413v-63h413v-95h-461v-128h461v-190h-953v190h460v128h-460v95zM532 413v63h-32v-63h32z" />
    <glyph glyph-name="dollar" unicode="$" horiz-adv-x="841" 
d="M39 323h48q-6 -21 -6 -49q0 -25 7 -47t20 -38.5t29.5 -26t36.5 -9.5q29 0 51.5 14.5t48.5 35.5q33 30 62.5 49.5t55.5 33t49.5 22t45.5 15.5h250v122h-634q-29 0 -46.5 15.5t-17.5 47.5l1 190q0 27 9 50t25.5 40.5t39.5 27.5t52 10h216v127h63v-127h356v-196h-42
q10 25 10 58q0 23 -6.5 43t-18 35t-27 23.5t-32.5 8.5q-26 0 -47 -13t-44 -33q-39 -34 -71.5 -54t-61 -32.5t-53.5 -19.5t-49 -16h-256v-122h634q24 0 44 -18.5t20 -44.5v-191q0 -57 -35 -92t-92 -35h-222v-127h-64l1 127h-350v196z" />
    <glyph glyph-name="percent" unicode="%" horiz-adv-x="1087" 
d="M668 31v255h-63v-255h63zM287 858h-64v-254h64v254zM445 254q0 11 5.5 22.5t14.5 20.5t20.5 15t23.5 6h254q26 -2 45 -22t19 -42v-190q0 -23 -17.5 -43.5t-46.5 -20.5h-254q-25 0 -44.5 16.5t-19.5 47.5v190zM128 0h-254l867 868q7 6 12 11l10 10h254zM65 826
q0 28 18.5 45.5t44.5 17.5h254q7 0 18 -4.5t21 -13t17 -20t7 -25.5v-191q0 -12 -5 -23.5t-13.5 -20.5t-20 -14.5t-24.5 -5.5h-254q-12 0 -23.5 5.5t-20 14.5t-14 20.5t-5.5 23.5v191z" />
    <glyph glyph-name="ampersand" unicode="&#x26;" horiz-adv-x="969" 
d="M40 286q0 27 10.5 50t28.5 40t40.5 27t46.5 10h540v63h-540q-26 0 -49 10t-40 27t-27 40.5t-10 50.5v158q0 25 11.5 48t29.5 40.5t40.5 28t44.5 10.5h763v-195h-763v-154h636q30 0 54 -11.5t40 -30t24.5 -41t8.5 -44.5v-413h-127v476h-64v-258h-266q-21 7 -43.5 16
t-47.5 22t-53 32t-60 47q-24 22 -47 36t-52 14q-19 0 -36 -9.5t-29.5 -26t-20 -38t-7.5 -46.5t5 -47l4 -12t5 -11h648v-68q0 -59 -35 -93t-92 -34h-445q-29 0 -52.5 11.5t-40 29.5t-25 40.5t-8.5 45.5v159z" />
    <glyph glyph-name="quotesingle" unicode="'" horiz-adv-x="191" 
d="M158 1016v-63l-31 -255h-64l-32 255v63h127z" />
    <glyph glyph-name="parenleft" unicode="(" horiz-adv-x="622" 
d="M43 934q0 29 10 52.5t27.5 40t40.5 25.5t49 9h382v-63h-64h-42.5t-51 -3t-53 -10t-47.5 -20q-8 4 -15 12q-25 22 -48 36.5t-52 14.5q-19 0 -36 -9.5t-29.5 -26t-20 -38.5t-7.5 -47q0 -41 12 -67t34 -41q53 -37 83 -92.5t30 -118.5v-181q0 -66 -33 -123.5t-89 -92.5
q-23 -15 -36.5 -41.5t-13.5 -69.5q0 -25 7 -47t20 -38.5t29.5 -26t36.5 -9.5q29 0 51.5 14.5t47.5 36.5q5 4 9 7.5t9 7.5q21 -17 49 -26t57 -13t55 -4.5t44 -0.5h64v-63h-382q-28 0 -51 11.5t-40 29.5t-26.5 40.5t-9.5 45.5v889v0z" />
    <glyph glyph-name="parenright" unicode=")" horiz-adv-x="622" 
d="M70 1061h381q26 0 49 -9t40.5 -25.5t27.5 -40t10 -52.5v-889q0 -23 -9.5 -45.5t-26 -40.5t-40 -29.5t-51.5 -11.5h-381v63h63q18 0 44.5 0.5t55 4.5t56.5 13t49 26l18 -15q25 -22 47.5 -36.5t51.5 -14.5q19 0 36 9.5t30 26t20 38.5t7 47q0 43 -13.5 69.5t-36.5 41.5
q-56 35 -89 92.5t-33 123.5v181q0 63 30.5 118.5t82.5 92.5q21 15 33.5 41t12.5 67q0 25 -7.5 47t-20 38.5t-29.5 26t-36 9.5q-29 0 -52 -14.5t-47 -36.5q-5 -3 -8.5 -6.5t-6.5 -5.5q-21 13 -47.5 20t-53.5 10t-51.5 3h-42.5h-63v63z" />
    <glyph glyph-name="asterisk" unicode="*" horiz-adv-x="514" 
d="M161 644h32v64h-159v127h127v63q0 26 19 45t46 19h61q27 0 46 -19t19 -45v-63h127v-127h-159v-64h32l127 -63v-127h-127l-83 159v318h-25v-318l-83 -159h-127v127z" />
    <glyph glyph-name="plus" unicode="+" horiz-adv-x="505" 
d="M30 382v126h127v127h190v-127h127v-126h-127v-128h-190v128h-127z" />
    <glyph glyph-name="comma" unicode="," horiz-adv-x="1013" 
d="M257 370q-7 18 -7 40v105q0 19 7 40q4 8 9.5 15.5t12.5 13.5q14 13 31 19.5t36 6.5t37 -6.5t32 -19.5q15 -11 21.5 -31t6.5 -38v-105q0 -42 -27.5 -69t-69.5 -27q-19 0 -36 6t-31 20q-14 12 -22 30zM354 906q24 0 39 -6q56 -26 56 -85q0 -55 -48 -81l53 -111h-72l-46 102
h-16v-102h-66v283h100zM547 604l65 -152v152h63v-283h-66l-66 154v-154h-63v283h67zM638 906h86l60 -283h-65l-9 46h-58l-9 -46h-65zM945 976v-39h-888v39h888zM945 294v-37h-888v37h888zM66 604h161v-64h-96v-51h86v-63h-86v-105h-65v283zM702 540v64h176v-64h-55v-219h-66
v219h-55zM50 906h175v-63h-54v-220h-66v220h-55v63zM815 906h65v-220h83v-63h-148v283zM547 906v-283h-65v283h65zM631 142q0 25 13 39.5t32 14.5q22 0 32 -15v60h18v-122v-13.5t1 -12.5h-17l-1 18q-9 -19 -34 -19q-19 0 -31.5 13.5t-12.5 36.5zM316 410q0 -32 30 -32t30 30
v107q0 15 -9 23q-9 9 -21 9t-21 -9q-9 -8 -9 -23v-105zM797 142q0 26 14.5 40t36.5 14q21 0 34 -14t13 -37q0 -29 -15.5 -41t-33.5 -12q-20 0 -34.5 13.5t-14.5 36.5zM558 92q-12 0 -23.5 8t-11.5 36v58h19v-56q0 -31 22 -31q11 0 18.5 7.5t7.5 18.5v61h18v-74q0 -6 0.5 -13
t0.5 -14h-16l-2 16q-2 -6 -10.5 -11.5t-22.5 -5.5zM816 144q0 -17 8 -28t22 -11t22 11t8 28q0 13 -6.5 25.5t-23.5 12.5q-15 0 -22.5 -11.5t-7.5 -26.5zM680 182q-15 0 -22.5 -11t-7.5 -27q0 -15 7 -27t22 -12q10 0 17.5 5.5t9.5 16.5q0 3 1 4.5t1 4.5v17q0 3 -1 4.5t-1 2.5
q-5 22 -26 22zM187 7q0 26 16 39.5t35 13.5q22 0 35 -13.5t13 -37.5q0 -27 -16 -40t-34 -13q-19 0 -34 13.5t-15 37.5zM157 214v15h85v-13l-59 -123h-19l59 121h-66zM349 229v-13l-59 -123h-19l59 121h-68v15h87zM371 112q9 -7 23 -7q21 0 21 15q0 10 -20 18q-26 10 -26 29
q0 12 9 20.5t26 8.5q13 0 24 -6l-4 -13q-8 5 -20 5q-18 0 -18 -14q0 -6 4.5 -9t14.5 -7q27 -11 27 -30q0 -30 -38 -30q-15 0 -29 7zM350 782q30 0 30 30q0 31 -30 31h-30v-61h30zM443 194h17v24l18 5v-29h26v-13h-26v-55q0 -19 13 -19q8 0 11 1v-14q-5 -2 -16 -2
q-17 0 -21.5 9.5t-4.5 24.5v55h-17v13zM88 229h17v-136h-18v118l-25 -12l-2 13zM309 30v15t-1 14h15v-18q5 8 12.5 13.5t21.5 5.5q18 0 27 -19q4 5 11 12q9 7 24 7q9 0 21 -8t12 -34v-61h-20v59q0 30 -20 30q-8 0 -14.5 -5.5t-7.5 -11.5q0 -3 -1 -4.5t-1 -5.5v-62h-17v61
q0 28 -21 28q-8 0 -14 -5.5t-8 -11.5q-1 -4 -1 -11v-61h-18v73zM663 729h37l-20 100zM756 93v101h18v-101h-18zM236 48q-15 0 -22.5 -13t-7.5 -28t8.5 -27t21.5 -12q14 0 22.5 12t8.5 29q0 13 -7 26t-24 13zM99 7q0 23 14.5 38t37.5 15q18 0 25 -7l-3 -12q-2 1 -8.5 3
t-13.5 2q-17 0 -27 -11.5t-10 -27.5q0 -15 11 -26t26 -11q7 0 13.5 2t8.5 3l2 -12q-3 -3 -10 -5t-16 -2q-24 0 -37 13.5t-13 37.5zM765 211q-12 0 -12 11q0 12 12 12q11 0 11 -12q0 -11 -11 -11zM71 -44q-7 0 -10 4t-3 8q0 13 13 13q12 0 12 -13q0 -4 -3.5 -8t-8.5 -4z" />
    <glyph glyph-name="hyphen" unicode="-" horiz-adv-x="1013" 
d="M257 370q-7 18 -7 40v105q0 19 7 40q4 8 9.5 15.5t12.5 13.5q14 13 31 19.5t36 6.5t37 -6.5t32 -19.5q15 -11 21.5 -31t6.5 -38v-105q0 -42 -27.5 -69t-69.5 -27q-19 0 -36 6t-31 20q-14 12 -22 30zM354 906q24 0 39 -6q56 -26 56 -85q0 -55 -48 -81l53 -111h-72l-46 102
h-16v-102h-66v283h100zM547 604l65 -152v152h63v-283h-66l-66 154v-154h-63v283h67zM638 906h86l60 -283h-65l-9 46h-58l-9 -46h-65zM945 976v-39h-888v39h888zM945 294v-37h-888v37h888zM66 604h161v-64h-96v-51h86v-63h-86v-105h-65v283zM702 540v64h176v-64h-55v-219h-66
v219h-55zM50 906h175v-63h-54v-220h-66v220h-55v63zM815 906h65v-220h83v-63h-148v283zM547 906v-283h-65v283h65zM631 142q0 25 13 39.5t32 14.5q22 0 32 -15v60h18v-122v-13.5t1 -12.5h-17l-1 18q-9 -19 -34 -19q-19 0 -31.5 13.5t-12.5 36.5zM316 410q0 -32 30 -32t30 30
v107q0 15 -9 23q-9 9 -21 9t-21 -9q-9 -8 -9 -23v-105zM797 142q0 26 14.5 40t36.5 14q21 0 34 -14t13 -37q0 -29 -15.5 -41t-33.5 -12q-20 0 -34.5 13.5t-14.5 36.5zM558 92q-12 0 -23.5 8t-11.5 36v58h19v-56q0 -31 22 -31q11 0 18.5 7.5t7.5 18.5v61h18v-74q0 -6 0.5 -13
t0.5 -14h-16l-2 16q-2 -6 -10.5 -11.5t-22.5 -5.5zM816 144q0 -17 8 -28t22 -11t22 11t8 28q0 13 -6.5 25.5t-23.5 12.5q-15 0 -22.5 -11.5t-7.5 -26.5zM680 182q-15 0 -22.5 -11t-7.5 -27q0 -15 7 -27t22 -12q10 0 17.5 5.5t9.5 16.5q0 3 1 4.5t1 4.5v17q0 3 -1 4.5t-1 2.5
q-5 22 -26 22zM187 7q0 26 16 39.5t35 13.5q22 0 35 -13.5t13 -37.5q0 -27 -16 -40t-34 -13q-19 0 -34 13.5t-15 37.5zM157 214v15h85v-13l-59 -123h-19l59 121h-66zM349 229v-13l-59 -123h-19l59 121h-68v15h87zM371 112q9 -7 23 -7q21 0 21 15q0 10 -20 18q-26 10 -26 29
q0 12 9 20.5t26 8.5q13 0 24 -6l-4 -13q-8 5 -20 5q-18 0 -18 -14q0 -6 4.5 -9t14.5 -7q27 -11 27 -30q0 -30 -38 -30q-15 0 -29 7zM350 782q30 0 30 30q0 31 -30 31h-30v-61h30zM443 194h17v24l18 5v-29h26v-13h-26v-55q0 -19 13 -19q8 0 11 1v-14q-5 -2 -16 -2
q-17 0 -21.5 9.5t-4.5 24.5v55h-17v13zM88 229h17v-136h-18v118l-25 -12l-2 13zM309 30v15t-1 14h15v-18q5 8 12.5 13.5t21.5 5.5q18 0 27 -19q4 5 11 12q9 7 24 7q9 0 21 -8t12 -34v-61h-20v59q0 30 -20 30q-8 0 -14.5 -5.5t-7.5 -11.5q0 -3 -1 -4.5t-1 -5.5v-62h-17v61
q0 28 -21 28q-8 0 -14 -5.5t-8 -11.5q-1 -4 -1 -11v-61h-18v73zM663 729h37l-20 100zM756 93v101h18v-101h-18zM236 48q-15 0 -22.5 -13t-7.5 -28t8.5 -27t21.5 -12q14 0 22.5 12t8.5 29q0 13 -7 26t-24 13zM99 7q0 23 14.5 38t37.5 15q18 0 25 -7l-3 -12q-2 1 -8.5 3
t-13.5 2q-17 0 -27 -11.5t-10 -27.5q0 -15 11 -26t26 -11q7 0 13.5 2t8.5 3l2 -12q-3 -3 -10 -5t-16 -2q-24 0 -37 13.5t-13 37.5zM765 211q-12 0 -12 11q0 12 12 12q11 0 11 -12q0 -11 -11 -11zM71 -44q-7 0 -10 4t-3 8q0 13 13 13q12 0 12 -13q0 -4 -3.5 -8t-8.5 -4z" />
    <glyph glyph-name="period" unicode="." horiz-adv-x="1013" 
d="M257 370q-7 18 -7 40v105q0 19 7 40q4 8 9.5 15.5t12.5 13.5q14 13 31 19.5t36 6.5t37 -6.5t32 -19.5q15 -11 21.5 -31t6.5 -38v-105q0 -42 -27.5 -69t-69.5 -27q-19 0 -36 6t-31 20q-14 12 -22 30zM354 906q24 0 39 -6q56 -26 56 -85q0 -55 -48 -81l53 -111h-72l-46 102
h-16v-102h-66v283h100zM547 604l65 -152v152h63v-283h-66l-66 154v-154h-63v283h67zM638 906h86l60 -283h-65l-9 46h-58l-9 -46h-65zM945 976v-39h-888v39h888zM945 294v-37h-888v37h888zM66 604h161v-64h-96v-51h86v-63h-86v-105h-65v283zM702 540v64h176v-64h-55v-219h-66
v219h-55zM50 906h175v-63h-54v-220h-66v220h-55v63zM815 906h65v-220h83v-63h-148v283zM547 906v-283h-65v283h65zM631 142q0 25 13 39.5t32 14.5q22 0 32 -15v60h18v-122v-13.5t1 -12.5h-17l-1 18q-9 -19 -34 -19q-19 0 -31.5 13.5t-12.5 36.5zM316 410q0 -32 30 -32t30 30
v107q0 15 -9 23q-9 9 -21 9t-21 -9q-9 -8 -9 -23v-105zM797 142q0 26 14.5 40t36.5 14q21 0 34 -14t13 -37q0 -29 -15.5 -41t-33.5 -12q-20 0 -34.5 13.5t-14.5 36.5zM558 92q-12 0 -23.5 8t-11.5 36v58h19v-56q0 -31 22 -31q11 0 18.5 7.5t7.5 18.5v61h18v-74q0 -6 0.5 -13
t0.5 -14h-16l-2 16q-2 -6 -10.5 -11.5t-22.5 -5.5zM816 144q0 -17 8 -28t22 -11t22 11t8 28q0 13 -6.5 25.5t-23.5 12.5q-15 0 -22.5 -11.5t-7.5 -26.5zM680 182q-15 0 -22.5 -11t-7.5 -27q0 -15 7 -27t22 -12q10 0 17.5 5.5t9.5 16.5q0 3 1 4.5t1 4.5v17q0 3 -1 4.5t-1 2.5
q-5 22 -26 22zM187 7q0 26 16 39.5t35 13.5q22 0 35 -13.5t13 -37.5q0 -27 -16 -40t-34 -13q-19 0 -34 13.5t-15 37.5zM157 214v15h85v-13l-59 -123h-19l59 121h-66zM349 229v-13l-59 -123h-19l59 121h-68v15h87zM371 112q9 -7 23 -7q21 0 21 15q0 10 -20 18q-26 10 -26 29
q0 12 9 20.5t26 8.5q13 0 24 -6l-4 -13q-8 5 -20 5q-18 0 -18 -14q0 -6 4.5 -9t14.5 -7q27 -11 27 -30q0 -30 -38 -30q-15 0 -29 7zM350 782q30 0 30 30q0 31 -30 31h-30v-61h30zM443 194h17v24l18 5v-29h26v-13h-26v-55q0 -19 13 -19q8 0 11 1v-14q-5 -2 -16 -2
q-17 0 -21.5 9.5t-4.5 24.5v55h-17v13zM88 229h17v-136h-18v118l-25 -12l-2 13zM309 30v15t-1 14h15v-18q5 8 12.5 13.5t21.5 5.5q18 0 27 -19q4 5 11 12q9 7 24 7q9 0 21 -8t12 -34v-61h-20v59q0 30 -20 30q-8 0 -14.5 -5.5t-7.5 -11.5q0 -3 -1 -4.5t-1 -5.5v-62h-17v61
q0 28 -21 28q-8 0 -14 -5.5t-8 -11.5q-1 -4 -1 -11v-61h-18v73zM663 729h37l-20 100zM756 93v101h18v-101h-18zM236 48q-15 0 -22.5 -13t-7.5 -28t8.5 -27t21.5 -12q14 0 22.5 12t8.5 29q0 13 -7 26t-24 13zM99 7q0 23 14.5 38t37.5 15q18 0 25 -7l-3 -12q-2 1 -8.5 3
t-13.5 2q-17 0 -27 -11.5t-10 -27.5q0 -15 11 -26t26 -11q7 0 13.5 2t8.5 3l2 -12q-3 -3 -10 -5t-16 -2q-24 0 -37 13.5t-13 37.5zM765 211q-12 0 -12 11q0 12 12 12q11 0 11 -12q0 -11 -11 -11zM71 -44q-7 0 -10 4t-3 8q0 13 13 13q12 0 12 -13q0 -4 -3.5 -8t-8.5 -4z" />
    <glyph glyph-name="slash" unicode="/" horiz-adv-x="1013" 
d="M257 370q-7 18 -7 40v105q0 19 7 40q4 8 9.5 15.5t12.5 13.5q14 13 31 19.5t36 6.5t37 -6.5t32 -19.5q15 -11 21.5 -31t6.5 -38v-105q0 -42 -27.5 -69t-69.5 -27q-19 0 -36 6t-31 20q-14 12 -22 30zM354 906q24 0 39 -6q56 -26 56 -85q0 -55 -48 -81l53 -111h-72l-46 102
h-16v-102h-66v283h100zM547 604l65 -152v152h63v-283h-66l-66 154v-154h-63v283h67zM638 906h86l60 -283h-65l-9 46h-58l-9 -46h-65zM945 976v-39h-888v39h888zM945 294v-37h-888v37h888zM66 604h161v-64h-96v-51h86v-63h-86v-105h-65v283zM702 540v64h176v-64h-55v-219h-66
v219h-55zM50 906h175v-63h-54v-220h-66v220h-55v63zM815 906h65v-220h83v-63h-148v283zM547 906v-283h-65v283h65zM631 142q0 25 13 39.5t32 14.5q22 0 32 -15v60h18v-122v-13.5t1 -12.5h-17l-1 18q-9 -19 -34 -19q-19 0 -31.5 13.5t-12.5 36.5zM316 410q0 -32 30 -32t30 30
v107q0 15 -9 23q-9 9 -21 9t-21 -9q-9 -8 -9 -23v-105zM797 142q0 26 14.5 40t36.5 14q21 0 34 -14t13 -37q0 -29 -15.5 -41t-33.5 -12q-20 0 -34.5 13.5t-14.5 36.5zM558 92q-12 0 -23.5 8t-11.5 36v58h19v-56q0 -31 22 -31q11 0 18.5 7.5t7.5 18.5v61h18v-74q0 -6 0.5 -13
t0.5 -14h-16l-2 16q-2 -6 -10.5 -11.5t-22.5 -5.5zM816 144q0 -17 8 -28t22 -11t22 11t8 28q0 13 -6.5 25.5t-23.5 12.5q-15 0 -22.5 -11.5t-7.5 -26.5zM680 182q-15 0 -22.5 -11t-7.5 -27q0 -15 7 -27t22 -12q10 0 17.5 5.5t9.5 16.5q0 3 1 4.5t1 4.5v17q0 3 -1 4.5t-1 2.5
q-5 22 -26 22zM187 7q0 26 16 39.5t35 13.5q22 0 35 -13.5t13 -37.5q0 -27 -16 -40t-34 -13q-19 0 -34 13.5t-15 37.5zM157 214v15h85v-13l-59 -123h-19l59 121h-66zM349 229v-13l-59 -123h-19l59 121h-68v15h87zM371 112q9 -7 23 -7q21 0 21 15q0 10 -20 18q-26 10 -26 29
q0 12 9 20.5t26 8.5q13 0 24 -6l-4 -13q-8 5 -20 5q-18 0 -18 -14q0 -6 4.5 -9t14.5 -7q27 -11 27 -30q0 -30 -38 -30q-15 0 -29 7zM350 782q30 0 30 30q0 31 -30 31h-30v-61h30zM443 194h17v24l18 5v-29h26v-13h-26v-55q0 -19 13 -19q8 0 11 1v-14q-5 -2 -16 -2
q-17 0 -21.5 9.5t-4.5 24.5v55h-17v13zM88 229h17v-136h-18v118l-25 -12l-2 13zM309 30v15t-1 14h15v-18q5 8 12.5 13.5t21.5 5.5q18 0 27 -19q4 5 11 12q9 7 24 7q9 0 21 -8t12 -34v-61h-20v59q0 30 -20 30q-8 0 -14.5 -5.5t-7.5 -11.5q0 -3 -1 -4.5t-1 -5.5v-62h-17v61
q0 28 -21 28q-8 0 -14 -5.5t-8 -11.5q-1 -4 -1 -11v-61h-18v73zM663 729h37l-20 100zM756 93v101h18v-101h-18zM236 48q-15 0 -22.5 -13t-7.5 -28t8.5 -27t21.5 -12q14 0 22.5 12t8.5 29q0 13 -7 26t-24 13zM99 7q0 23 14.5 38t37.5 15q18 0 25 -7l-3 -12q-2 1 -8.5 3
t-13.5 2q-17 0 -27 -11.5t-10 -27.5q0 -15 11 -26t26 -11q7 0 13.5 2t8.5 3l2 -12q-3 -3 -10 -5t-16 -2q-24 0 -37 13.5t-13 37.5zM765 211q-12 0 -12 11q0 12 12 12q11 0 11 -12q0 -11 -11 -11zM71 -44q-7 0 -10 4t-3 8q0 13 13 13q12 0 12 -13q0 -4 -3.5 -8t-8.5 -4z" />
    <glyph glyph-name="zero" unicode="0" horiz-adv-x="1013" 
d="M257 370q-7 18 -7 40v105q0 19 7 40q4 8 9.5 15.5t12.5 13.5q14 13 31 19.5t36 6.5t37 -6.5t32 -19.5q15 -11 21.5 -31t6.5 -38v-105q0 -42 -27.5 -69t-69.5 -27q-19 0 -36 6t-31 20q-14 12 -22 30zM354 906q24 0 39 -6q56 -26 56 -85q0 -55 -48 -81l53 -111h-72l-46 102
h-16v-102h-66v283h100zM547 604l65 -152v152h63v-283h-66l-66 154v-154h-63v283h67zM638 906h86l60 -283h-65l-9 46h-58l-9 -46h-65zM945 976v-39h-888v39h888zM945 294v-37h-888v37h888zM66 604h161v-64h-96v-51h86v-63h-86v-105h-65v283zM702 540v64h176v-64h-55v-219h-66
v219h-55zM50 906h175v-63h-54v-220h-66v220h-55v63zM815 906h65v-220h83v-63h-148v283zM547 906v-283h-65v283h65zM631 142q0 25 13 39.5t32 14.5q22 0 32 -15v60h18v-122v-13.5t1 -12.5h-17l-1 18q-9 -19 -34 -19q-19 0 -31.5 13.5t-12.5 36.5zM316 410q0 -32 30 -32t30 30
v107q0 15 -9 23q-9 9 -21 9t-21 -9q-9 -8 -9 -23v-105zM797 142q0 26 14.5 40t36.5 14q21 0 34 -14t13 -37q0 -29 -15.5 -41t-33.5 -12q-20 0 -34.5 13.5t-14.5 36.5zM558 92q-12 0 -23.5 8t-11.5 36v58h19v-56q0 -31 22 -31q11 0 18.5 7.5t7.5 18.5v61h18v-74q0 -6 0.5 -13
t0.5 -14h-16l-2 16q-2 -6 -10.5 -11.5t-22.5 -5.5zM816 144q0 -17 8 -28t22 -11t22 11t8 28q0 13 -6.5 25.5t-23.5 12.5q-15 0 -22.5 -11.5t-7.5 -26.5zM680 182q-15 0 -22.5 -11t-7.5 -27q0 -15 7 -27t22 -12q10 0 17.5 5.5t9.5 16.5q0 3 1 4.5t1 4.5v17q0 3 -1 4.5t-1 2.5
q-5 22 -26 22zM187 7q0 26 16 39.5t35 13.5q22 0 35 -13.5t13 -37.5q0 -27 -16 -40t-34 -13q-19 0 -34 13.5t-15 37.5zM157 214v15h85v-13l-59 -123h-19l59 121h-66zM349 229v-13l-59 -123h-19l59 121h-68v15h87zM371 112q9 -7 23 -7q21 0 21 15q0 10 -20 18q-26 10 -26 29
q0 12 9 20.5t26 8.5q13 0 24 -6l-4 -13q-8 5 -20 5q-18 0 -18 -14q0 -6 4.5 -9t14.5 -7q27 -11 27 -30q0 -30 -38 -30q-15 0 -29 7zM350 782q30 0 30 30q0 31 -30 31h-30v-61h30zM443 194h17v24l18 5v-29h26v-13h-26v-55q0 -19 13 -19q8 0 11 1v-14q-5 -2 -16 -2
q-17 0 -21.5 9.5t-4.5 24.5v55h-17v13zM88 229h17v-136h-18v118l-25 -12l-2 13zM309 30v15t-1 14h15v-18q5 8 12.5 13.5t21.5 5.5q18 0 27 -19q4 5 11 12q9 7 24 7q9 0 21 -8t12 -34v-61h-20v59q0 30 -20 30q-8 0 -14.5 -5.5t-7.5 -11.5q0 -3 -1 -4.5t-1 -5.5v-62h-17v61
q0 28 -21 28q-8 0 -14 -5.5t-8 -11.5q-1 -4 -1 -11v-61h-18v73zM663 729h37l-20 100zM756 93v101h18v-101h-18zM236 48q-15 0 -22.5 -13t-7.5 -28t8.5 -27t21.5 -12q14 0 22.5 12t8.5 29q0 13 -7 26t-24 13zM99 7q0 23 14.5 38t37.5 15q18 0 25 -7l-3 -12q-2 1 -8.5 3
t-13.5 2q-17 0 -27 -11.5t-10 -27.5q0 -15 11 -26t26 -11q7 0 13.5 2t8.5 3l2 -12q-3 -3 -10 -5t-16 -2q-24 0 -37 13.5t-13 37.5zM765 211q-12 0 -12 11q0 12 12 12q11 0 11 -12q0 -11 -11 -11zM71 -44q-7 0 -10 4t-3 8q0 13 13 13q12 0 12 -13q0 -4 -3.5 -8t-8.5 -4z" />
    <glyph glyph-name="one" unicode="1" horiz-adv-x="819" 
d="M70 778q0 41 15.5 77.5t42.5 63.5t63.5 42.5t78.5 15.5h504v-977h-189v695q34 1 64.5 7t52.5 21t35 41t13 68q0 25 -7.5 47t-20 38.5t-30 26t-36.5 9.5q-20 0 -37 -7.5t-34 -20.5q-7 -5 -13.5 -10.5t-14.5 -11.5q-48 -42 -97 -71t-109 -47h-253v-24h291v-194h-108
q-44 0 -82.5 16.5t-67 45t-45 67t-16.5 82.5z" />
    <glyph glyph-name="two" unicode="2" horiz-adv-x="1013" 
d="M257 370q-7 18 -7 40v105q0 19 7 40q4 8 9.5 15.5t12.5 13.5q14 13 31 19.5t36 6.5t37 -6.5t32 -19.5q15 -11 21.5 -31t6.5 -38v-105q0 -42 -27.5 -69t-69.5 -27q-19 0 -36 6t-31 20q-14 12 -22 30zM354 906q24 0 39 -6q56 -26 56 -85q0 -55 -48 -81l53 -111h-72l-46 102
h-16v-102h-66v283h100zM547 604l65 -152v152h63v-283h-66l-66 154v-154h-63v283h67zM638 906h86l60 -283h-65l-9 46h-58l-9 -46h-65zM945 976v-39h-888v39h888zM945 294v-37h-888v37h888zM66 604h161v-64h-96v-51h86v-63h-86v-105h-65v283zM702 540v64h176v-64h-55v-219h-66
v219h-55zM50 906h175v-63h-54v-220h-66v220h-55v63zM815 906h65v-220h83v-63h-148v283zM547 906v-283h-65v283h65zM631 142q0 25 13 39.5t32 14.5q22 0 32 -15v60h18v-122v-13.5t1 -12.5h-17l-1 18q-9 -19 -34 -19q-19 0 -31.5 13.5t-12.5 36.5zM316 410q0 -32 30 -32t30 30
v107q0 15 -9 23q-9 9 -21 9t-21 -9q-9 -8 -9 -23v-105zM797 142q0 26 14.5 40t36.5 14q21 0 34 -14t13 -37q0 -29 -15.5 -41t-33.5 -12q-20 0 -34.5 13.5t-14.5 36.5zM558 92q-12 0 -23.5 8t-11.5 36v58h19v-56q0 -31 22 -31q11 0 18.5 7.5t7.5 18.5v61h18v-74q0 -6 0.5 -13
t0.5 -14h-16l-2 16q-2 -6 -10.5 -11.5t-22.5 -5.5zM816 144q0 -17 8 -28t22 -11t22 11t8 28q0 13 -6.5 25.5t-23.5 12.5q-15 0 -22.5 -11.5t-7.5 -26.5zM680 182q-15 0 -22.5 -11t-7.5 -27q0 -15 7 -27t22 -12q10 0 17.5 5.5t9.5 16.5q0 3 1 4.5t1 4.5v17q0 3 -1 4.5t-1 2.5
q-5 22 -26 22zM187 7q0 26 16 39.5t35 13.5q22 0 35 -13.5t13 -37.5q0 -27 -16 -40t-34 -13q-19 0 -34 13.5t-15 37.5zM157 214v15h85v-13l-59 -123h-19l59 121h-66zM349 229v-13l-59 -123h-19l59 121h-68v15h87zM371 112q9 -7 23 -7q21 0 21 15q0 10 -20 18q-26 10 -26 29
q0 12 9 20.5t26 8.5q13 0 24 -6l-4 -13q-8 5 -20 5q-18 0 -18 -14q0 -6 4.5 -9t14.5 -7q27 -11 27 -30q0 -30 -38 -30q-15 0 -29 7zM350 782q30 0 30 30q0 31 -30 31h-30v-61h30zM443 194h17v24l18 5v-29h26v-13h-26v-55q0 -19 13 -19q8 0 11 1v-14q-5 -2 -16 -2
q-17 0 -21.5 9.5t-4.5 24.5v55h-17v13zM88 229h17v-136h-18v118l-25 -12l-2 13zM309 30v15t-1 14h15v-18q5 8 12.5 13.5t21.5 5.5q18 0 27 -19q4 5 11 12q9 7 24 7q9 0 21 -8t12 -34v-61h-20v59q0 30 -20 30q-8 0 -14.5 -5.5t-7.5 -11.5q0 -3 -1 -4.5t-1 -5.5v-62h-17v61
q0 28 -21 28q-8 0 -14 -5.5t-8 -11.5q-1 -4 -1 -11v-61h-18v73zM663 729h37l-20 100zM756 93v101h18v-101h-18zM236 48q-15 0 -22.5 -13t-7.5 -28t8.5 -27t21.5 -12q14 0 22.5 12t8.5 29q0 13 -7 26t-24 13zM99 7q0 23 14.5 38t37.5 15q18 0 25 -7l-3 -12q-2 1 -8.5 3
t-13.5 2q-17 0 -27 -11.5t-10 -27.5q0 -15 11 -26t26 -11q7 0 13.5 2t8.5 3l2 -12q-3 -3 -10 -5t-16 -2q-24 0 -37 13.5t-13 37.5zM765 211q-12 0 -12 11q0 12 12 12q11 0 11 -12q0 -11 -11 -11zM71 -44q-7 0 -10 4t-3 8q0 13 13 13q12 0 12 -13q0 -4 -3.5 -8t-8.5 -4z" />
    <glyph glyph-name="three" unicode="3" horiz-adv-x="1013" 
d="M257 370q-7 18 -7 40v105q0 19 7 40q4 8 9.5 15.5t12.5 13.5q14 13 31 19.5t36 6.5t37 -6.5t32 -19.5q15 -11 21.5 -31t6.5 -38v-105q0 -42 -27.5 -69t-69.5 -27q-19 0 -36 6t-31 20q-14 12 -22 30zM354 906q24 0 39 -6q56 -26 56 -85q0 -55 -48 -81l53 -111h-72l-46 102
h-16v-102h-66v283h100zM547 604l65 -152v152h63v-283h-66l-66 154v-154h-63v283h67zM638 906h86l60 -283h-65l-9 46h-58l-9 -46h-65zM945 976v-39h-888v39h888zM945 294v-37h-888v37h888zM66 604h161v-64h-96v-51h86v-63h-86v-105h-65v283zM702 540v64h176v-64h-55v-219h-66
v219h-55zM50 906h175v-63h-54v-220h-66v220h-55v63zM815 906h65v-220h83v-63h-148v283zM547 906v-283h-65v283h65zM631 142q0 25 13 39.5t32 14.5q22 0 32 -15v60h18v-122v-13.5t1 -12.5h-17l-1 18q-9 -19 -34 -19q-19 0 -31.5 13.5t-12.5 36.5zM316 410q0 -32 30 -32t30 30
v107q0 15 -9 23q-9 9 -21 9t-21 -9q-9 -8 -9 -23v-105zM797 142q0 26 14.5 40t36.5 14q21 0 34 -14t13 -37q0 -29 -15.5 -41t-33.5 -12q-20 0 -34.5 13.5t-14.5 36.5zM558 92q-12 0 -23.5 8t-11.5 36v58h19v-56q0 -31 22 -31q11 0 18.5 7.5t7.5 18.5v61h18v-74q0 -6 0.5 -13
t0.5 -14h-16l-2 16q-2 -6 -10.5 -11.5t-22.5 -5.5zM816 144q0 -17 8 -28t22 -11t22 11t8 28q0 13 -6.5 25.5t-23.5 12.5q-15 0 -22.5 -11.5t-7.5 -26.5zM680 182q-15 0 -22.5 -11t-7.5 -27q0 -15 7 -27t22 -12q10 0 17.5 5.5t9.5 16.5q0 3 1 4.5t1 4.5v17q0 3 -1 4.5t-1 2.5
q-5 22 -26 22zM187 7q0 26 16 39.5t35 13.5q22 0 35 -13.5t13 -37.5q0 -27 -16 -40t-34 -13q-19 0 -34 13.5t-15 37.5zM157 214v15h85v-13l-59 -123h-19l59 121h-66zM349 229v-13l-59 -123h-19l59 121h-68v15h87zM371 112q9 -7 23 -7q21 0 21 15q0 10 -20 18q-26 10 -26 29
q0 12 9 20.5t26 8.5q13 0 24 -6l-4 -13q-8 5 -20 5q-18 0 -18 -14q0 -6 4.5 -9t14.5 -7q27 -11 27 -30q0 -30 -38 -30q-15 0 -29 7zM350 782q30 0 30 30q0 31 -30 31h-30v-61h30zM443 194h17v24l18 5v-29h26v-13h-26v-55q0 -19 13 -19q8 0 11 1v-14q-5 -2 -16 -2
q-17 0 -21.5 9.5t-4.5 24.5v55h-17v13zM88 229h17v-136h-18v118l-25 -12l-2 13zM309 30v15t-1 14h15v-18q5 8 12.5 13.5t21.5 5.5q18 0 27 -19q4 5 11 12q9 7 24 7q9 0 21 -8t12 -34v-61h-20v59q0 30 -20 30q-8 0 -14.5 -5.5t-7.5 -11.5q0 -3 -1 -4.5t-1 -5.5v-62h-17v61
q0 28 -21 28q-8 0 -14 -5.5t-8 -11.5q-1 -4 -1 -11v-61h-18v73zM663 729h37l-20 100zM756 93v101h18v-101h-18zM236 48q-15 0 -22.5 -13t-7.5 -28t8.5 -27t21.5 -12q14 0 22.5 12t8.5 29q0 13 -7 26t-24 13zM99 7q0 23 14.5 38t37.5 15q18 0 25 -7l-3 -12q-2 1 -8.5 3
t-13.5 2q-17 0 -27 -11.5t-10 -27.5q0 -15 11 -26t26 -11q7 0 13.5 2t8.5 3l2 -12q-3 -3 -10 -5t-16 -2q-24 0 -37 13.5t-13 37.5zM765 211q-12 0 -12 11q0 12 12 12q11 0 11 -12q0 -11 -11 -11zM71 -44q-7 0 -10 4t-3 8q0 13 13 13q12 0 12 -13q0 -4 -3.5 -8t-8.5 -4z" />
    <glyph glyph-name="four" unicode="4" horiz-adv-x="1013" 
d="M257 370q-7 18 -7 40v105q0 19 7 40q4 8 9.5 15.5t12.5 13.5q14 13 31 19.5t36 6.5t37 -6.5t32 -19.5q15 -11 21.5 -31t6.5 -38v-105q0 -42 -27.5 -69t-69.5 -27q-19 0 -36 6t-31 20q-14 12 -22 30zM354 906q24 0 39 -6q56 -26 56 -85q0 -55 -48 -81l53 -111h-72l-46 102
h-16v-102h-66v283h100zM547 604l65 -152v152h63v-283h-66l-66 154v-154h-63v283h67zM638 906h86l60 -283h-65l-9 46h-58l-9 -46h-65zM945 976v-39h-888v39h888zM945 294v-37h-888v37h888zM66 604h161v-64h-96v-51h86v-63h-86v-105h-65v283zM702 540v64h176v-64h-55v-219h-66
v219h-55zM50 906h175v-63h-54v-220h-66v220h-55v63zM815 906h65v-220h83v-63h-148v283zM547 906v-283h-65v283h65zM631 142q0 25 13 39.5t32 14.5q22 0 32 -15v60h18v-122v-13.5t1 -12.5h-17l-1 18q-9 -19 -34 -19q-19 0 -31.5 13.5t-12.5 36.5zM316 410q0 -32 30 -32t30 30
v107q0 15 -9 23q-9 9 -21 9t-21 -9q-9 -8 -9 -23v-105zM797 142q0 26 14.5 40t36.5 14q21 0 34 -14t13 -37q0 -29 -15.5 -41t-33.5 -12q-20 0 -34.5 13.5t-14.5 36.5zM558 92q-12 0 -23.5 8t-11.5 36v58h19v-56q0 -31 22 -31q11 0 18.5 7.5t7.5 18.5v61h18v-74q0 -6 0.5 -13
t0.5 -14h-16l-2 16q-2 -6 -10.5 -11.5t-22.5 -5.5zM816 144q0 -17 8 -28t22 -11t22 11t8 28q0 13 -6.5 25.5t-23.5 12.5q-15 0 -22.5 -11.5t-7.5 -26.5zM680 182q-15 0 -22.5 -11t-7.5 -27q0 -15 7 -27t22 -12q10 0 17.5 5.5t9.5 16.5q0 3 1 4.5t1 4.5v17q0 3 -1 4.5t-1 2.5
q-5 22 -26 22zM187 7q0 26 16 39.5t35 13.5q22 0 35 -13.5t13 -37.5q0 -27 -16 -40t-34 -13q-19 0 -34 13.5t-15 37.5zM157 214v15h85v-13l-59 -123h-19l59 121h-66zM349 229v-13l-59 -123h-19l59 121h-68v15h87zM371 112q9 -7 23 -7q21 0 21 15q0 10 -20 18q-26 10 -26 29
q0 12 9 20.5t26 8.5q13 0 24 -6l-4 -13q-8 5 -20 5q-18 0 -18 -14q0 -6 4.5 -9t14.5 -7q27 -11 27 -30q0 -30 -38 -30q-15 0 -29 7zM350 782q30 0 30 30q0 31 -30 31h-30v-61h30zM443 194h17v24l18 5v-29h26v-13h-26v-55q0 -19 13 -19q8 0 11 1v-14q-5 -2 -16 -2
q-17 0 -21.5 9.5t-4.5 24.5v55h-17v13zM88 229h17v-136h-18v118l-25 -12l-2 13zM309 30v15t-1 14h15v-18q5 8 12.5 13.5t21.5 5.5q18 0 27 -19q4 5 11 12q9 7 24 7q9 0 21 -8t12 -34v-61h-20v59q0 30 -20 30q-8 0 -14.5 -5.5t-7.5 -11.5q0 -3 -1 -4.5t-1 -5.5v-62h-17v61
q0 28 -21 28q-8 0 -14 -5.5t-8 -11.5q-1 -4 -1 -11v-61h-18v73zM663 729h37l-20 100zM756 93v101h18v-101h-18zM236 48q-15 0 -22.5 -13t-7.5 -28t8.5 -27t21.5 -12q14 0 22.5 12t8.5 29q0 13 -7 26t-24 13zM99 7q0 23 14.5 38t37.5 15q18 0 25 -7l-3 -12q-2 1 -8.5 3
t-13.5 2q-17 0 -27 -11.5t-10 -27.5q0 -15 11 -26t26 -11q7 0 13.5 2t8.5 3l2 -12q-3 -3 -10 -5t-16 -2q-24 0 -37 13.5t-13 37.5zM765 211q-12 0 -12 11q0 12 12 12q11 0 11 -12q0 -11 -11 -11zM71 -44q-7 0 -10 4t-3 8q0 13 13 13q12 0 12 -13q0 -4 -3.5 -8t-8.5 -4z" />
    <glyph glyph-name="five" unicode="5" horiz-adv-x="1013" 
d="M257 370q-7 18 -7 40v105q0 19 7 40q4 8 9.5 15.5t12.5 13.5q14 13 31 19.5t36 6.5t37 -6.5t32 -19.5q15 -11 21.5 -31t6.5 -38v-105q0 -42 -27.5 -69t-69.5 -27q-19 0 -36 6t-31 20q-14 12 -22 30zM354 906q24 0 39 -6q56 -26 56 -85q0 -55 -48 -81l53 -111h-72l-46 102
h-16v-102h-66v283h100zM547 604l65 -152v152h63v-283h-66l-66 154v-154h-63v283h67zM638 906h86l60 -283h-65l-9 46h-58l-9 -46h-65zM945 976v-39h-888v39h888zM945 294v-37h-888v37h888zM66 604h161v-64h-96v-51h86v-63h-86v-105h-65v283zM702 540v64h176v-64h-55v-219h-66
v219h-55zM50 906h175v-63h-54v-220h-66v220h-55v63zM815 906h65v-220h83v-63h-148v283zM547 906v-283h-65v283h65zM631 142q0 25 13 39.5t32 14.5q22 0 32 -15v60h18v-122v-13.5t1 -12.5h-17l-1 18q-9 -19 -34 -19q-19 0 -31.5 13.5t-12.5 36.5zM316 410q0 -32 30 -32t30 30
v107q0 15 -9 23q-9 9 -21 9t-21 -9q-9 -8 -9 -23v-105zM797 142q0 26 14.5 40t36.5 14q21 0 34 -14t13 -37q0 -29 -15.5 -41t-33.5 -12q-20 0 -34.5 13.5t-14.5 36.5zM558 92q-12 0 -23.5 8t-11.5 36v58h19v-56q0 -31 22 -31q11 0 18.5 7.5t7.5 18.5v61h18v-74q0 -6 0.5 -13
t0.5 -14h-16l-2 16q-2 -6 -10.5 -11.5t-22.5 -5.5zM816 144q0 -17 8 -28t22 -11t22 11t8 28q0 13 -6.5 25.5t-23.5 12.5q-15 0 -22.5 -11.5t-7.5 -26.5zM680 182q-15 0 -22.5 -11t-7.5 -27q0 -15 7 -27t22 -12q10 0 17.5 5.5t9.5 16.5q0 3 1 4.5t1 4.5v17q0 3 -1 4.5t-1 2.5
q-5 22 -26 22zM187 7q0 26 16 39.5t35 13.5q22 0 35 -13.5t13 -37.5q0 -27 -16 -40t-34 -13q-19 0 -34 13.5t-15 37.5zM157 214v15h85v-13l-59 -123h-19l59 121h-66zM349 229v-13l-59 -123h-19l59 121h-68v15h87zM371 112q9 -7 23 -7q21 0 21 15q0 10 -20 18q-26 10 -26 29
q0 12 9 20.5t26 8.5q13 0 24 -6l-4 -13q-8 5 -20 5q-18 0 -18 -14q0 -6 4.5 -9t14.5 -7q27 -11 27 -30q0 -30 -38 -30q-15 0 -29 7zM350 782q30 0 30 30q0 31 -30 31h-30v-61h30zM443 194h17v24l18 5v-29h26v-13h-26v-55q0 -19 13 -19q8 0 11 1v-14q-5 -2 -16 -2
q-17 0 -21.5 9.5t-4.5 24.5v55h-17v13zM88 229h17v-136h-18v118l-25 -12l-2 13zM309 30v15t-1 14h15v-18q5 8 12.5 13.5t21.5 5.5q18 0 27 -19q4 5 11 12q9 7 24 7q9 0 21 -8t12 -34v-61h-20v59q0 30 -20 30q-8 0 -14.5 -5.5t-7.5 -11.5q0 -3 -1 -4.5t-1 -5.5v-62h-17v61
q0 28 -21 28q-8 0 -14 -5.5t-8 -11.5q-1 -4 -1 -11v-61h-18v73zM663 729h37l-20 100zM756 93v101h18v-101h-18zM236 48q-15 0 -22.5 -13t-7.5 -28t8.5 -27t21.5 -12q14 0 22.5 12t8.5 29q0 13 -7 26t-24 13zM99 7q0 23 14.5 38t37.5 15q18 0 25 -7l-3 -12q-2 1 -8.5 3
t-13.5 2q-17 0 -27 -11.5t-10 -27.5q0 -15 11 -26t26 -11q7 0 13.5 2t8.5 3l2 -12q-3 -3 -10 -5t-16 -2q-24 0 -37 13.5t-13 37.5zM765 211q-12 0 -12 11q0 12 12 12q11 0 11 -12q0 -11 -11 -11zM71 -44q-7 0 -10 4t-3 8q0 13 13 13q12 0 12 -13q0 -4 -3.5 -8t-8.5 -4z" />
    <glyph glyph-name="six" unicode="6" horiz-adv-x="1013" 
d="M257 370q-7 18 -7 40v105q0 19 7 40q4 8 9.5 15.5t12.5 13.5q14 13 31 19.5t36 6.5t37 -6.5t32 -19.5q15 -11 21.5 -31t6.5 -38v-105q0 -42 -27.5 -69t-69.5 -27q-19 0 -36 6t-31 20q-14 12 -22 30zM354 906q24 0 39 -6q56 -26 56 -85q0 -55 -48 -81l53 -111h-72l-46 102
h-16v-102h-66v283h100zM547 604l65 -152v152h63v-283h-66l-66 154v-154h-63v283h67zM638 906h86l60 -283h-65l-9 46h-58l-9 -46h-65zM945 976v-39h-888v39h888zM945 294v-37h-888v37h888zM66 604h161v-64h-96v-51h86v-63h-86v-105h-65v283zM702 540v64h176v-64h-55v-219h-66
v219h-55zM50 906h175v-63h-54v-220h-66v220h-55v63zM815 906h65v-220h83v-63h-148v283zM547 906v-283h-65v283h65zM631 142q0 25 13 39.5t32 14.5q22 0 32 -15v60h18v-122v-13.5t1 -12.5h-17l-1 18q-9 -19 -34 -19q-19 0 -31.5 13.5t-12.5 36.5zM316 410q0 -32 30 -32t30 30
v107q0 15 -9 23q-9 9 -21 9t-21 -9q-9 -8 -9 -23v-105zM797 142q0 26 14.5 40t36.5 14q21 0 34 -14t13 -37q0 -29 -15.5 -41t-33.5 -12q-20 0 -34.5 13.5t-14.5 36.5zM558 92q-12 0 -23.5 8t-11.5 36v58h19v-56q0 -31 22 -31q11 0 18.5 7.5t7.5 18.5v61h18v-74q0 -6 0.5 -13
t0.5 -14h-16l-2 16q-2 -6 -10.5 -11.5t-22.5 -5.5zM816 144q0 -17 8 -28t22 -11t22 11t8 28q0 13 -6.5 25.5t-23.5 12.5q-15 0 -22.5 -11.5t-7.5 -26.5zM680 182q-15 0 -22.5 -11t-7.5 -27q0 -15 7 -27t22 -12q10 0 17.5 5.5t9.5 16.5q0 3 1 4.5t1 4.5v17q0 3 -1 4.5t-1 2.5
q-5 22 -26 22zM187 7q0 26 16 39.5t35 13.5q22 0 35 -13.5t13 -37.5q0 -27 -16 -40t-34 -13q-19 0 -34 13.5t-15 37.5zM157 214v15h85v-13l-59 -123h-19l59 121h-66zM349 229v-13l-59 -123h-19l59 121h-68v15h87zM371 112q9 -7 23 -7q21 0 21 15q0 10 -20 18q-26 10 -26 29
q0 12 9 20.5t26 8.5q13 0 24 -6l-4 -13q-8 5 -20 5q-18 0 -18 -14q0 -6 4.5 -9t14.5 -7q27 -11 27 -30q0 -30 -38 -30q-15 0 -29 7zM350 782q30 0 30 30q0 31 -30 31h-30v-61h30zM443 194h17v24l18 5v-29h26v-13h-26v-55q0 -19 13 -19q8 0 11 1v-14q-5 -2 -16 -2
q-17 0 -21.5 9.5t-4.5 24.5v55h-17v13zM88 229h17v-136h-18v118l-25 -12l-2 13zM309 30v15t-1 14h15v-18q5 8 12.5 13.5t21.5 5.5q18 0 27 -19q4 5 11 12q9 7 24 7q9 0 21 -8t12 -34v-61h-20v59q0 30 -20 30q-8 0 -14.5 -5.5t-7.5 -11.5q0 -3 -1 -4.5t-1 -5.5v-62h-17v61
q0 28 -21 28q-8 0 -14 -5.5t-8 -11.5q-1 -4 -1 -11v-61h-18v73zM663 729h37l-20 100zM756 93v101h18v-101h-18zM236 48q-15 0 -22.5 -13t-7.5 -28t8.5 -27t21.5 -12q14 0 22.5 12t8.5 29q0 13 -7 26t-24 13zM99 7q0 23 14.5 38t37.5 15q18 0 25 -7l-3 -12q-2 1 -8.5 3
t-13.5 2q-17 0 -27 -11.5t-10 -27.5q0 -15 11 -26t26 -11q7 0 13.5 2t8.5 3l2 -12q-3 -3 -10 -5t-16 -2q-24 0 -37 13.5t-13 37.5zM765 211q-12 0 -12 11q0 12 12 12q11 0 11 -12q0 -11 -11 -11zM71 -44q-7 0 -10 4t-3 8q0 13 13 13q12 0 12 -13q0 -4 -3.5 -8t-8.5 -4z" />
    <glyph glyph-name="seven" unicode="7" horiz-adv-x="1057" 
d="M70 977h861q24 0 45.5 -9t37 -24.5t25 -36.5t9.5 -45v-120q0 -37 -14.5 -70t-39 -57.5t-58 -38.5t-70.5 -14v-562h-199v756h336q8 17 11.5 34.5t3.5 36.5q0 25 -7.5 47t-20 38.5t-29.5 26t-36 9.5q-29 0 -51.5 -14.5t-48.5 -36.5q-32 -29 -60.5 -48t-54 -32.5t-48.5 -22
t-45 -15.5h-547v198z" />
    <glyph glyph-name="eight" unicode="8" horiz-adv-x="1013" 
d="M257 370q-7 18 -7 40v105q0 19 7 40q4 8 9.5 15.5t12.5 13.5q14 13 31 19.5t36 6.5t37 -6.5t32 -19.5q15 -11 21.5 -31t6.5 -38v-105q0 -42 -27.5 -69t-69.5 -27q-19 0 -36 6t-31 20q-14 12 -22 30zM354 906q24 0 39 -6q56 -26 56 -85q0 -55 -48 -81l53 -111h-72l-46 102
h-16v-102h-66v283h100zM547 604l65 -152v152h63v-283h-66l-66 154v-154h-63v283h67zM638 906h86l60 -283h-65l-9 46h-58l-9 -46h-65zM945 976v-39h-888v39h888zM945 294v-37h-888v37h888zM66 604h161v-64h-96v-51h86v-63h-86v-105h-65v283zM702 540v64h176v-64h-55v-219h-66
v219h-55zM50 906h175v-63h-54v-220h-66v220h-55v63zM815 906h65v-220h83v-63h-148v283zM547 906v-283h-65v283h65zM631 142q0 25 13 39.5t32 14.5q22 0 32 -15v60h18v-122v-13.5t1 -12.5h-17l-1 18q-9 -19 -34 -19q-19 0 -31.5 13.5t-12.5 36.5zM316 410q0 -32 30 -32t30 30
v107q0 15 -9 23q-9 9 -21 9t-21 -9q-9 -8 -9 -23v-105zM797 142q0 26 14.5 40t36.5 14q21 0 34 -14t13 -37q0 -29 -15.5 -41t-33.5 -12q-20 0 -34.5 13.5t-14.5 36.5zM558 92q-12 0 -23.5 8t-11.5 36v58h19v-56q0 -31 22 -31q11 0 18.5 7.5t7.5 18.5v61h18v-74q0 -6 0.5 -13
t0.5 -14h-16l-2 16q-2 -6 -10.5 -11.5t-22.5 -5.5zM816 144q0 -17 8 -28t22 -11t22 11t8 28q0 13 -6.5 25.5t-23.5 12.5q-15 0 -22.5 -11.5t-7.5 -26.5zM680 182q-15 0 -22.5 -11t-7.5 -27q0 -15 7 -27t22 -12q10 0 17.5 5.5t9.5 16.5q0 3 1 4.5t1 4.5v17q0 3 -1 4.5t-1 2.5
q-5 22 -26 22zM187 7q0 26 16 39.5t35 13.5q22 0 35 -13.5t13 -37.5q0 -27 -16 -40t-34 -13q-19 0 -34 13.5t-15 37.5zM157 214v15h85v-13l-59 -123h-19l59 121h-66zM349 229v-13l-59 -123h-19l59 121h-68v15h87zM371 112q9 -7 23 -7q21 0 21 15q0 10 -20 18q-26 10 -26 29
q0 12 9 20.5t26 8.5q13 0 24 -6l-4 -13q-8 5 -20 5q-18 0 -18 -14q0 -6 4.5 -9t14.5 -7q27 -11 27 -30q0 -30 -38 -30q-15 0 -29 7zM350 782q30 0 30 30q0 31 -30 31h-30v-61h30zM443 194h17v24l18 5v-29h26v-13h-26v-55q0 -19 13 -19q8 0 11 1v-14q-5 -2 -16 -2
q-17 0 -21.5 9.5t-4.5 24.5v55h-17v13zM88 229h17v-136h-18v118l-25 -12l-2 13zM309 30v15t-1 14h15v-18q5 8 12.5 13.5t21.5 5.5q18 0 27 -19q4 5 11 12q9 7 24 7q9 0 21 -8t12 -34v-61h-20v59q0 30 -20 30q-8 0 -14.5 -5.5t-7.5 -11.5q0 -3 -1 -4.5t-1 -5.5v-62h-17v61
q0 28 -21 28q-8 0 -14 -5.5t-8 -11.5q-1 -4 -1 -11v-61h-18v73zM663 729h37l-20 100zM756 93v101h18v-101h-18zM236 48q-15 0 -22.5 -13t-7.5 -28t8.5 -27t21.5 -12q14 0 22.5 12t8.5 29q0 13 -7 26t-24 13zM99 7q0 23 14.5 38t37.5 15q18 0 25 -7l-3 -12q-2 1 -8.5 3
t-13.5 2q-17 0 -27 -11.5t-10 -27.5q0 -15 11 -26t26 -11q7 0 13.5 2t8.5 3l2 -12q-3 -3 -10 -5t-16 -2q-24 0 -37 13.5t-13 37.5zM765 211q-12 0 -12 11q0 12 12 12q11 0 11 -12q0 -11 -11 -11zM71 -44q-7 0 -10 4t-3 8q0 13 13 13q12 0 12 -13q0 -4 -3.5 -8t-8.5 -4z" />
    <glyph glyph-name="nine" unicode="9" horiz-adv-x="1013" 
d="M257 370q-7 18 -7 40v105q0 19 7 40q4 8 9.5 15.5t12.5 13.5q14 13 31 19.5t36 6.5t37 -6.5t32 -19.5q15 -11 21.5 -31t6.5 -38v-105q0 -42 -27.5 -69t-69.5 -27q-19 0 -36 6t-31 20q-14 12 -22 30zM354 906q24 0 39 -6q56 -26 56 -85q0 -55 -48 -81l53 -111h-72l-46 102
h-16v-102h-66v283h100zM547 604l65 -152v152h63v-283h-66l-66 154v-154h-63v283h67zM638 906h86l60 -283h-65l-9 46h-58l-9 -46h-65zM945 976v-39h-888v39h888zM945 294v-37h-888v37h888zM66 604h161v-64h-96v-51h86v-63h-86v-105h-65v283zM702 540v64h176v-64h-55v-219h-66
v219h-55zM50 906h175v-63h-54v-220h-66v220h-55v63zM815 906h65v-220h83v-63h-148v283zM547 906v-283h-65v283h65zM631 142q0 25 13 39.5t32 14.5q22 0 32 -15v60h18v-122v-13.5t1 -12.5h-17l-1 18q-9 -19 -34 -19q-19 0 -31.5 13.5t-12.5 36.5zM316 410q0 -32 30 -32t30 30
v107q0 15 -9 23q-9 9 -21 9t-21 -9q-9 -8 -9 -23v-105zM797 142q0 26 14.5 40t36.5 14q21 0 34 -14t13 -37q0 -29 -15.5 -41t-33.5 -12q-20 0 -34.5 13.5t-14.5 36.5zM558 92q-12 0 -23.5 8t-11.5 36v58h19v-56q0 -31 22 -31q11 0 18.5 7.5t7.5 18.5v61h18v-74q0 -6 0.5 -13
t0.5 -14h-16l-2 16q-2 -6 -10.5 -11.5t-22.5 -5.5zM816 144q0 -17 8 -28t22 -11t22 11t8 28q0 13 -6.5 25.5t-23.5 12.5q-15 0 -22.5 -11.5t-7.5 -26.5zM680 182q-15 0 -22.5 -11t-7.5 -27q0 -15 7 -27t22 -12q10 0 17.5 5.5t9.5 16.5q0 3 1 4.5t1 4.5v17q0 3 -1 4.5t-1 2.5
q-5 22 -26 22zM187 7q0 26 16 39.5t35 13.5q22 0 35 -13.5t13 -37.5q0 -27 -16 -40t-34 -13q-19 0 -34 13.5t-15 37.5zM157 214v15h85v-13l-59 -123h-19l59 121h-66zM349 229v-13l-59 -123h-19l59 121h-68v15h87zM371 112q9 -7 23 -7q21 0 21 15q0 10 -20 18q-26 10 -26 29
q0 12 9 20.5t26 8.5q13 0 24 -6l-4 -13q-8 5 -20 5q-18 0 -18 -14q0 -6 4.5 -9t14.5 -7q27 -11 27 -30q0 -30 -38 -30q-15 0 -29 7zM350 782q30 0 30 30q0 31 -30 31h-30v-61h30zM443 194h17v24l18 5v-29h26v-13h-26v-55q0 -19 13 -19q8 0 11 1v-14q-5 -2 -16 -2
q-17 0 -21.5 9.5t-4.5 24.5v55h-17v13zM88 229h17v-136h-18v118l-25 -12l-2 13zM309 30v15t-1 14h15v-18q5 8 12.5 13.5t21.5 5.5q18 0 27 -19q4 5 11 12q9 7 24 7q9 0 21 -8t12 -34v-61h-20v59q0 30 -20 30q-8 0 -14.5 -5.5t-7.5 -11.5q0 -3 -1 -4.5t-1 -5.5v-62h-17v61
q0 28 -21 28q-8 0 -14 -5.5t-8 -11.5q-1 -4 -1 -11v-61h-18v73zM663 729h37l-20 100zM756 93v101h18v-101h-18zM236 48q-15 0 -22.5 -13t-7.5 -28t8.5 -27t21.5 -12q14 0 22.5 12t8.5 29q0 13 -7 26t-24 13zM99 7q0 23 14.5 38t37.5 15q18 0 25 -7l-3 -12q-2 1 -8.5 3
t-13.5 2q-17 0 -27 -11.5t-10 -27.5q0 -15 11 -26t26 -11q7 0 13.5 2t8.5 3l2 -12q-3 -3 -10 -5t-16 -2q-24 0 -37 13.5t-13 37.5zM765 211q-12 0 -12 11q0 12 12 12q11 0 11 -12q0 -11 -11 -11zM71 -44q-7 0 -10 4t-3 8q0 13 13 13q12 0 12 -13q0 -4 -3.5 -8t-8.5 -4z" />
    <glyph glyph-name="colon" unicode=":" horiz-adv-x="1013" 
d="M257 370q-7 18 -7 40v105q0 19 7 40q4 8 9.5 15.5t12.5 13.5q14 13 31 19.5t36 6.5t37 -6.5t32 -19.5q15 -11 21.5 -31t6.5 -38v-105q0 -42 -27.5 -69t-69.5 -27q-19 0 -36 6t-31 20q-14 12 -22 30zM354 906q24 0 39 -6q56 -26 56 -85q0 -55 -48 -81l53 -111h-72l-46 102
h-16v-102h-66v283h100zM547 604l65 -152v152h63v-283h-66l-66 154v-154h-63v283h67zM638 906h86l60 -283h-65l-9 46h-58l-9 -46h-65zM945 976v-39h-888v39h888zM945 294v-37h-888v37h888zM66 604h161v-64h-96v-51h86v-63h-86v-105h-65v283zM702 540v64h176v-64h-55v-219h-66
v219h-55zM50 906h175v-63h-54v-220h-66v220h-55v63zM815 906h65v-220h83v-63h-148v283zM547 906v-283h-65v283h65zM631 142q0 25 13 39.5t32 14.5q22 0 32 -15v60h18v-122v-13.5t1 -12.5h-17l-1 18q-9 -19 -34 -19q-19 0 -31.5 13.5t-12.5 36.5zM316 410q0 -32 30 -32t30 30
v107q0 15 -9 23q-9 9 -21 9t-21 -9q-9 -8 -9 -23v-105zM797 142q0 26 14.5 40t36.5 14q21 0 34 -14t13 -37q0 -29 -15.5 -41t-33.5 -12q-20 0 -34.5 13.5t-14.5 36.5zM558 92q-12 0 -23.5 8t-11.5 36v58h19v-56q0 -31 22 -31q11 0 18.5 7.5t7.5 18.5v61h18v-74q0 -6 0.5 -13
t0.5 -14h-16l-2 16q-2 -6 -10.5 -11.5t-22.5 -5.5zM816 144q0 -17 8 -28t22 -11t22 11t8 28q0 13 -6.5 25.5t-23.5 12.5q-15 0 -22.5 -11.5t-7.5 -26.5zM680 182q-15 0 -22.5 -11t-7.5 -27q0 -15 7 -27t22 -12q10 0 17.5 5.5t9.5 16.5q0 3 1 4.5t1 4.5v17q0 3 -1 4.5t-1 2.5
q-5 22 -26 22zM187 7q0 26 16 39.5t35 13.5q22 0 35 -13.5t13 -37.5q0 -27 -16 -40t-34 -13q-19 0 -34 13.5t-15 37.5zM157 214v15h85v-13l-59 -123h-19l59 121h-66zM349 229v-13l-59 -123h-19l59 121h-68v15h87zM371 112q9 -7 23 -7q21 0 21 15q0 10 -20 18q-26 10 -26 29
q0 12 9 20.5t26 8.5q13 0 24 -6l-4 -13q-8 5 -20 5q-18 0 -18 -14q0 -6 4.5 -9t14.5 -7q27 -11 27 -30q0 -30 -38 -30q-15 0 -29 7zM350 782q30 0 30 30q0 31 -30 31h-30v-61h30zM443 194h17v24l18 5v-29h26v-13h-26v-55q0 -19 13 -19q8 0 11 1v-14q-5 -2 -16 -2
q-17 0 -21.5 9.5t-4.5 24.5v55h-17v13zM88 229h17v-136h-18v118l-25 -12l-2 13zM309 30v15t-1 14h15v-18q5 8 12.5 13.5t21.5 5.5q18 0 27 -19q4 5 11 12q9 7 24 7q9 0 21 -8t12 -34v-61h-20v59q0 30 -20 30q-8 0 -14.5 -5.5t-7.5 -11.5q0 -3 -1 -4.5t-1 -5.5v-62h-17v61
q0 28 -21 28q-8 0 -14 -5.5t-8 -11.5q-1 -4 -1 -11v-61h-18v73zM663 729h37l-20 100zM756 93v101h18v-101h-18zM236 48q-15 0 -22.5 -13t-7.5 -28t8.5 -27t21.5 -12q14 0 22.5 12t8.5 29q0 13 -7 26t-24 13zM99 7q0 23 14.5 38t37.5 15q18 0 25 -7l-3 -12q-2 1 -8.5 3
t-13.5 2q-17 0 -27 -11.5t-10 -27.5q0 -15 11 -26t26 -11q7 0 13.5 2t8.5 3l2 -12q-3 -3 -10 -5t-16 -2q-24 0 -37 13.5t-13 37.5zM765 211q-12 0 -12 11q0 12 12 12q11 0 11 -12q0 -11 -11 -11zM71 -44q-7 0 -10 4t-3 8q0 13 13 13q12 0 12 -13q0 -4 -3.5 -8t-8.5 -4z" />
    <glyph glyph-name="semicolon" unicode=";" horiz-adv-x="1013" 
d="M257 370q-7 18 -7 40v105q0 19 7 40q4 8 9.5 15.5t12.5 13.5q14 13 31 19.5t36 6.5t37 -6.5t32 -19.5q15 -11 21.5 -31t6.5 -38v-105q0 -42 -27.5 -69t-69.5 -27q-19 0 -36 6t-31 20q-14 12 -22 30zM354 906q24 0 39 -6q56 -26 56 -85q0 -55 -48 -81l53 -111h-72l-46 102
h-16v-102h-66v283h100zM547 604l65 -152v152h63v-283h-66l-66 154v-154h-63v283h67zM638 906h86l60 -283h-65l-9 46h-58l-9 -46h-65zM945 976v-39h-888v39h888zM945 294v-37h-888v37h888zM66 604h161v-64h-96v-51h86v-63h-86v-105h-65v283zM702 540v64h176v-64h-55v-219h-66
v219h-55zM50 906h175v-63h-54v-220h-66v220h-55v63zM815 906h65v-220h83v-63h-148v283zM547 906v-283h-65v283h65zM631 142q0 25 13 39.5t32 14.5q22 0 32 -15v60h18v-122v-13.5t1 -12.5h-17l-1 18q-9 -19 -34 -19q-19 0 -31.5 13.5t-12.5 36.5zM316 410q0 -32 30 -32t30 30
v107q0 15 -9 23q-9 9 -21 9t-21 -9q-9 -8 -9 -23v-105zM797 142q0 26 14.5 40t36.5 14q21 0 34 -14t13 -37q0 -29 -15.5 -41t-33.5 -12q-20 0 -34.5 13.5t-14.5 36.5zM558 92q-12 0 -23.5 8t-11.5 36v58h19v-56q0 -31 22 -31q11 0 18.5 7.5t7.5 18.5v61h18v-74q0 -6 0.5 -13
t0.5 -14h-16l-2 16q-2 -6 -10.5 -11.5t-22.5 -5.5zM816 144q0 -17 8 -28t22 -11t22 11t8 28q0 13 -6.5 25.5t-23.5 12.5q-15 0 -22.5 -11.5t-7.5 -26.5zM680 182q-15 0 -22.5 -11t-7.5 -27q0 -15 7 -27t22 -12q10 0 17.5 5.5t9.5 16.5q0 3 1 4.5t1 4.5v17q0 3 -1 4.5t-1 2.5
q-5 22 -26 22zM187 7q0 26 16 39.5t35 13.5q22 0 35 -13.5t13 -37.5q0 -27 -16 -40t-34 -13q-19 0 -34 13.5t-15 37.5zM157 214v15h85v-13l-59 -123h-19l59 121h-66zM349 229v-13l-59 -123h-19l59 121h-68v15h87zM371 112q9 -7 23 -7q21 0 21 15q0 10 -20 18q-26 10 -26 29
q0 12 9 20.5t26 8.5q13 0 24 -6l-4 -13q-8 5 -20 5q-18 0 -18 -14q0 -6 4.5 -9t14.5 -7q27 -11 27 -30q0 -30 -38 -30q-15 0 -29 7zM350 782q30 0 30 30q0 31 -30 31h-30v-61h30zM443 194h17v24l18 5v-29h26v-13h-26v-55q0 -19 13 -19q8 0 11 1v-14q-5 -2 -16 -2
q-17 0 -21.5 9.5t-4.5 24.5v55h-17v13zM88 229h17v-136h-18v118l-25 -12l-2 13zM309 30v15t-1 14h15v-18q5 8 12.5 13.5t21.5 5.5q18 0 27 -19q4 5 11 12q9 7 24 7q9 0 21 -8t12 -34v-61h-20v59q0 30 -20 30q-8 0 -14.5 -5.5t-7.5 -11.5q0 -3 -1 -4.5t-1 -5.5v-62h-17v61
q0 28 -21 28q-8 0 -14 -5.5t-8 -11.5q-1 -4 -1 -11v-61h-18v73zM663 729h37l-20 100zM756 93v101h18v-101h-18zM236 48q-15 0 -22.5 -13t-7.5 -28t8.5 -27t21.5 -12q14 0 22.5 12t8.5 29q0 13 -7 26t-24 13zM99 7q0 23 14.5 38t37.5 15q18 0 25 -7l-3 -12q-2 1 -8.5 3
t-13.5 2q-17 0 -27 -11.5t-10 -27.5q0 -15 11 -26t26 -11q7 0 13.5 2t8.5 3l2 -12q-3 -3 -10 -5t-16 -2q-24 0 -37 13.5t-13 37.5zM765 211q-12 0 -12 11q0 12 12 12q11 0 11 -12q0 -11 -11 -11zM71 -44q-7 0 -10 4t-3 8q0 13 13 13q12 0 12 -13q0 -4 -3.5 -8t-8.5 -4z" />
    <glyph glyph-name="less" unicode="&#x3c;" horiz-adv-x="506" 
d="M92 538q-28 -21 -34 -50.5t3.5 -56t31.5 -45t50 -18.5q25 0 45.5 11t40.5 28l239 -71v-204q-14 8 -41 24t-60.5 36.5t-72.5 44t-77 46.5q-90 54 -194 117v126q5 2 10 6q5 3 11.5 7t14.5 9q103 60 204.5 121.5t204.5 123.5v-204l-244 -72q-20 17 -40 27.5t-45 10.5
q-27 0 -47 -17z" />
    <glyph glyph-name="equal" unicode="=" horiz-adv-x="510" 
d="M32 254v128h445v-128h-445zM477 635v-127h-445v127h445z" />
    <glyph glyph-name="greater" unicode="&#x3e;" horiz-adv-x="504" 
d="M37 349l238 72q20 -17 40.5 -28t46.5 -11q28 0 50 18.5t31.5 45.5t4 56t-33.5 50q-11 8 -22.5 12.5t-25.5 4.5q-25 0 -45 -11t-40 -28l-244 74v202q103 -62 204 -123t204 -121q8 -5 15 -9t12 -7l9 -6v-127q-104 -63 -194 -117q-38 -23 -77 -46t-72.5 -43.5t-60 -36.5
t-40.5 -24v203z" />
    <glyph glyph-name="question" unicode="?" horiz-adv-x="1013" 
d="M257 370q-7 18 -7 40v105q0 19 7 40q4 8 9.5 15.5t12.5 13.5q14 13 31 19.5t36 6.5t37 -6.5t32 -19.5q15 -11 21.5 -31t6.5 -38v-105q0 -42 -27.5 -69t-69.5 -27q-19 0 -36 6t-31 20q-14 12 -22 30zM354 906q24 0 39 -6q56 -26 56 -85q0 -55 -48 -81l53 -111h-72l-46 102
h-16v-102h-66v283h100zM547 604l65 -152v152h63v-283h-66l-66 154v-154h-63v283h67zM638 906h86l60 -283h-65l-9 46h-58l-9 -46h-65zM945 976v-39h-888v39h888zM945 294v-37h-888v37h888zM66 604h161v-64h-96v-51h86v-63h-86v-105h-65v283zM702 540v64h176v-64h-55v-219h-66
v219h-55zM50 906h175v-63h-54v-220h-66v220h-55v63zM815 906h65v-220h83v-63h-148v283zM547 906v-283h-65v283h65zM631 142q0 25 13 39.5t32 14.5q22 0 32 -15v60h18v-122v-13.5t1 -12.5h-17l-1 18q-9 -19 -34 -19q-19 0 -31.5 13.5t-12.5 36.5zM316 410q0 -32 30 -32t30 30
v107q0 15 -9 23q-9 9 -21 9t-21 -9q-9 -8 -9 -23v-105zM797 142q0 26 14.5 40t36.5 14q21 0 34 -14t13 -37q0 -29 -15.5 -41t-33.5 -12q-20 0 -34.5 13.5t-14.5 36.5zM558 92q-12 0 -23.5 8t-11.5 36v58h19v-56q0 -31 22 -31q11 0 18.5 7.5t7.5 18.5v61h18v-74q0 -6 0.5 -13
t0.5 -14h-16l-2 16q-2 -6 -10.5 -11.5t-22.5 -5.5zM816 144q0 -17 8 -28t22 -11t22 11t8 28q0 13 -6.5 25.5t-23.5 12.5q-15 0 -22.5 -11.5t-7.5 -26.5zM680 182q-15 0 -22.5 -11t-7.5 -27q0 -15 7 -27t22 -12q10 0 17.5 5.5t9.5 16.5q0 3 1 4.5t1 4.5v17q0 3 -1 4.5t-1 2.5
q-5 22 -26 22zM187 7q0 26 16 39.5t35 13.5q22 0 35 -13.5t13 -37.5q0 -27 -16 -40t-34 -13q-19 0 -34 13.5t-15 37.5zM157 214v15h85v-13l-59 -123h-19l59 121h-66zM349 229v-13l-59 -123h-19l59 121h-68v15h87zM371 112q9 -7 23 -7q21 0 21 15q0 10 -20 18q-26 10 -26 29
q0 12 9 20.5t26 8.5q13 0 24 -6l-4 -13q-8 5 -20 5q-18 0 -18 -14q0 -6 4.5 -9t14.5 -7q27 -11 27 -30q0 -30 -38 -30q-15 0 -29 7zM350 782q30 0 30 30q0 31 -30 31h-30v-61h30zM443 194h17v24l18 5v-29h26v-13h-26v-55q0 -19 13 -19q8 0 11 1v-14q-5 -2 -16 -2
q-17 0 -21.5 9.5t-4.5 24.5v55h-17v13zM88 229h17v-136h-18v118l-25 -12l-2 13zM309 30v15t-1 14h15v-18q5 8 12.5 13.5t21.5 5.5q18 0 27 -19q4 5 11 12q9 7 24 7q9 0 21 -8t12 -34v-61h-20v59q0 30 -20 30q-8 0 -14.5 -5.5t-7.5 -11.5q0 -3 -1 -4.5t-1 -5.5v-62h-17v61
q0 28 -21 28q-8 0 -14 -5.5t-8 -11.5q-1 -4 -1 -11v-61h-18v73zM663 729h37l-20 100zM756 93v101h18v-101h-18zM236 48q-15 0 -22.5 -13t-7.5 -28t8.5 -27t21.5 -12q14 0 22.5 12t8.5 29q0 13 -7 26t-24 13zM99 7q0 23 14.5 38t37.5 15q18 0 25 -7l-3 -12q-2 1 -8.5 3
t-13.5 2q-17 0 -27 -11.5t-10 -27.5q0 -15 11 -26t26 -11q7 0 13.5 2t8.5 3l2 -12q-3 -3 -10 -5t-16 -2q-24 0 -37 13.5t-13 37.5zM765 211q-12 0 -12 11q0 12 12 12q11 0 11 -12q0 -11 -11 -11zM71 -44q-7 0 -10 4t-3 8q0 13 13 13q12 0 12 -13q0 -4 -3.5 -8t-8.5 -4z" />
    <glyph glyph-name="at" unicode="@" horiz-adv-x="1013" 
d="M257 370q-7 18 -7 40v105q0 19 7 40q4 8 9.5 15.5t12.5 13.5q14 13 31 19.5t36 6.5t37 -6.5t32 -19.5q15 -11 21.5 -31t6.5 -38v-105q0 -42 -27.5 -69t-69.5 -27q-19 0 -36 6t-31 20q-14 12 -22 30zM354 906q24 0 39 -6q56 -26 56 -85q0 -55 -48 -81l53 -111h-72l-46 102
h-16v-102h-66v283h100zM547 604l65 -152v152h63v-283h-66l-66 154v-154h-63v283h67zM638 906h86l60 -283h-65l-9 46h-58l-9 -46h-65zM945 976v-39h-888v39h888zM945 294v-37h-888v37h888zM66 604h161v-64h-96v-51h86v-63h-86v-105h-65v283zM702 540v64h176v-64h-55v-219h-66
v219h-55zM50 906h175v-63h-54v-220h-66v220h-55v63zM815 906h65v-220h83v-63h-148v283zM547 906v-283h-65v283h65zM631 142q0 25 13 39.5t32 14.5q22 0 32 -15v60h18v-122v-13.5t1 -12.5h-17l-1 18q-9 -19 -34 -19q-19 0 -31.5 13.5t-12.5 36.5zM316 410q0 -32 30 -32t30 30
v107q0 15 -9 23q-9 9 -21 9t-21 -9q-9 -8 -9 -23v-105zM797 142q0 26 14.5 40t36.5 14q21 0 34 -14t13 -37q0 -29 -15.5 -41t-33.5 -12q-20 0 -34.5 13.5t-14.5 36.5zM558 92q-12 0 -23.5 8t-11.5 36v58h19v-56q0 -31 22 -31q11 0 18.5 7.5t7.5 18.5v61h18v-74q0 -6 0.5 -13
t0.5 -14h-16l-2 16q-2 -6 -10.5 -11.5t-22.5 -5.5zM816 144q0 -17 8 -28t22 -11t22 11t8 28q0 13 -6.5 25.5t-23.5 12.5q-15 0 -22.5 -11.5t-7.5 -26.5zM680 182q-15 0 -22.5 -11t-7.5 -27q0 -15 7 -27t22 -12q10 0 17.5 5.5t9.5 16.5q0 3 1 4.5t1 4.5v17q0 3 -1 4.5t-1 2.5
q-5 22 -26 22zM187 7q0 26 16 39.5t35 13.5q22 0 35 -13.5t13 -37.5q0 -27 -16 -40t-34 -13q-19 0 -34 13.5t-15 37.5zM157 214v15h85v-13l-59 -123h-19l59 121h-66zM349 229v-13l-59 -123h-19l59 121h-68v15h87zM371 112q9 -7 23 -7q21 0 21 15q0 10 -20 18q-26 10 -26 29
q0 12 9 20.5t26 8.5q13 0 24 -6l-4 -13q-8 5 -20 5q-18 0 -18 -14q0 -6 4.5 -9t14.5 -7q27 -11 27 -30q0 -30 -38 -30q-15 0 -29 7zM350 782q30 0 30 30q0 31 -30 31h-30v-61h30zM443 194h17v24l18 5v-29h26v-13h-26v-55q0 -19 13 -19q8 0 11 1v-14q-5 -2 -16 -2
q-17 0 -21.5 9.5t-4.5 24.5v55h-17v13zM88 229h17v-136h-18v118l-25 -12l-2 13zM309 30v15t-1 14h15v-18q5 8 12.5 13.5t21.5 5.5q18 0 27 -19q4 5 11 12q9 7 24 7q9 0 21 -8t12 -34v-61h-20v59q0 30 -20 30q-8 0 -14.5 -5.5t-7.5 -11.5q0 -3 -1 -4.5t-1 -5.5v-62h-17v61
q0 28 -21 28q-8 0 -14 -5.5t-8 -11.5q-1 -4 -1 -11v-61h-18v73zM663 729h37l-20 100zM756 93v101h18v-101h-18zM236 48q-15 0 -22.5 -13t-7.5 -28t8.5 -27t21.5 -12q14 0 22.5 12t8.5 29q0 13 -7 26t-24 13zM99 7q0 23 14.5 38t37.5 15q18 0 25 -7l-3 -12q-2 1 -8.5 3
t-13.5 2q-17 0 -27 -11.5t-10 -27.5q0 -15 11 -26t26 -11q7 0 13.5 2t8.5 3l2 -12q-3 -3 -10 -5t-16 -2q-24 0 -37 13.5t-13 37.5zM765 211q-12 0 -12 11q0 12 12 12q11 0 11 -12q0 -11 -11 -11zM71 -44q-7 0 -10 4t-3 8q0 13 13 13q12 0 12 -13q0 -4 -3.5 -8t-8.5 -4z" />
    <glyph glyph-name="A" unicode="A" horiz-adv-x="1081" 
d="M62 550q3 97 30 175.5t83 134t143 85t210 29.5q24 0 68 -0.5t96.5 -10.5t107.5 -33t101 -66.5t77.5 -112.5t37.5 -170l7 -581h-225q-40 0 -75 15t-61.5 41.5t-41.5 61.5t-15 75v382h191v-535q13 -4 27 -8q12 -3 25.5 -5t25.5 -2q25 0 46.5 7.5t38 20t26 29.5t9.5 36
q0 29 -14 52t-36 48q-32 36 -52.5 67t-34 59t-22 52.5t-15.5 48.5v123q0 56 -31 102.5t-83 66.5q-79 32 -165 32q-48 0 -98.5 -11.5t-91.5 -36.5t-67.5 -64.5t-26.5 -96.5v-162q-14 -38 -37.5 -81.5t-71.5 -98.5q-21 -25 -35.5 -47.5t-14.5 -51.5q0 -20 9.5 -36.5t26 -29.5
t38.5 -20t47 -7q23 0 38 4q6 1 12 2.5t11 3.5v539h201v-383q0 -40 -15 -75t-41 -61t-61 -41t-75 -15h-232z" />
    <glyph glyph-name="B" unicode="B" horiz-adv-x="1118" 
d="M94 503v-23h88q20 -13 35.5 -34t29 -46t27 -52t30 -52t38 -45t51.5 -31q36 -14 65 -22t54 -15t47.5 -14.5t46 -20.5t49.5 -33.5t58 -52.5q15 -13 31 -22t36 -12q11 -4 26 -4q24 0 43.5 10.5t33.5 27.5t21.5 38.5t7.5 44.5q0 42 -23 76.5t-66 42.5q-27 6 -63 6
q-20 0 -42.5 -1.5t-47.5 -3.5q-27 -2 -52.5 -3.5t-50.5 -1.5q-36 0 -68 3t-59 11q-24 7 -49 23.5t-45.5 42t-34 60t-14.5 77.5q-1 36 8 67.5t25.5 58t39 46t48.5 30.5l22 9q26 7 56 9t63 2q26 0 54 -1t57 -2q36 -3 68 -3q30 0 56.5 3.5t49.5 13.5q36 13 55.5 46.5t19.5 69.5
q0 25 -8.5 47t-22.5 38.5t-33 26t-41 9.5q-29 0 -49 -12t-39.5 -30.5t-42 -41.5t-56 -44.5t-82 -40t-118.5 -27.5q-42 -5 -77.5 -35t-61.5 -68q-8 -12 -16.5 -31t-20.5 -40t-28.5 -41t-38.5 -33h-90zM67 0l5 980h75l710 -3q29 0 54.5 -9.5t45.5 -26t35 -37.5t24 -44
q18 -56 15 -118.5t-23 -116t-55.5 -90t-81.5 -38.5l-555 6v-23h522q63 -2 110 -26t66 -80q8 -24 13.5 -60.5t3 -77.5t-14 -82t-36 -74.5t-64.5 -55.5t-98 -24h-751z" />
    <glyph glyph-name="C" unicode="C" horiz-adv-x="1083" 
d="M489 0q-39 0 -87.5 14t-97.5 42.5t-95.5 71t-82 99.5t-56 128t-18.5 157q0 34 4.5 62.5t12 53t16.5 45.5t18 40q27 51 66 97t89.5 82t112 59t135.5 26h290v-436h23v436h191v-306q-6 -83 -52.5 -125.5t-148.5 -46.5q-60 0 -99 14t-62 39t-33.5 60.5t-13.5 77.5
q-2 22 -1.5 45t2.5 47q-29 -13 -65.5 -23t-83.5 -17q-42 -5 -78 -35t-62 -69q-8 -12 -16.5 -30t-20.5 -37.5t-28 -39t-38 -32.5h-128v-24h125q31 -19 51 -56t41 -78t48 -77.5t72 -53.5q31 -12 57 -19.5t48.5 -13.5t42.5 -12.5t40 -15.5q-2 27 -2.5 52.5t0.5 48.5q1 57 13 97
t37.5 66t65.5 38t99 12q96 -6 144 -44.5t48 -116.5q1 -41 1.5 -92.5t1.5 -98.5q1 -55 1 -111h-196v428h-24v-428h-307v0z" />
    <glyph glyph-name="D" unicode="D" horiz-adv-x="1092" 
d="M278 948q-22 0 -41 -9.5t-33 -26t-22 -38.5t-8 -47q0 -18 5 -36t14.5 -33.5t23 -27t31.5 -17.5q22 -10 48 -13.5t57 -3.5q15 0 32 0.5t34 1.5q28 2 54.5 3t52.5 1q36 0 72 -3.5t70 -16.5q25 -11 47 -30.5t38.5 -46t25.5 -58t8 -66.5q-1 -43 -14 -77.5t-33.5 -60t-45 -42
t-48.5 -23.5q-27 -8 -59.5 -10.5t-68.5 -2.5q-23 0 -48 1t-51 3q-24 2 -46.5 3.5t-42.5 1.5q-17 0 -32 -1t-29 -5q-42 -8 -65 -41.5t-23 -73.5q0 -22 7 -44t20 -39.5t32.5 -28.5t43.5 -11q26 0 49.5 11t43.5 26q48 48 83 71t68.5 35.5t71.5 21.5t92 29q30 11 51.5 31
t37.5 44t29.5 50t26.5 50.5t28 44.5t35 33h99v23h-98q-23 13 -39 34t-28 43t-21 42t-17 32q-26 38 -60.5 68t-76.5 35q-69 9 -116.5 27t-80.5 39.5t-55.5 44t-41.5 41t-39 30.5t-48 12zM759 477v23h-692v477h757q53 0 91.5 -26.5t64 -67.5t38 -90t12.5 -95v-419
q0 -51 -22 -101t-59.5 -89.5t-87.5 -64t-106 -24.5h-688v477h692z" />
    <glyph glyph-name="E" unicode="E" horiz-adv-x="1106" 
d="M260 571q-47 7 -85 28.5t-61.5 55.5t-31.5 78.5t5 97.5q9 36 28.5 63t46 45.5t57.5 28t64 9.5h756v-192l-72 -1q-185 -1 -318.5 -1t-226.5 -1q-23 13 -50 31.5t-56 45.5q-25 21 -47.5 35.5t-51.5 14.5q-25 0 -42.5 -12.5t-29 -31t-17 -41t-5.5 -43.5q1 -5 1 -10t1 -10
h47.5t83 0.5t102 0.5h105.5h63h52.5t36.5 -0.5t17 -0.5q42 -6 73.5 -27t53.5 -53t34.5 -72t16.5 -83q0 -5 0.5 -11t0.5 -11q1 -53 -10 -104t-33.5 -91.5t-56 -66t-77.5 -26.5h-512q-1 -5 -1 -10.5v-12.5q0 -20 5 -42.5t16.5 -41t29 -30.5t41.5 -12q29 0 52 14.5t47 36.5
q30 26 56 43.5t50 31.5h218l212 1v283h191v-477h-191q-54 0 -115.5 0.5t-122 0.5h-116h-97.5h-67h-25q-46 4 -87.5 19.5t-72.5 42.5t-49.5 65.5t-18.5 87.5q0 58 16.5 94.5t46.5 58t72.5 31t94.5 13.5h463v158h-510v0z" />
    <glyph glyph-name="F" unicode="F" horiz-adv-x="1041" 
d="M67 977h962v-191h-517q-46 14 -79 32t-57 37.5t-42 38t-34.5 33t-35 23.5t-42.5 9t-43 -9.5t-32.5 -25t-21 -36t-8.5 -41.5q-2 -38 16 -70t59 -46q15 -5 29 -5q20 0 40.5 5t40 11.5l36 12t27.5 6.5q29 2 76.5 3t101.5 1q33 0 66 -0.5t61.5 -2t51 -4t34.5 -5.5
q32 -8 58.5 -28t45 -47.5t29 -59.5t10.5 -64q1 -3 1 -10q-1 -38 -13.5 -70.5t-35 -57.5t-53.5 -40t-69 -16l-464 -4v-356h-198v553h805v23h-805v401z" />
    <glyph glyph-name="G" unicode="G" 
d="M93 512v-23h98q20 -13 35 -34.5t28.5 -47t26.5 -53t29.5 -52.5t38 -46t51.5 -32q54 -20 92 -29t71.5 -21.5t68.5 -35.5t83 -71q20 -15 43 -26t49 -11q24 0 43 10.5t32.5 27.5t21 38.5t7.5 43.5v3q0 19 -6 38t-17.5 35t-28 27t-36.5 15q-14 4 -29.5 5t-32.5 1
q-20 0 -42 -1.5t-47 -3.5q-26 -2 -50.5 -3t-48.5 -1q-35 0 -68 2.5t-60 10.5q-24 7 -48 23.5t-44.5 42t-34 60t-14.5 77.5q-1 35 8 66.5t25.5 58t38.5 46t48 30.5q34 13 69.5 16.5t71.5 3.5q26 0 52.5 -1t54.5 -3q18 -1 34.5 -1.5t32.5 -0.5q30 0 56.5 3.5t48.5 13.5
q18 6 31.5 17.5t23 27.5t14.5 33.5t5 35.5q0 25 -8 47t-22.5 38.5t-33.5 26t-40 9.5q-28 0 -48 -12t-39 -30.5t-41.5 -41t-55.5 -44t-80.5 -39.5t-116.5 -27q-42 -5 -77 -35t-61 -68q-8 -12 -16.5 -30t-20 -38t-27.5 -39t-38 -32h-100zM1025 0h-688q-56 0 -106.5 24.5
t-88 64t-59.5 89.5t-22 101v419q0 46 12.5 95t38 90t64.5 67.5t92 26.5h531q60 -1 111 -28t79 -82q25 -49 27.5 -104t-23.5 -105q-39 -72 -104.5 -115t-147.5 -43h-408v-23h692v-477z" />
    <glyph glyph-name="H" unicode="H" horiz-adv-x="1107" 
d="M67 977h974v-801q0 -36 -14 -68t-39.5 -56t-63 -38t-83.5 -14q-47 0 -84.5 6.5t-64.5 25.5t-42 53.5t-17 91.5l2 387h-344v196h529v-196q0 -164 0.5 -265t0.5 -157t0.5 -77t0.5 -25v-1h23l1 525v196h148q15 27 15 72q0 25 -7.5 47t-20 38.5t-29.5 26t-36 9.5
q-29 0 -51.5 -14.5t-47.5 -35.5q-33 -30 -62 -49.5t-55 -33t-49.5 -21.5t-44.5 -15h-105q-21 7 -44.5 15t-49.5 21.5t-55 33t-62 49.5q-25 21 -47.5 35.5t-51.5 14.5q-20 0 -37 -9.5t-29.5 -26t-20 -38.5t-7.5 -47q0 -22 4 -40t11 -32h155v-196h-1l1 -329v-235h-199l-1 564
v413z" />
    <glyph glyph-name="I" unicode="I" horiz-adv-x="536" 
d="M63 177q1 57 1 113.5v113.5q0 32 0.5 61t0.5 51q0 26 1 48l1 413h182v-49l1 -233v-131v-94q0 -133 0.5 -215.5t0.5 -129v-64v-21.5v-1h23l2 501q7 22 15.5 45t22 49t33 55.5t48.5 62.5q22 25 36 47.5t14 51.5q0 19 -9.5 36t-26 30t-38 20t-46.5 7t-48 -5v38h195v-801
q0 -36 -14 -68t-40 -56t-63.5 -38t-83.5 -14t-83.5 6.5t-64.5 25.5t-42.5 53.5t-17.5 91.5z" />
    <glyph glyph-name="J" unicode="J" horiz-adv-x="1077" 
d="M57 775v192l965 10l-1 -202v-81l-1 -154q1 -72 -9.5 -136t-34.5 -121q-28 -67 -74 -119.5t-104.5 -89t-126 -55.5t-138.5 -19q-86 0 -163 22.5t-139.5 61.5t-107.5 90.5t-66 108.5v194h646v23h-222q-41 13 -88 37.5t-107 77.5q-24 21 -47 35t-52 14q-19 0 -36 -9.5
t-29.5 -25.5t-20 -38t-7.5 -47q0 -13 1 -23.5t4 -20.5h-42v194h485q40 0 75 -15t61 -41.5t41 -62t15 -75.5v-24q0 -40 -15 -75t-41 -61.5t-61 -41.5t-75 -15h-219q42 -51 92.5 -70.5t115.5 -19.5q38 0 74.5 8t70.5 27q70 38 104.5 95.5t42.5 136.5v225q34 1 63 7.5t50.5 22
t34 41.5t12.5 67q0 25 -7.5 46.5t-20 38t-29.5 26t-36 9.5q-29 0 -52 -14t-47 -36q-32 -29 -60 -48t-53.5 -32.5t-48.5 -22t-44 -15.5h-528z" />
    <glyph glyph-name="K" unicode="K" horiz-adv-x="1095" 
d="M383 481q0 35 9 66.5t25.5 58t38.5 46t47 30.5q5 2 10.5 4t12.5 3q25 8 55 10.5t63 2.5q26 0 53 -1t54 -3q18 -1 34.5 -1.5t32.5 -0.5q31 0 57.5 3.5t47.5 13.5q18 6 31.5 17.5t23 27.5t14.5 33.5t5 35.5q0 25 -8 47t-22.5 38.5t-33 26t-39.5 9.5q-17 0 -30 -4t-24 -12
v45h192v-276q0 -34 -13.5 -69.5t-39 -65t-61.5 -48t-80 -18.5h-411v-23h410q43 0 79 -20t62 -51t40 -68t14 -70v-268h-191v39q11 -4 22 -6.5t23 -2.5q24 0 43 10.5t32.5 27.5t21 38.5t7.5 43.5q0 41 -22.5 75.5t-64.5 42.5q-14 4 -29.5 5t-32.5 1q-20 0 -42.5 -1.5
t-47.5 -3.5t-49.5 -3t-49.5 -1q-35 0 -67 2.5t-59 10.5q-24 7 -49 23.5t-45.5 42t-34 60t-14.5 77.5zM628 977v-193q-56 0 -107 4q-44 4 -89.5 13.5t-73.5 29.5q-26 20 -45 40t-36.5 35.5t-36 25.5t-44.5 10q-21 0 -40 -9.5t-33 -26t-22 -38t-8 -46.5q0 -43 24 -77
q16 -26 38 -51t43 -48.5t37 -45.5t20 -43v-57h-148l1 -23h147v-52q-4 -21 -25.5 -45t-47.5 -54t-49 -67.5t-30 -85.5q-3 -12 -3 -25q0 -24 7 -46t20.5 -39t33 -27.5t44.5 -10.5q28 0 48 9.5t41 27.5l32 26t33 24h1q22 12 57.5 23t72.5 20.5t70.5 17t52.5 10.5q4 1 7.5 1
t5.5 1q3 0 5 1v-16l-3 -170h-561v977h561z" />
    <glyph glyph-name="L" unicode="L" horiz-adv-x="1047" 
d="M67 977h194v-518q-9 -32 -16.5 -58t-20 -52.5t-34 -55t-58.5 -65.5q-12 -16 -21 -31.5t-12 -35.5q-4 -11 -4 -26q0 -23 10.5 -42.5t27.5 -33t38 -21t43 -7.5q24 0 47 9q9 1 16 7q30 16 44 43q8 11 11 30q4 16 5 34.5t0 39.5h419q0 -58 17 -95q6 -18 17.5 -32t27.5 -23.5
t33.5 -14.5t35.5 -5q25 0 46.5 8t37.5 22.5t25.5 33.5t9.5 41q0 20 -6 35.5t-17 29.5l-21 24h-625q-1 12 -1.5 25t-2.5 27q-4 37 -5 73t1 68h514q40 0 75.5 -15t61.5 -41.5t41.5 -61.5t15.5 -75v-90q0 -26 -10 -49.5t-29 -41t-46.5 -27.5t-62.5 -10h-822v977z" />
    <glyph glyph-name="M" unicode="M" horiz-adv-x="1111" 
d="M67 977h273q37 0 73.5 -21t65.5 -57t47 -83.5t18 -101.5v-355h22v355q0 53 15.5 100.5t43 83.5t65.5 57.5t83 21.5h271v-977h-198v574q14 41 32.5 71t37 52t36.5 38.5t31.5 32.5t22 33.5t8.5 40.5q0 22 -9.5 41t-26 33t-38 22.5t-46.5 8.5q-36 0 -69.5 -19.5t-45.5 -55.5
q-14 -33 -16 -76.5t2 -94.5q3 -64 3.5 -122.5t-12.5 -104.5q-2 -5 -3.5 -10.5t-3.5 -10.5q-19 -44 -60.5 -76.5t-98.5 -40.5q-11 -2 -21.5 -3t-21.5 0q-32 0 -64.5 10t-60 28.5t-48 44.5t-29.5 58q-13 46 -14 104.5t5 122.5q4 45 5.5 83t-6.5 67q-2 8 -4.5 15t-5.5 14v1
q-16 28 -45 42q-26 15 -60 17q-23 0 -45 -7t-39.5 -20.5t-28.5 -33t-11 -44.5t11 -48.5t27 -43.5q37 -37 58.5 -65.5t34.5 -54.5t20.5 -52.5t16.5 -57.5v-513h-197v977z" />
    <glyph glyph-name="N" unicode="N" horiz-adv-x="1100" 
d="M262 0q-36 0 -71.5 9t-63.5 27.5t-45 48t-17 71.5v821h191v-149q0 -62 -0.5 -132.5t-0.5 -130.5v-139q-13 -39 -36.5 -84t-70.5 -100q-21 -25 -35 -48.5t-14 -53.5q0 -20 9.5 -37t25.5 -29.5t37.5 -20t45.5 -7.5q18 0 33 3t32 9v83.5v118t0.5 138.5t0.5 144v135.5v112.5
v96v91h751v-846q0 -27 -10.5 -51t-28 -42t-41.5 -28t-51 -10h-62q-41 0 -76 15t-61.5 41.5t-41.5 61.5t-15 75v561h175v-707q12 -7 23 -8q21 -6 43 -6q25 0 46.5 7.5t37.5 20.5t25 30.5t9 37.5q0 31 -14.5 54.5t-33.5 45.5q-36 42 -67 93.5t-45 105.5v355h-24l-353 4v-570
q-3 -36 -5.5 -67t-13.5 -52q-19 -35 -47 -54.5t-56 -29.5t-51.5 -12t-33.5 -2z" />
    <glyph glyph-name="O" unicode="O" horiz-adv-x="1103" 
d="M45 489q0 98 38.5 185t106 153t157.5 106t194 44v-78q-16 -23 -36.5 -36t-44 -22t-47.5 -17.5t-46.5 -22t-42 -36t-33.5 -58.5q-10 -27 -18.5 -55t-22 -59.5t-36 -68t-60.5 -79.5q-22 -26 -36.5 -48.5t-14.5 -51.5q0 -20 9.5 -36.5t26 -29.5t38.5 -20t47 -7q53 0 82 20.5
t41.5 54.5t14 77.5t-1 90.5t-4 93t6.5 85q6 31 24.5 55t44.5 40t56.5 24.5t59.5 8.5q33 0 65.5 -8.5t58.5 -25t45 -40t25 -54.5q7 -39 5.5 -85t-4 -93t-1.5 -91t14 -78t41.5 -54.5t81.5 -20.5q25 0 47 7.5t38.5 20t26 29.5t9.5 37q0 29 -14.5 51.5t-36.5 47.5
q-38 43 -60 79.5t-35.5 68t-22 60t-18.5 55.5q-14 36 -33.5 58t-42.5 35.5t-47 22t-47.5 18t-44 22.5t-36.5 36l1 77q104 -4 194.5 -44t157 -105.5t105 -152.5t38.5 -185q0 -99 -38.5 -185.5t-105 -152.5t-157 -106t-193.5 -45v763h-25v-762q-103 4 -193 44t-157 106
t-105.5 153t-38.5 185z" />
    <glyph glyph-name="P" unicode="P" horiz-adv-x="1142" 
d="M321 575q-59 0 -101 30t-64.5 74.5t-25.5 96.5t17 96.5t63.5 74.5t112.5 30h643q31 0 56.5 -13t43.5 -33t28.5 -44.5t10.5 -48.5v-420q0 -28 -11.5 -53.5t-31 -44.5t-44.5 -30t-52 -11h-642v-259h22v233h197v-253h-415v472h579q38 -14 81.5 -37t97.5 -71q24 -21 47 -35.5
t52 -14.5q19 0 36 9.5t29.5 26t20 38.5t7.5 47q0 57 -27.5 90t-86.5 43q-22 3 -36.5 20t-14.5 39q0 21 13.5 37t33.5 19q48 9 78.5 38.5t30.5 94.5q0 25 -7 47t-20 38.5t-30 26t-36 9.5q-29 0 -51.5 -14.5t-47.5 -36.5q-44 -39 -81 -61t-69 -36h-567v-22h383v-192h-222v0z
" />
    <glyph glyph-name="Q" unicode="Q" horiz-adv-x="1101" 
d="M31 489q0 98 38.5 185t105.5 153t157 106t194 44v-78q-16 -23 -36.5 -36t-43.5 -22t-47.5 -17.5t-47 -22t-42 -36t-33.5 -58.5q-10 -27 -18.5 -55t-22 -59.5t-35.5 -68t-61 -79.5q-21 -26 -35.5 -48.5t-14.5 -51.5q0 -20 9.5 -36.5t26 -29.5t38.5 -20t47 -7
q53 0 81.5 20.5t41.5 54.5t14 77.5t-1 90.5t-4 93t6 85q6 31 24.5 55t44.5 40t56.5 24.5t60.5 8.5q33 0 65.5 -8.5t58.5 -25t44.5 -40t24.5 -54.5q8 -39 6.5 -85t-4 -93t-1.5 -91t13.5 -78t41.5 -54.5t82 -20.5q25 0 46.5 7.5t38 20t26 29.5t9.5 37q0 29 -14 51.5t-36 47.5
q-38 43 -60.5 79.5t-36 68t-22 60t-18.5 55.5q-14 36 -33.5 58t-42 35.5t-46.5 22t-47 18t-44 22.5t-36 36v77q103 -4 193.5 -44t157.5 -105.5t105.5 -152.5t38.5 -185q0 -75 -22.5 -144t-63.5 -126h-377v-24h288q7 -2 16 -5q8 -2 17 -6.5t20 -9.5q20 -10 42 -25t41 -36.5
t31 -49.5t12 -63q0 -55 -20.5 -93.5t-49 -64.5t-59 -41t-50.5 -22l-319 -9v197l471 10v21l-471 2v763h-25v-762q-103 4 -193 44t-157 106t-105.5 153t-38.5 185z" />
    <glyph glyph-name="R" unicode="R" horiz-adv-x="1107" 
d="M261 0q-41 0 -77 15.5t-62.5 42t-42 62.5t-15.5 77v584q0 95 50 145.5t146 50.5h642q31 0 56.5 -12t44 -32t28.5 -45t10 -50v-420q0 -26 -11 -51t-30 -44.5t-44.5 -31.5t-53.5 -12h-279v-89h418v-190h-498v475q21 -7 51.5 -15t65 -20.5t71 -32t69.5 -48.5q24 -22 47 -36
t52 -14q19 0 36 9.5t29.5 26t20 38t7.5 46.5q0 62 -27 91t-70 40q-23 5 -38 23.5t-15 41.5q0 25 15.5 44.5t38.5 25.5q42 11 67 39.5t25 88.5q0 25 -7 47t-20 38.5t-30 26t-36 9.5q-29 0 -51.5 -14.5t-47.5 -35.5q-61 -53 -108.5 -77.5t-88.5 -37.5h-337v-750h22v725h195
v-558q0 -41 -15.5 -76.5t-42 -62t-62.5 -42t-76 -15.5h-22v0z" />
    <glyph glyph-name="S" unicode="S" horiz-adv-x="1093" 
d="M163 589q-39 22 -59 55.5t-28 64.5q-10 36 -9 75q0 36 9 70.5t28 62t48 44t68 16.5h806v-193l-542 2q-38 13 -81.5 36.5t-98.5 71.5q-24 21 -47 35t-52 14q-19 0 -36 -9.5t-29.5 -25.5t-20 -37.5t-7.5 -46.5q0 -10 0.5 -19.5t2.5 -17.5q3 -17 9 -28q175 0 309.5 -0.5
t234.5 -1t168.5 -0.5h110.5h60.5h18.5v-757h-806q-39 0 -68 16.5t-48 44t-28 62t-9 70.5v4q0 40 15.5 75t41.5 61t61.5 41.5t76.5 15.5h354v156h193v-333h-688q-5 -14 -7 -29.5t-2 -30.5q0 -25 7.5 -46.5t20 -37.5t29.5 -25.5t36 -9.5q12 0 23.5 3t21.5 8q6 4 7 4
q9 7 17.5 13.5t17.5 14.5q45 40 91 67.5t104 45.5h348v213v-3v170h-556q-35 2 -65.5 4.5t-50.5 14.5z" />
    <glyph glyph-name="T" unicode="T" horiz-adv-x="1047" 
d="M37 977h977v-194h-568q-38 14 -82.5 37t-99.5 73q-25 22 -47.5 36t-51.5 14q-20 0 -37 -9.5t-30 -26t-20 -38t-7 -46.5q0 -16 2.5 -32.5t8.5 -30.5h651v-553q0 -43 -16 -80.5t-44 -65.5t-66 -44.5t-81 -16.5t-81 16.5t-66 45t-44.5 66t-16.5 80.5v327h196v-501h22v524
h-307l-192 1v418z" />
    <glyph glyph-name="U" unicode="U" horiz-adv-x="1082" 
d="M56 544v433h192v-496q10 -32 17 -61t15 -57q14 -47 33.5 -75t42 -45.5t47 -28t47.5 -22t43.5 -28t36.5 -45.5l-1 -81h23v81q16 29 36.5 45.5t43.5 28.5t47.5 22.5t47 28t42 45.5t33.5 75q10 34 18 70t21.5 76.5t36 87t61.5 101.5q21 32 35.5 61t14.5 65q0 25 -9.5 46.5
t-26 37.5t-38.5 25.5t-47 9.5q-53 0 -81.5 -26t-41.5 -69t-14 -99t1 -115.5t3.5 -119t-5.5 -108.5q-6 -38 -23.5 -68t-43 -51t-56.5 -32.5t-64 -12.5v734h483v-488q0 -101 -38 -190t-104 -155.5t-154.5 -105t-188.5 -38.5q-99 0 -186.5 37.5t-153.5 103t-104.5 153
t-39.5 186.5z" />
    <glyph glyph-name="V" unicode="V" horiz-adv-x="1055" 
d="M265 977q40 0 76 -15.5t62 -41.5t41.5 -61.5t15.5 -75.5v-748h129v685q0 53 20 100t55 82t82 55t100 20h167v-500h-198v224q11 18 25.5 38t33.5 43q19 22 31 42.5t12 46.5q0 20 -9.5 35.5t-24.5 26t-33.5 16t-36.5 5.5h-10.5t-9.5 -1v-688q0 -55 -21 -103t-57 -84
t-84.5 -57t-103.5 -21q-54 0 -102 20.5t-83.5 56.5t-56 83.5t-20.5 101.5v690q-5 1 -10.5 1.5t-11.5 0.5h-1q-44 -1 -74 -25t-30 -59q0 -26 12.5 -46t31.5 -43q20 -23 34.5 -44t25.5 -40v-220h-201v500h224z" />
    <glyph glyph-name="W" unicode="W" horiz-adv-x="1110" 
d="M66 977h154q67 0 126 -25.5t102.5 -69t69 -102t25.5 -125.5v-380h23v380q0 67 25.5 125.5t69 102t102 69t125.5 25.5h155v-838q0 -30 -11.5 -55t-31 -44t-44.5 -29.5t-52 -10.5h-621v372q2 -4 4 -12q13 -43 30.5 -70.5t38.5 -44.5t43.5 -28t44.5 -21q27 -13 51 -30.5
t42 -50.5l-1 -81h23v82q17 32 41.5 49.5t50.5 30.5q22 10 44.5 21t43.5 28.5t39 44.5t31 71q4 14 7.5 28t6.5 28v-385h24v468q14 43 36 91t63 106q22 32 36 61t14 66q0 25 -9.5 46.5t-26 37.5t-38 25.5t-46.5 9.5q-53 0 -82 -26t-42 -69.5t-14 -99.5t1.5 -116t4 -119
t-6.5 -109q-6 -39 -24.5 -69.5t-44.5 -51.5t-58.5 -32t-65.5 -11q-35 0 -66.5 13t-56 35.5t-41 52t-22.5 63.5q-7 46 -6 100.5t3.5 110t2.5 109t-8.5 97.5t-29 75t-59.5 42q-10 2 -19.5 3.5t-21.5 1.5q-25 0 -46.5 -9.5t-38 -26t-26 -38t-9.5 -46.5q0 -36 14 -65t36 -61
q50 -72 73.5 -129t37.5 -106v-462h-56q-28 0 -53.5 12.5t-44.5 33t-30 45t-11 48.5v838z" />
    <glyph glyph-name="X" unicode="X" horiz-adv-x="1096" 
d="M351 23q-3 44 -4 86t7 78q7 32 27 56.5t47.5 41t59.5 24.5t62 8q36 0 70 -8.5t62 -25t47.5 -41t25.5 -55.5q8 -36 7 -78t-3 -86h161q-21 30 -34.5 57t-22.5 51t-16 46.5t-16 43.5q-15 37 -35.5 59.5t-44.5 36.5t-49.5 22.5t-50 17.5t-46.5 22.5t-39 36.5v146q17 23 39 36
t46.5 22.5t50 17.5t49.5 22t44.5 36.5t35.5 59.5q9 22 16 44t16 46t22.5 51t34.5 57h-161q2 -44 3 -86t-7 -78q-6 -31 -25.5 -55t-47.5 -40.5t-62 -25t-70 -8.5q-30 0 -62 8t-59.5 24.5t-47.5 40.5t-27 56q-8 36 -7 78t4 86h-162q21 -30 34.5 -57t23 -51t16.5 -46.5
t15 -44.5q15 -37 35.5 -59t44.5 -36t49.5 -22.5t50 -17.5t46.5 -22.5t39 -36.5v-144q-17 -24 -39 -37t-46.5 -22.5t-50 -18t-49.5 -22.5t-44.5 -36t-35.5 -59q-8 -21 -15 -43.5t-16.5 -47t-23 -51.5t-34.5 -57h162zM536 279v-279h-471v12t1 11q4 91 38.5 171.5t92.5 143
t135 103t166 51.5q-89 11 -166 50.5t-135 100.5t-92.5 140.5t-38.5 170.5q-1 5 -1 11v12h471v-279h24v279h471v-11.5t-1 -11.5q-4 -92 -39 -171.5t-93.5 -141t-136.5 -100.5t-168 -49q90 -11 168 -51t136.5 -102.5t93.5 -143.5t39 -172q1 -5 1 -11v-12h-471v279h-24z" />
    <glyph glyph-name="Y" unicode="Y" horiz-adv-x="1030" 
d="M246 977q53 0 100 -20t82 -55t55 -82t20 -100v-173h23v173q0 53 20.5 100t55.5 82t82 55t100 20h214q-63 -100 -126 -198.5t-126 -198.5q-10 -14 -17.5 -27t-14.5 -24v-529h-188v436q19 26 46.5 37t56 22t54 30t42.5 63q8 21 15 43.5t17.5 48t28.5 55t49 64.5
q18 20 29.5 38.5t11.5 41.5q0 32 -28.5 53.5t-68.5 21.5q-43 0 -66 -16.5t-33.5 -43.5t-11 -62.5t1 -73l3 -75t-4.5 -68.5q-6 -29 -22.5 -48.5t-40 -32t-50.5 -18t-52 -5.5h-1q-25 2 -48 10t-41.5 21t-31.5 31.5t-17 41.5q-7 31 -5.5 68t3 75t1 73t-11 62.5t-33.5 44
t-66 16.5q-40 0 -68 -22t-28 -54q0 -23 11 -41t28 -38q31 -35 49 -64.5t29 -55t17.5 -48.5t15.5 -44q16 -43 41.5 -62.5t54 -30.5t55.5 -21.5t46 -35.5v-437h-187v529q-6 11 -14 23t-17 26q-28 45 -64.5 102t-72.5 113.5t-67.5 105.5t-49.5 78h215z" />
    <glyph glyph-name="Z" unicode="Z" horiz-adv-x="1121" 
d="M55 0l560 562q42 42 71.5 72t49.5 50l32 32l19 19l18 17q1 2 5 6q15 24 16 57.5t-10.5 64t-33.5 52.5t-53 22q-29 0 -52 -14.5t-47 -35.5q-36 -32 -66.5 -52.5t-58 -34t-52 -22t-47.5 -15.5h-280v-23h651l-1 -1q-47 -48 -86 -87q-17 -17 -33 -32.5t-28.5 -28.5t-21 -21
t-9.5 -9l-5 -5q-2 -2 -5.5 -5t-6.5 -6h-315q-44 0 -82.5 16.5t-67 45t-45 66.5t-16.5 82q0 42 16.5 79.5t44 65.5t65 44t79.5 16h802l-784 -786h338l2 -1q40 -13 86.5 -36t105.5 -75q2 -1 4 -3q21 -19 44.5 -34.5t54.5 -15.5q19 0 36 9.5t30 26t20 38t7 46.5
q0 41 -12.5 67.5t-35.5 42t-55 22t-70 6.5v431l26 26l85.5 85.5t85.5 86.5v-913h-975z" />
    <glyph glyph-name="bracketleft" unicode="[" horiz-adv-x="623" 
d="M44 -82v1143h509v-57h-311q-17 13 -34.5 20.5t-38.5 7.5q-19 0 -36 -9.5t-29.5 -25.5t-20 -37.5t-7.5 -46.5q0 -33 8 -56.5t22.5 -39.5t34.5 -25t44 -13t39 -21.5t15 -41.5v-452q0 -24 -15.5 -42t-39.5 -22q-25 -4 -46 -12.5t-36.5 -24t-24 -39t-8.5 -57.5q0 -25 7.5 -47
t20.5 -38.5t30 -26t36 -9.5q23 0 42.5 9.5t39.5 25.5h308v-63h-509z" />
    <glyph glyph-name="backslash" unicode="\" horiz-adv-x="1283" 
d="M70 921h254l889 -890h-254q-5 6 -10.5 11.5l-11.5 11.5l-677 677z" />
    <glyph glyph-name="bracketright" unicode="]" horiz-adv-x="623" 
d="M70 991v57h508v-1123h-508v64h308q19 -16 38 -26t44 -10q19 0 36 9.5t29.5 26t20 38.5t7.5 47q0 67 -32.5 96.5t-83.5 37.5q-23 3 -39 21t-16 42v432q0 23 15.5 41t38.5 23q48 8 78.5 37.5t30.5 94.5q0 25 -7 47t-19.5 38.5t-29.5 26t-36 9.5q-21 0 -38.5 -8t-34.5 -21
h-310z" />
    <glyph glyph-name="asciicircum" unicode="^" horiz-adv-x="434" 
d="M184 971h64l160 -190v-64h-128l-32 127v66q0 12 -8.5 21t-20.5 9h-3q-13 0 -22.5 -9t-9.5 -22v-65l-31 -127h-127v64z" />
    <glyph glyph-name="underscore" unicode="_" horiz-adv-x="852" 
d="M45 -127v127h762v-127h-762z" />
    <glyph glyph-name="grave" unicode="`" horiz-adv-x="305" 
d="M279 1055v-32h-63l-191 191v63h127z" />
    <glyph glyph-name="a" unicode="a" 
d="M67 550q3 97 30 175.5t83 134t143 85t210 29.5q24 0 68 -0.5t96.5 -10.5t107 -33t101 -66.5t78 -112.5t37.5 -170l7 -580l-225 -1q-40 0 -75.5 15t-61.5 41.5t-41.5 61.5t-15.5 75v382h192v-535q13 -4 27 -8q11 -3 25 -5t25 -2q25 0 47 7.5t38.5 20t26 29.5t9.5 36
q0 29 -14.5 52t-35.5 48q-32 36 -53 67t-34.5 59t-22 52.5t-15.5 48.5v123q0 56 -31 102.5t-82 66.5q-79 32 -166 32q-48 0 -98 -11.5t-91 -36.5t-67.5 -64.5t-26.5 -96.5v-162q-14 -38 -37.5 -81.5t-71.5 -98.5q-22 -25 -36 -47.5t-14 -51.5q0 -20 9.5 -36.5t26 -29.5
t38 -20t46.5 -7q23 0 39 4q13 2 22 6v539h201v-383q0 -40 -15 -75t-41 -61t-61 -41t-75 -15h-232z" />
    <glyph glyph-name="b" unicode="b" horiz-adv-x="1125" 
d="M98 503v-23h87q20 -13 35.5 -34t29 -46t27 -52t30.5 -52t38.5 -45t51.5 -31q36 -14 65 -22t54 -15t47.5 -14.5t45.5 -20.5t49 -33.5t58 -52.5q16 -13 32 -22t36 -12q11 -4 26 -4q24 0 43.5 10.5t33 27.5t21 38.5t7.5 44.5q0 42 -22.5 76.5t-66.5 42.5q-27 6 -62 6
q-20 0 -43 -1.5t-48 -3.5q-26 -2 -51.5 -3.5t-50.5 -1.5q-36 0 -68 3t-59 11q-24 7 -49 23.5t-45.5 42t-34 60t-14.5 77.5q-1 36 8 67.5t25.5 58t39 46t48.5 30.5l22 9q26 7 55.5 9t62.5 2q27 0 54.5 -1t56.5 -2q36 -3 69 -3q30 0 56.5 3.5t49.5 13.5q35 13 54.5 46.5
t19.5 69.5q0 25 -8 47t-22.5 38.5t-33.5 26t-41 9.5q-28 0 -48 -12t-39.5 -30.5t-42 -41.5t-56.5 -44.5t-82 -40t-119 -27.5q-42 -5 -77 -35t-61 -68q-8 -12 -17 -31t-21 -40t-28.5 -41t-38.5 -33h-89zM134 3h-64l6 977h74l710 -3q30 0 55 -9.5t45.5 -26t35.5 -37.5t24 -44
q18 -56 15 -118.5t-23.5 -116t-55.5 -90t-81 -38.5l-556 6v-23h522q63 -2 110.5 -26t66.5 -80q8 -24 13 -60.5t3 -77.5t-13.5 -82t-36 -74.5t-64.5 -55.5t-98 -24z" />
    <glyph glyph-name="c" unicode="c" horiz-adv-x="1090" 
d="M492 0q-39 0 -87 14t-97 42.5t-95.5 71t-82 99.5t-56 128t-18.5 157q0 67 16.5 115t33.5 86q28 51 66.5 97t89 82t112 59t135.5 26h290v-436h24v436h190v-306q-6 -83 -52 -125.5t-148 -46.5q-60 0 -99 14t-62.5 39t-33.5 60.5t-13 77.5q-2 22 -1.5 45t2.5 47
q-29 -13 -66 -23t-84 -17q-42 -5 -77.5 -35t-61.5 -69q-8 -12 -16.5 -30t-20.5 -37.5t-28.5 -39t-38.5 -32.5h-128v-24h126q30 -19 50 -56t41 -78t48.5 -77.5t72.5 -53.5q31 -12 57 -19.5t48.5 -13.5t42.5 -12.5t40 -15.5q-5 54 -3 101q1 57 13 97t37.5 66t66 38t98.5 12
q96 -6 144.5 -44.5t48.5 -116.5q1 -41 1.5 -92.5t1.5 -98.5q1 -55 1 -111h-197v428h-23v-428h-308v0z" />
    <glyph glyph-name="d" unicode="d" horiz-adv-x="1100" 
d="M283 948q-22 0 -41 -9.5t-33.5 -26t-22.5 -38.5t-8 -47q0 -18 5 -36t14.5 -33.5t23.5 -27t32 -17.5q22 -10 48 -13.5t56 -3.5q16 0 32.5 0.5t34.5 1.5q28 2 54.5 3t52.5 1q36 0 71.5 -3.5t69.5 -16.5q25 -11 47.5 -30.5t39 -46t25.5 -58t8 -66.5q-2 -43 -15 -77.5
t-33 -60t-44.5 -42t-48.5 -23.5q-27 -8 -59.5 -10.5t-68.5 -2.5q-24 0 -48.5 1t-50.5 3q-25 2 -47 3.5t-42 1.5q-17 0 -32 -1t-29 -5q-42 -8 -65.5 -41.5t-23.5 -73.5q0 -22 7 -44t20.5 -39.5t32.5 -28.5t44 -11q26 0 49.5 11t43.5 26q47 48 82 71t68.5 35.5t72 21.5
t92.5 29q29 11 50.5 31t38 44t29.5 50t26 50.5t28 44.5t35 33h99v23h-98q-22 13 -38 34t-28 43t-21 42t-17 32q-26 38 -61 68t-77 35q-69 9 -116.5 27t-80.5 39.5t-55.5 44t-41.5 41t-38.5 30.5t-47.5 12zM763 477v23h-692v477h758q52 0 91 -26.5t64.5 -67.5t38 -90
t12.5 -95v-419q0 -51 -22 -101t-59.5 -89.5t-87.5 -64t-106 -24.5h-689v477h692z" />
    <glyph glyph-name="e" unicode="e" horiz-adv-x="1114" 
d="M264 571q-47 7 -85 28.5t-61.5 55.5t-31.5 78.5t5 97.5q9 36 28.5 63t45.5 45.5t57.5 28t63.5 9.5h756v-192l-72 -1q-185 -1 -318 -1t-226 -1q-24 13 -50.5 31.5t-56.5 45.5q-24 21 -47 35.5t-52 14.5q-25 0 -42.5 -12.5t-29 -31t-16.5 -41t-5 -43.5q1 -5 1 -10t1 -10
h47.5t83 0.5t102 0.5h105.5h62.5h52t36.5 -0.5t17 -0.5q42 -6 74 -27t54 -53t34.5 -72t16.5 -83v-22q2 -53 -9 -104t-33.5 -91.5t-56.5 -66t-77 -26.5h-512q-2 -5 -2 -10.5v-12.5q0 -20 5.5 -42.5t16.5 -41t29 -30.5t42 -12q29 0 51.5 14.5t47.5 36.5q29 26 55.5 43.5
t49.5 31.5h219l211 1v283h192v-284l-1 -193h-191q-54 0 -115.5 0.5t-121.5 0.5h-115.5h-97.5h-67h-25q-47 4 -88 19.5t-72.5 42.5t-49.5 65.5t-18 87.5q0 58 16.5 94.5t46.5 58t72 31t94 13.5h464v158h-510v0z" />
    <glyph glyph-name="f" unicode="f" horiz-adv-x="1047" 
d="M71 977h962v-191h-516q-47 14 -79.5 32t-56.5 37.5t-42 38t-34.5 33t-35 23.5t-42.5 9t-43 -9.5t-32.5 -25t-21.5 -36t-9 -41.5q-2 -38 16 -70t59 -46q15 -5 30 -5q19 0 40 5t40 11.5t35.5 12t28.5 6.5q29 2 76.5 3t100.5 1q33 0 66 -0.5t61.5 -2t51 -4t34.5 -5.5
q32 -7 58.5 -27.5t45.5 -48t29.5 -60t10.5 -63.5q0 -39 -11.5 -73.5t-33.5 -60.5t-54 -42.5t-72 -17.5l-464 -4v-356h-198v553h806v23h-806v401z" />
    <glyph glyph-name="g" unicode="g" horiz-adv-x="1096" 
d="M96 512v-23h98q20 -13 35 -34.5t28.5 -47t26.5 -53t29.5 -52.5t38 -46t51.5 -32q54 -20 92 -29t71.5 -21.5t68.5 -35.5t83 -71q20 -15 43.5 -26t49.5 -11q24 0 43 10.5t32.5 27.5t20.5 38.5t7 43.5v3q0 19 -6 38t-17.5 35t-27.5 27t-36 15q-14 4 -29.5 5t-32.5 1
q-20 0 -42.5 -1.5t-46.5 -3.5q-26 -2 -51 -3t-48 -1q-36 0 -68.5 2.5t-59.5 10.5q-24 7 -48.5 23.5t-45 42t-33.5 60t-14 77.5q-1 35 8 66.5t25.5 58t38.5 46t47 30.5q34 13 70 16.5t72 3.5q26 0 52.5 -1t54.5 -3q17 -1 34 -1.5t32 -0.5q31 0 57.5 3.5t48.5 13.5
q18 6 31.5 17.5t23 27.5t14.5 33.5t5 35.5q0 25 -8.5 47t-22.5 38.5t-33 26t-41 9.5q-28 0 -47.5 -12t-38.5 -30.5t-41.5 -41t-55.5 -44t-80.5 -39.5t-117.5 -27q-41 -5 -76 -35t-61 -68q-8 -12 -16.5 -30t-20 -38t-28 -39t-38.5 -32h-100zM1029 0h-689q-56 0 -106 24.5
t-87.5 64t-59.5 89.5t-22 101v419q0 46 12.5 95t38 90t64.5 67.5t92 26.5h531q60 -1 111 -28t79 -82q25 -49 27 -104t-24 -105q-38 -72 -104 -115t-148 -43h-407v-23h692v-477z" />
    <glyph glyph-name="h" unicode="h" horiz-adv-x="1116" 
d="M71 977h975v-801q0 -36 -14 -68t-40 -56t-63.5 -38t-83.5 -14t-83.5 6.5t-64.5 25.5t-42.5 53.5t-17.5 91.5l3 387h-345v196h529v-196q0 -164 0.5 -265t0.5 -157t0.5 -77t0.5 -25v-1h24v721h149q8 14 11 32t3 40q0 25 -7 47t-19.5 38.5t-29.5 26t-36 9.5q-29 0 -52 -14.5
t-47 -35.5q-33 -30 -62.5 -49.5t-55.5 -33t-49 -21.5t-45 -15h-104q-22 7 -45.5 15t-49.5 21.5t-55 33t-62 49.5q-24 21 -47 35.5t-52 14.5q-19 0 -36 -9.5t-29.5 -26t-20 -38.5t-7.5 -47q0 -44 15 -72h155v-196h-1l1 -329v-235h-199l-1 564v160l-1 36v217z" />
    <glyph glyph-name="i" unicode="i" horiz-adv-x="545" 
d="M67 177q1 57 1 113.5v113.5q0 32 0.5 61t0.5 51q0 26 1 48l2 413h182v-49l1 -233v-131v-94q0 -133 0.5 -215.5t0.5 -129v-64v-21.5v-1h23l2 501q7 22 15.5 45t21.5 49t33 55.5t49 62.5q21 25 35.5 47.5t14.5 51.5q0 19 -9.5 36t-26 30t-38.5 20t-47 7t-47 -5v38h194v-801
q0 -36 -14 -68t-40 -56t-63 -38t-84 -14q-46 0 -83.5 6.5t-64.5 25.5t-42.5 53.5t-17.5 91.5z" />
    <glyph glyph-name="j" unicode="j" horiz-adv-x="1084" 
d="M60 775v192l966 10l-1 -202l-1 -24v-57l-1 -154q2 -72 -8.5 -136t-34.5 -121q-29 -67 -75 -119.5t-104.5 -89t-126 -55.5t-138.5 -19q-85 0 -162 22.5t-139.5 61.5t-108 90.5t-66.5 108.5v194h646v23h-221q-41 13 -88 37.5t-107 77.5q-25 21 -47.5 35t-51.5 14
q-20 0 -37 -9.5t-29.5 -25.5t-20 -38t-7.5 -47t6 -44h-43v194h485q40 0 75 -15t61.5 -41.5t41.5 -62t15 -75.5v-24q0 -40 -15 -75t-41.5 -61.5t-61.5 -41.5t-75 -15h-218q42 -51 92 -70.5t116 -19.5q38 0 74 8t70 27q70 38 104.5 95.5t43.5 136.5v225q33 1 62 7.5t50.5 22
t34 41.5t12.5 67q0 25 -7 46.5t-19.5 38t-29.5 26t-36 9.5q-29 0 -52 -14t-47 -36q-32 -29 -60.5 -48t-54 -32.5t-48 -22t-43.5 -15.5h-529z" />
    <glyph glyph-name="k" unicode="k" horiz-adv-x="1103" 
d="M388 481q-1 35 8 66.5t25.5 58t38.5 46t48 30.5q5 2 10.5 4t11.5 3q25 8 55.5 10.5t63.5 2.5q26 0 52.5 -1t54.5 -3q17 -1 34 -1.5t33 -0.5q30 0 56.5 3.5t48.5 13.5q18 6 31.5 17.5t23 27.5t14.5 33.5t5 35.5q0 25 -8 47t-22.5 38.5t-33.5 26t-40 9.5q-30 0 -54 -16v45
h193v-276q0 -34 -14 -69.5t-39.5 -65t-61.5 -48t-80 -18.5h-410v-23h409q44 0 80 -20t62 -51t40 -68t14 -70v-268h-191l-1 39q11 -4 22.5 -6.5t23.5 -2.5q24 0 43 10.5t32.5 27.5t20.5 38.5t7 43.5q0 41 -22 75.5t-65 42.5q-14 4 -29.5 5t-32.5 1q-20 0 -42.5 -1.5
t-46.5 -3.5q-25 -2 -50 -3t-49 -1q-35 0 -67.5 2.5t-59.5 10.5q-24 7 -49 23.5t-45.5 42t-33.5 60t-14 77.5zM633 977v-193q-57 0 -108 4q-22 2 -45 5t-44.5 8.5t-40.5 12.5t-32 17q-27 20 -46 40t-36 35.5t-36 25.5t-44 10q-21 0 -40 -9.5t-33.5 -26t-22.5 -38t-8 -46.5
q0 -43 24 -77q16 -26 38.5 -51t43 -48.5t36.5 -45.5t20 -43v-57h-147v-23h147v-52q-4 -21 -25.5 -45t-47 -54t-49 -67.5t-30.5 -85.5q-3 -12 -3 -25q0 -24 7 -46t20.5 -39t33 -27.5t45.5 -10.5q28 0 48 9.5t41 27.5q15 13 31 26t34 24q23 12 58.5 23t72.5 20.5t70.5 17
t51.5 10.5q4 1 7.5 1t5.5 1q3 0 5 1v-16l-2 -170h-562v977h562z" />
    <glyph glyph-name="l" unicode="l" horiz-adv-x="1051" 
d="M71 977h194v-518q-9 -32 -16 -58t-20 -52.5t-34 -55t-58 -65.5q-12 -16 -21 -31.5t-13 -35.5q-3 -12 -3 -26q0 -23 10.5 -42.5t27 -33t38 -21t43.5 -7.5q23 0 46 9q5 1 9 3l8 4q21 12 35.5 30.5t19.5 42.5q4 16 5 34.5t0 39.5h418q0 -56 18 -95q6 -18 17.5 -32t27 -23.5
t33.5 -14.5t36 -5q25 0 46.5 8t37.5 22.5t25.5 33.5t9.5 41q0 20 -6.5 35.5t-17.5 29.5l-10 12l-10 12h-626q-1 12 -1.5 25t-2.5 27q-3 37 -4 73t1 68h514q40 0 75 -15t61.5 -41.5t41.5 -61.5t15 -75v-90q0 -26 -10 -49.5t-29 -41t-46.5 -27.5t-61.5 -10h-823v977z" />
    </font>
</defs>
</svg>
